<svg xmlns="http://www.w3.org/2000/svg" width="215.255" height="39.334" viewBox="0 0 215.255 39.334">
    <defs>
        <clipPath id="wbafjuztha">
            <path data-name="사각형 6" style="fill:#fff" d="M0 0h215.255v39.334H0z"/>
        </clipPath>
    </defs>
    <g data-name="그룹 1" style="clip-path:url(#wbafjuztha)">
        <path data-name="패스 1" d="M75.917 21.765a5.579 5.579 0 0 0-1.881-1.119 15.807 15.807 0 0 0-2.745-.714c-1.224-.222-2.184-.421-2.934-.628a5.671 5.671 0 0 1-1.757-.734 2.156 2.156 0 0 1-.853-1.045 4.82 4.82 0 0 1-.229-1.614 3.957 3.957 0 0 1 4.166-4.257 5.736 5.736 0 0 1 2.507.52 5.4 5.4 0 0 1 1.788 1.381 6.678 6.678 0 0 1 1.121 1.993 8.872 8.872 0 0 1 .493 2.375v.048h.569v-6.2H75.6a5.949 5.949 0 0 1-.2.717.558.558 0 0 1-.591.375 1.428 1.428 0 0 1-.771-.269c-.3-.195-.635-.405-1.006-.616a8.53 8.53 0 0 0-1.392-.615 6.129 6.129 0 0 0-1.951-.277 5.679 5.679 0 0 0-2.247.435A5.266 5.266 0 0 0 65.7 12.73a5.413 5.413 0 0 0-1.116 1.82 6.624 6.624 0 0 0-.4 2.322 8.934 8.934 0 0 0 .41 2.971 4.065 4.065 0 0 0 1.254 1.813 5.714 5.714 0 0 0 2.115 1.027 26.523 26.523 0 0 0 2.988.611 16.1 16.1 0 0 1 2.176.5 4.419 4.419 0 0 1 1.522.788 2.98 2.98 0 0 1 .887 1.24 5.317 5.317 0 0 1 .289 1.872 4.154 4.154 0 0 1-1.338 3.132 4.347 4.347 0 0 1-1.487.893 5.625 5.625 0 0 1-1.919.315 7.066 7.066 0 0 1-2.452-.43 5.413 5.413 0 0 1-2-1.313 6.392 6.392 0 0 1-1.355-2.224 9 9 0 0 1-.505-3.162v-.054h-.573V32.3h.573a6.4 6.4 0 0 1 .1-.827c.062-.255.249-.381.572-.381a2.168 2.168 0 0 1 .9.232c.376.172.767.351 1.164.524a12.224 12.224 0 0 0 1.495.527 7.558 7.558 0 0 0 1.962.232 7.16 7.16 0 0 0 2.785-.509 5.562 5.562 0 0 0 2-1.415 5.923 5.923 0 0 0 1.189-2.129 8.612 8.612 0 0 0 .4-2.664 7.719 7.719 0 0 0-.337-2.434 4.1 4.1 0 0 0-1.076-1.691" transform="translate(-13.581 -2.346)" style="fill:#fff"/>
        <path data-name="패스 2" d="M95.536 31.32a4.967 4.967 0 0 1-2.68 2.307 5.358 5.358 0 0 1-1.872.321 3.279 3.279 0 0 1-1.809-.438 2.738 2.738 0 0 1-1.017-1.144 4.565 4.565 0 0 1-.419-1.566 18.264 18.264 0 0 1-.082-1.725v-3.038h8.428a.254.254 0 0 0 .291-.287A4.316 4.316 0 0 0 96 24.295a7.425 7.425 0 0 0-1.1-1.856 7.215 7.215 0 0 0-1.8-1.614 4.54 4.54 0 0 0-2.5-.692 4.586 4.586 0 0 0-2.438.676 6.74 6.74 0 0 0-1.9 1.725 8.609 8.609 0 0 0-1.243 2.327 7.276 7.276 0 0 0-.452 2.438 8.65 8.65 0 0 0 .468 2.922 6.739 6.739 0 0 0 1.325 2.26 5.832 5.832 0 0 0 2.034 1.467 6.4 6.4 0 0 0 2.6.52 5.416 5.416 0 0 0 3.761-1.377 6.06 6.06 0 0 0 1.921-3.6h-.516a5.673 5.673 0 0 1-.613 1.829m-7.879-6.7a7.372 7.372 0 0 1 .146-1.486 4.071 4.071 0 0 1 .484-1.276 2.474 2.474 0 0 1 .9-.889 2.841 2.841 0 0 1 1.4-.322 2.5 2.5 0 0 1 1.324.322 2.359 2.359 0 0 1 .825.889 4.015 4.015 0 0 1 .419 1.276 9.385 9.385 0 0 1 .113 1.486v.68a.2.2 0 0 1-.226.228h-5.397z" transform="translate(-17.892 -4.26)" style="fill:#fff"/>
        <path data-name="패스 3" d="M114.576 22.323a6.712 6.712 0 0 0-9.977 0 7.25 7.25 0 0 0-1.373 2.3 7.678 7.678 0 0 0 0 5.362 7.274 7.274 0 0 0 1.373 2.293 6.717 6.717 0 0 0 9.977 0 7.284 7.284 0 0 0 1.371-2.293 7.654 7.654 0 0 0 0-5.362 7.26 7.26 0 0 0-1.371-2.3m-1.244 6.232q0 1.064-.08 2.036a4.924 4.924 0 0 1-.434 1.711A2.788 2.788 0 0 1 111.7 33.5a5.18 5.18 0 0 1-4.231 0 2.76 2.76 0 0 1-1.114-1.194 4.839 4.839 0 0 1-.435-1.711q-.08-.97-.082-2.036v-2.522q0-1.064.082-2.033a4.87 4.87 0 0 1 .435-1.712 2.751 2.751 0 0 1 1.114-1.192 5.164 5.164 0 0 1 4.231 0 2.778 2.778 0 0 1 1.114 1.192 4.956 4.956 0 0 1 .438 1.708q.08.97.08 2.033z" transform="translate(-21.74 -4.26)" style="fill:#fff"/>
        <path data-name="패스 4" d="M138.754 21.546h.872a2.021 2.021 0 0 1 1.178.259.842.842 0 0 1 .339.709 3.112 3.112 0 0 1-.113.794 7 7 0 0 1-.4 1.083l-3.067 7.067-4.263-9.912h2.584v-.515h-14.5v.515h1.743l5.941 13.5h.225L132.716 27l3.584 8.042h.226l4.748-10.942c.171-.409.338-.777.5-1.1a3.1 3.1 0 0 1 .566-.809 2.011 2.011 0 0 1 .807-.483 3.827 3.827 0 0 1 1.227-.163v-.515h-5.619zm-8.363 9.685-4.1-9.685h4.037l2.132 4.846z" transform="translate(-25.684 -4.45)" style="fill:#fff"/>
        <path data-name="패스 5" d="M162.684 22.323a6.712 6.712 0 0 0-9.976 0 7.262 7.262 0 0 0-1.372 2.3 7.654 7.654 0 0 0 0 5.362 7.286 7.286 0 0 0 1.372 2.293 6.634 6.634 0 0 0 2.164 1.6 6.957 6.957 0 0 0 5.649 0 6.647 6.647 0 0 0 2.163-1.6 7.3 7.3 0 0 0 1.372-2.293 7.643 7.643 0 0 0 0-5.362 7.277 7.277 0 0 0-1.372-2.3m-1.243 6.232q0 1.064-.082 2.036a4.838 4.838 0 0 1-.434 1.711 2.771 2.771 0 0 1-1.115 1.194 5.178 5.178 0 0 1-4.231 0 2.765 2.765 0 0 1-1.114-1.194 4.821 4.821 0 0 1-.434-1.711q-.08-.97-.082-2.036v-2.518q0-1.064.082-2.033a4.852 4.852 0 0 1 .434-1.712 2.755 2.755 0 0 1 1.114-1.192 5.162 5.162 0 0 1 4.231 0 2.762 2.762 0 0 1 1.115 1.192A4.869 4.869 0 0 1 161.36 24q.082.97.082 2.033z" transform="translate(-31.919 -4.26)" style="fill:#fff"/>
        <path data-name="패스 6" d="M185.071 23.778a4.534 4.534 0 0 0-.208-1.37 2.815 2.815 0 0 0-.712-1.163 3.569 3.569 0 0 0-1.354-.808 6.439 6.439 0 0 0-2.148-.3 4.392 4.392 0 0 0-1.614.288 5.342 5.342 0 0 0-1.358.772 6.344 6.344 0 0 0-1.065 1.068 9.205 9.205 0 0 0-.774 1.162h-.066v-3.294a2.157 2.157 0 0 1-.452.4 1.5 1.5 0 0 1-.532.21 3.9 3.9 0 0 1-.727.084c-.278.01-.613.016-1 .016h-1.788v.515h1.788v12.205h-1.788v.516h6.191v-.516h-1.691v-9.106c.151-.278.349-.636.6-1.067a6.8 6.8 0 0 1 .936-1.256 5.286 5.286 0 0 1 1.34-1.049 3.622 3.622 0 0 1 1.809-.438 1.959 1.959 0 0 1 1.34.5 2.421 2.421 0 0 1 .561 1.853v10.563h-1.787v.516h6.288v-.516h-1.789z" transform="translate(-36.24 -4.26)" style="fill:#fff"/>
        <path data-name="사각형 2" transform="translate(178.176 15.904)" style="fill:#fff" d="M0 0h2.483v13.946H0z"/>
        <path data-name="사각형 3" transform="translate(178.176 8.971)" style="fill:#fff" d="M0 0h2.483v2.97H0z"/>
        <path data-name="사각형 4" transform="translate(187.215 8.972)" style="fill:#fff" d="M0 0h2.485v20.879H0z"/>
        <path data-name="사각형 5" transform="translate(196.354 8.972)" style="fill:#fff" d="M0 0h2.485v20.879H0z"/>
        <path data-name="패스 7" d="m265.369 26.383-1.286-.316c-1.768-.426-3.225-.826-3.225-2.114 0-.915.883-1.969 2.655-1.969a4.168 4.168 0 0 1 2.6.8 2.213 2.213 0 0 1 .949 1.85h2.477c-.457-3.169-3.2-4.4-5.766-4.4-3.115 0-5.2 1.545-5.2 4 0 2.8 2.656 3.4 4.826 3.91l1.282.265c1.63.308 2.8.6 2.8 2.133 0 1.46-1.172 2.228-3.17 2.228A3.984 3.984 0 0 1 261.6 32a2.857 2.857 0 0 1-1-2.226h-2.569a5.1 5.1 0 0 0 2 3.649 7.331 7.331 0 0 0 4.168 1.1c3.71 0 5.654-2.063 5.654-4.257 0-2.828-2.886-3.509-4.484-3.883" transform="translate(-54.598 -4.282)" style="fill:#fff"/>
        <path data-name="패스 8" d="M214.916 11.339V32.25h-2.722v-9.509h-7.845v9.509h-2.7V11.339h2.7v8.725h7.845v-8.725z" transform="translate(-42.667 -2.399)" style="fill:#fff"/>
        <path data-name="패스 9" d="M39.725 19.729A19.866 19.866 0 0 0 23.99.3a3.774 3.774 0 0 1 2.41 2.928 1.047 1.047 0 0 1-.9 1.1s-.982.3-1.394-1.027A3.97 3.97 0 0 0 20.067.63c-2.182.121-4.56.986-4.678 4.876s3.754 8.144 6.176 9.164a10.285 10.285 0 0 1 .11-2.716 22.681 22.681 0 0 1 4.589 4.665c1.595 2.42 2.908 6.057 2.417 11.6 0 0-.118.158-.292-.258s-3.187-4.62-5-5.663c0 0-.338-.277-.019-.847a7.646 7.646 0 0 0 .807-4.444s-.068-.4-.18-.391-.127 0-.134.581-.895 4.354-2.053 3.912a10.052 10.052 0 0 1-1.53-1.609c-1.068-1.3-4.205-5.558-5.384-9.078s-2.055-9 2.7-10.425a19.862 19.862 0 0 0-.937 39.334c-5.453-1.407-5.909-7.119-5.909-7.585a1.384 1.384 0 0 1 1.475-1.5 1.316 1.316 0 0 1 1.3 1.924 5.085 5.085 0 0 0-.271 1.967c.53 2.655 3.179 4.605 6.941 4.506s5.542-1.634 6.368-3.6a5.29 5.29 0 0 0 .2-3.638C25.3 28.636 23.961 29.2 20.8 28.5a13.375 13.375 0 0 1-7.323-4.108 10.356 10.356 0 0 1-2.5-4.91 10.1 10.1 0 0 1 2.871.825 10.429 10.429 0 0 1-1.679-5.677 9.641 9.641 0 0 1 1.291-5.218 23.234 23.234 0 0 0 4.08 8.291c-2.01.2-3.656-.893-3.693-.725a.33.33 0 0 0 .083.274 8.142 8.142 0 0 0 3.323 1.315 1.791 1.791 0 0 1 1.377.77 22.784 22.784 0 0 0 4.342 4.242 11.691 11.691 0 0 1-6.548-.9c-.765-.353-.687-.14-.687-.14s-.277.235 1.161 1.06 5.508 1.009 6.239 1.009a1.7 1.7 0 0 1 1.137.407c3.619 3.188 4.956 6.414 3.739 10.171a6.427 6.427 0 0 1-3.952 3.959 19.866 19.866 0 0 0 15.664-19.416" style="fill:#fff"/>
    </g>
</svg>
