<svg xmlns="http://www.w3.org/2000/svg" width="23" height="23" viewBox="0 0 23 23">
    <defs>
        <clipPath id="qvka0t9tma">
            <path data-name="사각형 2711" transform="translate(.107 .257)" style="fill:none;stroke:#000" d="M0 0h23v23H0z"/>
        </clipPath>
    </defs>
    <g data-name="그룹 4698">
        <g data-name="그룹 4694" transform="translate(-.107 -.257)" style="clip-path:url(#qvka0t9tma)">
            <path data-name="합치기 11" d="M14.941 20h-4.134a3.334 3.334 0 1 1-3.267-4c.068 0 .135 0 .2.006l.335-1.339H5.721a.667.667 0 0 1-.642-.486L1.47 1.333H0V0h1.975a.667.667 0 0 1 .642.487l1.174 4.18h18.877a.667.667 0 0 1 .64.851l-2.491 8.667a.668.668 0 0 1-.641.483H9.45l-.421 1.684a3.346 3.346 0 0 1 1.779 2.316h4.134a3.334 3.334 0 1 1 0 1.334zm1.267-.666a2 2 0 1 0 2-2 2 2 0 0 0-2 2.001zm-10.668 0a2 2 0 1 0 2-2 2 2 0 0 0-1.999 2.001zm.686-6h13.448L21.783 6H4.166z" transform="translate(-.053 .172)" style="fill:#fff"/>
        </g>
    </g>
</svg>
