<svg xmlns="http://www.w3.org/2000/svg" width="330.335" height="109.148" viewBox="0 0 330.335 109.148">
    <defs>
        <clipPath id="ovp1wihgma">
            <path data-name="사각형 3170" style="fill:none" d="M0 0h330.335v109.148H0z"/>
        </clipPath>
    </defs>
    <g data-name="그룹 5759" style="clip-path:url(#ovp1wihgma)">
        <path data-name="패스 8301" d="M117.077 48.649c-3.554-6.812-15.5-10.295-25.778-10.713l-.034-.7a112.8 112.8 0 0 1 15.387-1.336 33.1 33.1 0 0 1 10.336 1.352l1 .348-1.014.325a9.417 9.417 0 0 1-1.528.278c-1.039.134-1.755.255-2.128.674a22.324 22.324 0 0 1 3.275.37 19.549 19.549 0 0 0 2.95.325 5.632 5.632 0 0 0 1.546-.19c.03-.217.069-.434.1-.657.446-2.945.959-6.259-.4-8.237a37.952 37.952 0 0 0-6.674-.467c-3.526 0-7.451.251-10.821.5l-1.319.093c-7.4.526-16.587 1.178-18.965 5.019a4.865 4.865 0 0 0-.094 4.543c3.18.564 6.386.912 9.489 1.244 7.735.83 15.044 1.612 20.552 5.79 2.412 1.82 3.566 3.933 3.437 6.276-.241 4.346-4.921 8.632-9.24 11.2a55.017 55.017 0 0 1-24.484 7.465c-.46.022-.943.027-1.412.027a34.918 34.918 0 0 1-8.545-.919 26.509 26.509 0 0 1-4.887-1.891 20.782 20.782 0 0 1-4.935-3.705v.006a11.108 11.108 0 0 1-2.651-8.726 67.409 67.409 0 0 0 26.651 2.679C85.36 67.838 74.1 67.291 74.1 67.291c15.132 4.964 17.614-7.683 17.614-7.683.06-.287.1-.576.136-.852a38.739 38.739 0 0 0 10.763-4.144s-.239.064-.669.173c.155-.081.316-.141.471-.218a84.8 84.8 0 0 1-10.3 1.462c.266-10.654-8.559-13.082-8.559-13.082-15.719-4.194-21.474 5.149-23.191 9.247C58.7 51.339 44.009 44.1 31.521 46.2a33.313 33.313 0 0 0-7.7 1.884 32.114 32.114 0 0 1 5.054-11.836C43.772 16.7 78.308-.483 112.148 1.625c11.214.694 29.023 5.83 30.7 13.619 3.714 17.2-15.3 22.861-24.409 30.168 7.812-3.939 18.278-9.057 23.111-16.277 12.353-18.45-10.736-27.766-27.308-28.88C77.365-2.216 42.855 13.566 27.091 34.39a34.519 34.519 0 0 0-5.728 14.624A72.545 72.545 0 0 0 0 63.04c1.458-1.428 13.859-10.148 21.163-11.886a27 27 0 0 0 5.928 18.405c2.107 2.7 5.865 5.434 9.456 5.765C27.214 71.69 22.643 61.46 23.5 50.693a26.6 26.6 0 0 1 5.072-.343s6.161-1.011 20.542 2.864c3.041.88 6.438 2 10.208 3.405a16.4 16.4 0 0 0 3.457 12.386c3.489 4.918 10.7 7.492 16.18 7.791.792.049 1.6.07 2.4.07 13.935 0 28.219-6.546 33.977-15.559 3.038-4.78 3.627-9.029 1.731-12.659m-40.271-2c9.43 1.863 10.48 7.16 10.419 9.665A77.07 77.07 0 0 1 66.65 54.48a48.772 48.772 0 0 1-4.94-1.712c5.071-8.1 15.1-6.117 15.1-6.117" style="fill:#2f190d"/>
        <path data-name="패스 8302" d="m191.093 75.21-.419.162-.048-.462c-.393-4.781 2.285-9.045 4.865-13.174l.141-.223c.289-.472.607-1 .951-1.57 1.54-2.564 3.553-5.9 5.717-7.634 13.406-.739 17.725-6.187 17.725-6.187a23.64 23.64 0 0 1-7.791 3.135 32.915 32.915 0 0 1-8.009.457l.992-.674a7.793 7.793 0 0 0 3.3-7.741 5.165 5.165 0 0 0-4.537-3.945q-.25.669-.507 1.337C201.676 43.4 199.83 48.224 195 50.1c-5.65.348-8.242 1.734-8.242 1.734a32.84 32.84 0 0 1 2.912-.25c3.727-.044 5.271.793 5.271.793l.206.212-.166.234a237.242 237.242 0 0 0-2.769 4.053c-4.615 6.85-9.39 13.929-17.155 17.905l-.478.244-.021-.543c-.441-8.758 5.444-16.373 10.646-23.1 1.374-1.791 2.681-3.471 3.84-5.144 2.57-3.683 5.772-8.268 4.623-11.593-.566-1.663-2.139-2.907-4.8-3.808v2.075a22.333 22.333 0 0 1-.608 2.63c-1.863 3-3.726 6.192-5.515 9.295-6.38 10.969-12.971 22.3-22.061 29.076l-.611.489a2.3 2.3 0 0 1 .244-1.055 84.121 84.121 0 0 1 8-13.348 6.705 6.705 0 0 0-4.443-3.689c-2.3 2.178-4.606 4.776-6.822 7.3-3.248 3.679-6.6 7.476-9.981 9.9l-.67.49.127-.821c1.744-11.647 9.831-16.873 17.52-20.452l.1-.055.122.021a2.08 2.08 0 0 1 1.207.946 1.53 1.53 0 0 0 .73.65 11.93 11.93 0 0 0-4.534-6.61c-8.6 4.243-17.724 10-18.155 24.208.246.327.494.652.73.988 1.306 1.811 2.552 3.527 4.96 4.091a66.077 66.077 0 0 0 4-5.731 52.265 52.265 0 0 1 5.269-7.216c.671-.64.966-.966.966-.966l.183-.169a20.57 20.57 0 0 0-1.1 2.434c-1.547 2.929-2.245 7.828-.814 10.622a3.194 3.194 0 0 0 3.015 1.916h.011a3.593 3.593 0 0 0 .524-.032c2.026-.223 3.048-2.5 4.174-4.889a16.28 16.28 0 0 1 3.8-5.291c.007-.033 1.189-.962 1.189-.962a3.543 3.543 0 0 0-.548 1.462 9.677 9.677 0 0 0 2.2 7.349 6.045 6.045 0 0 0 4.485 2.038 7.334 7.334 0 0 0 1.166-.108c2.28-.434 3.808-2.863 5.589-5.481 0 0 3.013-4.271 3.663-5.358a5.723 5.723 0 0 0-.2 1.1 9.813 9.813 0 0 0 2.332 7.687 6.756 6.756 0 0 0 4.794 2.466c.119 0 .242 0 .356-.016 3.676-.3 7.12-6.575 10.163-12.1 1.024-1.875 2.024-3.7 2.989-5.189a62.52 62.52 0 0 0-4.211 4.748c-3.278 3.934-6.646 8-12.1 9.927" transform="translate(-25.877 -5.562)" style="fill:#2f190d"/>
        <path data-name="패스 8303" d="M291.184 62.448a11.565 11.565 0 0 0-6.8-13.207l-1.226-.511 1.322-.158c5.983-.7 10.059-2.786 12.476-6.367a18 18 0 0 0-.384-5.052c-4.039-3.226-11.871-5.068-21.51-5.068-9.127 0-18.384 1.689-23.661 4.313-.532 1.271.216 4.123.8 5.59.433.033.848.075 1.264.119a14.84 14.84 0 0 0 1.774.141 4.257 4.257 0 0 0 1.714-.315.344.344 0 0 1-.072 0c-.4-.039-1.09-.108-1.151-.815l-.023-.277.265-.081a69.912 69.912 0 0 1 12.6-2.261c.639-.081 1.266-.152 1.9-.229l1.328-.17-1.094.793c-2.233 1.63-4.19 4.362-6.085 7-2.589 3.6-5.256 7.323-8.833 8.708a24.69 24.69 0 0 1-5.467 1.3 19.4 19.4 0 0 0-4.823 1.175c-4.676 2.016-10.76 5.7-9.7 14.424 2.156 5.285 9.476 9.078 17.8 9.213.225.006.439.006.657.006 14.952 0 34.923-8.427 36.921-18.27M271 47.986a9.411 9.411 0 0 1 2.98-3.766c1.747-1.553 3.383-3.021 2.779-5.524l-.085-.36.362-.07a32.306 32.306 0 0 1 5.81-.488 30.3 30.3 0 0 1 10.877 1.748l.53.219-.439.368c-4.946 4.184-12.079 6.829-22.438 8.328l-.56.081zm14.148 18.1c-7.226 5.645-21.509 10.066-32.51 10.066-.944 0-1.884-.038-2.771-.1-4.481-.315-12.178-2.053-12.7-6.481-.684-6.014 6.228-8.224 11.777-10.007.709-.227 1.413-.446 2.071-.673l.335-.109.11.331c.382 1.152-.809 2.575-2.308 4.373-1.754 2.1-3.739 4.482-3.43 6.737a4.441 4.441 0 0 0 2.019 2.933A92.679 92.679 0 0 1 261.2 58.145l.094-.1h.511a20.527 20.527 0 0 1 14.417 5.216c-.853-5.237-5.092-7.106-11.142-8.231l-.475-.086.224-.423c1.3-2.375 4.489-3.679 8.976-3.679 7.154 0 16.072 3.352 16.426 7.518.179 2.163-2.889 6.02-5.081 7.726" transform="translate(-42.494 -5.785)" style="fill:#2f190d"/>
        <path data-name="패스 8304" d="M323.544 73.024v-.006s-.019.021 0 .006" transform="translate(-58.335 -13.165)" style="fill:#2f190d"/>
        <path data-name="패스 8305" d="M396.389 43.218a10.414 10.414 0 0 0-4.358-7.98 11.877 11.877 0 0 0-7.9-2.462c-6.8.413-7.23 5.232-7.23 5.232-.456 1.706.457.57.457.57a7.167 7.167 0 0 1 4.9-4.443 8.5 8.5 0 0 1 8.727 1.814 7.039 7.039 0 0 1 2.228 6.817C391.6 54.757 374.05 62.432 367.3 64.954a55.271 55.271 0 0 0 12.77-4.075c19.347-8.339 16.314-17.661 16.314-17.661" transform="translate(-66.227 -5.906)" style="fill:#2f190d"/>
        <path data-name="패스 8306" d="M359.139 56.962a8.789 8.789 0 0 0-2.825-2.407 19.176 19.176 0 0 1-1.267-.842A107.331 107.331 0 0 0 344.691 65.1c-2.317 2.8-4.552 5.5-6.862 7.931l-1.529 1.545a39.383 39.383 0 0 1-3.741 3.28l-.412.32-.137-.509a6.288 6.288 0 0 1-.188-1.527s.011-.387.079-1c.51-3.4 3.484-6.828 6.384-10.163 2.989-3.445 5.8-6.694 5.2-9.246-.306-1.289-1.467-2.353-3.546-3.254-4.985 10-12.612 16.971-19.982 23.718a72.457 72.457 0 0 0-1.785 1.641l-.706.69c-.157-.218.245-1.087.245-1.087a86.962 86.962 0 0 1 8.049-13.5 6.724 6.724 0 0 0-4.436-3.69c-2.307 2.178-4.61 4.776-6.828 7.3-3.253 3.677-6.607 7.475-9.967 9.9l-.689.488.131-.825c1.743-11.643 9.833-16.88 17.514-20.46l.111-.053.116.032a2.065 2.065 0 0 1 1.209.946 1.492 1.492 0 0 0 .731.646 11.9 11.9 0 0 0-4.535-6.607c-8.6 4.244-17.717 10-18.158 24.2.255.327.49.658.73.99 1.315 1.82 2.553 3.536 4.962 4.1a66.091 66.091 0 0 0 4-5.726 52.937 52.937 0 0 1 5.272-7.215l.967-.966c-.766 1.782-.912 2.118-.932 2.174l-.018.043c-1.541 2.9-2.189 7.817-.756 10.642a3.932 3.932 0 0 0 .865 1.142 5.233 5.233 0 0 0 .944.575 3.265 3.265 0 0 0 1.216.224 4.139 4.139 0 0 0 .508-.034 4.056 4.056 0 0 0 2.48-1.787l.838-1.223c.7-1.085 1.358-2.346 2.009-3.607a22.833 22.833 0 0 1 3.733-5.509 8.049 8.049 0 0 1 1.7-1.34c.384-.152-.154.6-.3.962a10.694 10.694 0 0 0-.62 7.111c.081.391.234.852.234.852a10.274 10.274 0 0 0 .943 2.13 4.414 4.414 0 0 0 3.625 2.422c.068 0 .143 0 .211-.011 2.316-.146 4.319-3.818 6.078-7.04.318-.566.618-1.1.929-1.619 0 0 .592-.967.815-1.316a17.036 17.036 0 0 1 2.092-2.667c.007-.037 1.457-1.189 1.457-1.189s-.318.609-.816 1.722c-.287.467-.55.972-.837 1.494l-.657 1.249c-.9 1.787-1.853 3.781-2.824 5.858-1.563 3.312-3.224 6.833-5.012 10.054-.832 1.472-2.851 5.709-3.738 7.187-8.672 14.375-9.68 13.821-18.792 17.95s-19.413 1.19-19.413 1.19a16.1 16.1 0 0 1-5.28-2.151c-5.582-3.662-1.364-10.182-1.364-10.182 3.889-7.235 18.279-14.581 28.6-19.482 0 0-1.513.43-2.416.74s-2.583 1.07-2.583 1.07c-19.8 8.686-24.627 15.76-24.627 15.76-7.822 8.986-.725 14.059-.725 14.059 10.131 6.689 26.3 1.158 26.3 1.158 18.292-6.628 19.265-10.431 24.991-19.064a12.249 12.249 0 0 0 1.714-2.966c1.353-2.423 2.627-5.107 3.914-7.872 1.1-2.357 2.239-4.786 3.453-7.051 1.676-3.112 3.452-6.025 5.225-8.757l.763-1.146c2.4-3.64 4.794-6.934 6.9-9.828.492-.675.97-1.321 1.431-1.962" transform="translate(-50.756 -9.307)" style="fill:#2f190d"/>
        <path data-name="패스 8307" d="M238.666 119.232c-.366.38-1.442 1.358-2.277 2.047-1.207 1.006-2.892 2.284-4.189 2.284a2.642 2.642 0 0 1-1.746-.75c-.739-4.173 1.286-7.058 3.353-9.856 1.57-2.117 4.69-5.558 5.151-8.49a2.7 2.7 0 0 1 1.636 1.662c.385 1.544-2.755 4.829-4.189 6.627-.538.669-1.052 1.3-1.448 1.907l-.471.679c-1.533 2.255-2.981 4.379-2.922 7.1l.008.342.293-.174c4.426-2.515 9.192-6.715 11.4-10.5.792.053 1.091.591 1.42 1.211.046.086.1.184.15.271a17.864 17.864 0 0 1-1.794 2.712 11.615 11.615 0 0 0-2.721 5.638l-.075.523.4-.343a48.485 48.485 0 0 0 6.568-6.09c.86-1.081 1.752-2.2 2.6-3.173a3.475 3.475 0 0 1 1.449 1.087c.061.054.107.109.163.163a12.115 12.115 0 0 1-1.726 2.666 8.755 8.755 0 0 0-2.311 4.933l-.045.528.384-.354c1.273-1.173 11.379-8.443 13.757-15.885a2.139 2.139 0 0 1 1.7 1.107c.49 1.289-1.117 3.418-2.413 5.124-.486.635-2.142 2.705-2.434 3.2 0 0-.143.325.438.048a5.558 5.558 0 0 1 2.3-.837c.692 0 1.578.289 1.511 1.006-.5 5.216-2.968 8.768-7.894 8.768a7.941 7.941 0 0 1-1-.066 4.867 4.867 0 0 1-.4-4.035.994.994 0 0 0 .145-.571.351.351 0 0 0-.341-.381 12.453 12.453 0 0 0-2.357 1.675c-.729.618-2.18 1.9-2.755 2.411a1.974 1.974 0 0 1-.248.011 1.781 1.781 0 0 1-1.543-.673c-.78-1.038-.343-2.972-.125-3.728.166-.8-.324-.319-.324-.319a10.645 10.645 0 0 0-1.533 2.172c-.627 1.114-2.712 2.325-3.821 2.89-1.018-.743-1.6-2-1.35-4.406.014-.657-.374-.168-.374-.168m21.045-3.472c-3.053 2.109-4.819 3.01-5.537 7.6l-.091 1.011.3-.114c3.492-1.37 5.2-3.428 6.3-8.4.092-.565-.418-.413-.418-.413z" transform="translate(-41.524 -18.836)" style="fill-rule:evenodd;fill:#2f190d"/>
        <path data-name="패스 8308" d="M217.246 125.346a9.324 9.324 0 0 1-1.793-.19c-2.2-.457-4.285-3.07-3.84-6.482.826-6.268 9.336-11.783 14.684-12.75a8.108 8.108 0 0 1 1.757 2.358c.139.243.285.506.441.744a18.1 18.1 0 0 1-3.451 2.277c-.394.216-.793.439-1.185.668a20.677 20.677 0 0 1 1.622-1.869c.356-.375.725-.756 1.065-1.158l.359-.422-.586.1a16.845 16.845 0 0 0-8.945 4.853c-1.421 1.38-5.308 6.248-4.63 8.9a2.169 2.169 0 0 0 1.5 1.488 3.842 3.842 0 0 0 1.216.19c2.441 0 5.456-1.934 7.028-3.1a10.792 10.792 0 0 0 1.789-1.722 8.028 8.028 0 0 1 1.71-1.575c-1.275 3.8-4.171 7.688-8.745 7.688" transform="translate(-38.144 -19.098)" style="fill-rule:evenodd;fill:#2f190d"/>
        <path data-name="패스 8309" d="M170.753 113.663a9.8 9.8 0 0 1-5.87 8.306l-.272.13-.006-.3c-.254-4.291 2.984-8.372 6.953-8.822a1.369 1.369 0 0 0-.5-1.039 2.769 2.769 0 0 1-.4-.488 7.888 7.888 0 0 0-5.658 3.31 7.251 7.251 0 0 0-1.673 6.014c.284 1.124.888 1.693 1.816 1.693 2.5 0 6.633-4.123 6.924-6.889a1.633 1.633 0 0 0-1.312-1.916" transform="translate(-29.421 -20.095)" style="fill:#2f190d"/>
        <path data-name="패스 8310" d="M155.815 113.443a1.287 1.287 0 0 0-.707.338c-2.993 2.726-8.9 7.545-11.827 7.622-.7.021-.97-.457-.97-1.076-.1-3.058 3.036-6.937 4.867-8.676a21.674 21.674 0 0 1 6.959-4.389 35 35 0 0 1 1.237-.44 19.274 19.274 0 0 1 2.189-.45l-.28.357c-.34.424-.7.831-1.038 1.222a20 20 0 0 0-1.606 1.994c.385-.239.775-.473 1.164-.7a16.951 16.951 0 0 0 3.353-2.4c-.085-.156-.36-.7-.408-.8a10.749 10.749 0 0 0-1.268-2.13 13.8 13.8 0 0 0-5.172 1.4c-.492.228-.978.478-1.442.728-4.123 2.287-10.1 7.714-9.95 13.191a4.779 4.779 0 0 0 .685 2.39 2.865 2.865 0 0 0 2.562 1.586 3.35 3.35 0 0 0 1.653-.533c2.7-1.406 7.329-5.541 9.6-7.948a13.265 13.265 0 0 1-1.855 4.09c-1.984.473-7.94 4.553-7.863 7.34.03 1.077.6 1.744 1.371 1.728 3.223-.1 6.735-6.111 8.2-8.595.334-.114 1.073-.173 1.057-.619 0-.071 0-.173-.18-.169l-.589.022a10.99 10.99 0 0 0 1.425-4.172 1.564 1.564 0 0 0-1.166-.907m-9.2 12.864c.189-2.308 4.618-5.671 6.353-6.513-1.835 2.706-4.629 6.422-6.353 6.513" transform="translate(-25.407 -18.735)" style="fill:#2f190d"/>
        <path data-name="패스 8311" d="M198.942 106.183a1.962 1.962 0 0 0-1.682-2.125 3.125 3.125 0 0 0-.463-.06h-.137a1.179 1.179 0 0 0-.15.007c-.793.075-1.473.755-2.635 2.1-.183.206-1.643 1.864-2.633 2.976-.282.311-.577.642-.923 1.044-.441.516-.944 1.081-1.51 1.76a11.294 11.294 0 0 1-2.7.543 2.051 2.051 0 0 1-.454-.032s.175 1.058.8 1.058a8.385 8.385 0 0 0 1.489-.451 73.021 73.021 0 0 1-6.288 5.162 35.557 35.557 0 0 1-4.435 2.38l-.283.043-.034-.216c-.064-2.716 1.416-4.835 2.981-7.079.16-.233.315-.456.473-.689.411-.6.929-1.223 1.473-1.9 1.462-1.786 5.239-5.063 4.85-6.6a2.7 2.7 0 0 0-1.673-1.652c-.457 2.923-4.218 6.346-5.817 8.447-2.118 2.8-4.112 5.428-3.348 9.589a2.4 2.4 0 0 0 2.679.478 9.645 9.645 0 0 0 2.085-1.112 14.791 14.791 0 0 0 2.731-2.016 42.5 42.5 0 0 1 2.946-2.7 25.9 25.9 0 0 0-3.954 6.3 8.429 8.429 0 0 0-.656 3.156c0 1.407 1.057 3.005 2.4 3.005 1.171 0 2.6-.446 5.089-3.39.446-.511.849-1.049 1.239-1.592a18.331 18.331 0 0 0 2.053-3.635 9.338 9.338 0 0 0 .8-3.45c0-1.439-.747-2.786-2.032-2.786a.5.5 0 0 0-.187.027c-.155.055-.216.179-.216.424 0 .125.152.157.362.2a2.3 2.3 0 0 1 .325.087c.452.163.89.516.89 1.64a7.546 7.546 0 0 1-.407 1.842 18.192 18.192 0 0 1-3.745 6.026c-.142.157-.3.326-.467.5-1.185 1.255-2.953 2.923-4.259 2.923-.422-.061-.6-.413-.6-.93a3.653 3.653 0 0 1 .025-.374 8.444 8.444 0 0 1 .92-2.761 35.969 35.969 0 0 1 3.305-5.253c1.007-1.2 2.244-2.711 3.8-4.673a32.539 32.539 0 0 1 4.232-.956c.1-.033.3-.033.312-.163 0-.218-.638-.255-.747-.255a11.546 11.546 0 0 0-2.884.484 80.22 80.22 0 0 1 2.012-2.146c.146-.147.275-.288.414-.43.22-.233.424-.451.624-.652.207-.217.421-.434.652-.652a10.534 10.534 0 0 1 2.206-1.83c.907-.283 1.021 1.271 1.021 1.271s.038-.152.076-.38a.259.259 0 0 1 .011-.093c.014-.07.014-.13.024-.229z" transform="translate(-31.677 -18.472)" style="fill:#2f190d"/>
    </g>
</svg>
