<svg xmlns="http://www.w3.org/2000/svg" xmlns:xlink="http://www.w3.org/1999/xlink" width="58.818" height="58.818" viewBox="0 0 58.818 58.818">
  <defs>
    <clipPath id="clip-path">
      <rect id="_IMAGE" data-name="#!IMAGE" width="58.818" height="58.818" rx="29.409" fill="#fff"/>
    </clipPath>
    <clipPath id="clip-path-2">
      <rect id="사각형_2432" data-name="사각형 2432" width="107.399" height="158.735" fill="none"/>
    </clipPath>
  </defs>
  <g id="그룹_5331" data-name="그룹 5331" transform="translate(0 -11.764)">
    <g id="그룹_5259" data-name="그룹 5259" transform="translate(0 11.764)">
      <g id="그룹_4078" data-name="그룹 4078">
        <rect id="_IMAGE-2" data-name="#!IMAGE" width="58.818" height="58.818" rx="29.409" fill="#ffe3d8"/>
        <g id="마스크_그룹_265" data-name="마스크 그룹 265" clip-path="url(#clip-path)">
          <g id="그룹_4067" data-name="그룹 4067" transform="translate(-26.141 4.901)">
            <g id="그룹_4066" data-name="그룹 4066" clip-path="url(#clip-path-2)">
              <path id="패스_8011" data-name="패스 8011" d="M1.5,179.316c-7.5,10.059,14.12,9.582,42.567,10.365s68.982.674,62.676-7.931c-7.271-9.923-21-9.324-49.442-10.107s-47.246-3.794-55.8,7.672" transform="translate(0 -31.254)" fill="#aece79"/>
              <path id="패스_8012" data-name="패스 8012" d="M86.173,134.493s-1.394,26.783-1.523,27.244l-7,.076-2.13-27.594Z" transform="translate(-13.826 -24.574)" fill="#ff9c90"/>
              <path id="패스_8013" data-name="패스 8013" d="M85.309,163.217l-.141,8.681-7.235-.383-.2-8.551s4.089,1.532,7.575.253" transform="translate(-14.232 -29.837)" fill="#e3d3c3"/>
              <path id="패스_8014" data-name="패스 8014" d="M82.588,171.882l-.7-.037.045-8c.226.019.459.032.7.039Z" transform="translate(-14.994 -29.998)" fill="#c5b0a8"/>
              <path id="패스_8015" data-name="패스 8015" d="M79.486,163.464c.214.048.448.095.7.139l-.046,8.1-.7-.037Z" transform="translate(-14.544 -29.929)" fill="#c5b0a8"/>
              <path id="패스_8016" data-name="패스 8016" d="M85.079,171.968l-.7-.037.046-8.116c.231-.022.465-.052.7-.092Z" transform="translate(-15.45 -29.976)" fill="#c5b0a8"/>
              <path id="패스_8017" data-name="패스 8017" d="M75.516,133.055a5.33,5.33,0,1,0,5.465-5.187,5.326,5.326,0,0,0-5.465,5.187" transform="translate(-13.826 -23.411)" fill="#ffa08b"/>
              <rect id="사각형_2425" data-name="사각형 2425" width="15.326" height="0.874" transform="matrix(1, -0.003, 0.003, 1, 63.066, 146.425)" fill="#133b56"/>
              <path id="패스_8018" data-name="패스 8018" d="M77.2,177.745l15.32-.041a4.331,4.331,0,0,0-1.21-3.176,6.272,6.272,0,0,0-3.978-1.673c-.551-.064-2.225-1.793-2.225-1.793l-7.42.091a29.093,29.093,0,0,0-.488,6.592" transform="translate(-14.135 -31.32)" fill="#1c8186"/>
              <path id="패스_8019" data-name="패스 8019" d="M88.684,173.276a6.168,6.168,0,0,1,3.85,1.658,4.333,4.333,0,0,1,1.209,3.176l-9.864.027a5.576,5.576,0,0,1,4.805-4.861" transform="translate(-15.357 -31.725)" fill="#1caba9"/>
              <path id="패스_8020" data-name="패스 8020" d="M73.157,118.8,70.684,88.608l14.877-8.53s1.479,38.584,1.5,38.861Z" transform="translate(-12.941 -14.661)" fill="#c5b0a8"/>
              <path id="패스_8021" data-name="패스 8021" d="M73.7,125.3a6.973,6.973,0,1,0,7.01-6.931A6.967,6.967,0,0,0,73.7,125.3" transform="translate(-13.494 -21.672)" fill="#c5b0a8"/>
              <path id="패스_8022" data-name="패스 8022" d="M87.621,126.546s.737,17.856-.49,23.843c-.594,2.9-11.407,2.937-11.841.314-1.271-7.667-1.6-23.584-1.6-23.584Z" transform="translate(-13.491 -23.169)" fill="#c5b0a8"/>
              <path id="패스_8023" data-name="패스 8023" d="M73.685,125.622a6.973,6.973,0,1,0,6.682-7.249,6.968,6.968,0,0,0-6.682,7.249" transform="translate(-13.49 -21.672)" fill="#c5b0a8"/>
              <path id="패스_8024" data-name="패스 8024" d="M60.274,131.836s-12.744,24.973-13.052,25.34l-6.153-2.462,9.621-27.546Z" transform="translate(-7.519 -23.283)" fill="#ff9c90"/>
              <path id="패스_8025" data-name="패스 8025" d="M52.724,126.495a5.33,5.33,0,1,0,7.126-2.455,5.326,5.326,0,0,0-7.126,2.455" transform="translate(-9.554 -22.612)" fill="#ffa08b"/>
              <path id="패스_8026" data-name="패스 8026" d="M49.022,158.663,45.4,166.553l-6.468-3.263,3.259-7.909s3.128,3.048,6.833,3.281" transform="translate(-7.128 -28.449)" fill="#e3d3c3"/>
              <path id="패스_8027" data-name="패스 8027" d="M43.051,165.5l-.623-.314,3.263-7.308c.2.107.407.213.622.315Z" transform="translate(-7.768 -28.907)" fill="#c5b0a8"/>
              <path id="패스_8028" data-name="패스 8028" d="M43.582,156.55c.176.13.371.267.582.407l-3.3,7.4-.623-.315Z" transform="translate(-7.367 -28.663)" fill="#c5b0a8"/>
              <path id="패스_8029" data-name="패스 8029" d="M45.277,166.6l-.624-.314,3.311-7.41q.33.109.676.2Z" transform="translate(-8.175 -29.089)" fill="#c5b0a8"/>
              <path id="패스_8030" data-name="패스 8030" d="M51.422,119.191l6.721-31.279,16.051,2.846s-9.366,32.047-9.417,32.32Z" transform="translate(-9.415 -16.096)" fill="#e3d3c3"/>
              <path id="패스_8031" data-name="패스 8031" d="M51.522,124.461a6.972,6.972,0,1,0,8.62-4.781,6.964,6.964,0,0,0-8.62,4.781" transform="translate(-9.383 -21.862)" fill="#e3d3c3"/>
              <path id="패스_8032" data-name="패스 8032" d="M52.555,149.214s7.918-11.564,10.811-19.236l-13.222-4.385-6.34,18s-.892,2.671,3.168,4.935a6.951,6.951,0,0,0,5.583.682" transform="translate(-8.005 -22.995)" fill="#e3d3c3"/>
              <path id="패스_8033" data-name="패스 8033" d="M51.522,124.461a6.972,6.972,0,1,0,8.62-4.781,6.964,6.964,0,0,0-8.62,4.781" transform="translate(-9.383 -21.862)" fill="#e3d3c3"/>
              <path id="패스_8034" data-name="패스 8034" d="M87.215,30.172A3.939,3.939,0,1,1,90.241,34.8a3.923,3.923,0,0,1-3.026-4.624" transform="translate(-15.952 -4.963)" fill="#f68f82"/>
              <path id="패스_8035" data-name="패스 8035" d="M87.47,12.123c-1.053-1.346-4.709-.779-4.241.872,2.645,9.3,1.335,9.761,3.451,16.533L94.1,26.973c-.754-2.987-2.3-9.314-6.633-14.851" transform="translate(-15.231 -2.082)" fill="#f68f82"/>
              <path id="패스_8036" data-name="패스 8036" d="M69.777,40.685c-3.822.5-8.612-8.218-.059-10.009,5.307-1.114,13.15-2.951,16.535-3.447l2.239,7.512a67.342,67.342,0,0,1-18.715,5.943" transform="translate(-11.89 -4.986)" fill="#f68f82"/>
              <path id="패스_8037" data-name="패스 8037" d="M91.511,27.146a3.939,3.939,0,1,1-4.241,3.541,3.924,3.924,0,0,1,4.241-3.541" transform="translate(-15.975 -4.967)" fill="#f68f82"/>
              <path id="패스_8038" data-name="패스 8038" d="M63.632,39.113a6.611,6.611,0,0,1,3.724-8.577l9.859-2.975s1.948.578,3.738,5.075c1.854,4.659.754,5.646.754,5.646l-9.5,4.553a6.613,6.613,0,0,1-8.578-3.723" transform="translate(-11.566 -5.046)" fill="#228a91"/>
              <path id="패스_8039" data-name="패스 8039" d="M89.336,11.075l-.886,2.974s-3.366-.168-4.211-.785-.451-3.006-.451-3.006Z" transform="translate(-15.324 -1.878)" fill="#f68f82"/>
              <path id="패스_8040" data-name="패스 8040" d="M81.9,73.024c2.2,2.1,1.57,9.885,1.57,9.885s-12.62,10.977-24.658,4.67c0,0-.859-8.887,2.606-12.683,3.509-3.844,16.658-5.517,20.482-1.872" transform="translate(-10.751 -12.999)" fill="#e3d3c3"/>
              <path id="패스_8041" data-name="패스 8041" d="M78.116,83.129l-.208-.666a1.034,1.034,0,0,0,.677-.607c.522-1.211-.462-3.732-.886-4.6l.627-.306c.069.139,1.656,3.429.9,5.182a1.716,1.716,0,0,1-1.109,1" transform="translate(-14.226 -14.089)" fill="#c5b0a8"/>
              <path id="패스_8042" data-name="패스 8042" d="M78.67,90.7l-.7-.02a24.759,24.759,0,0,0-3.2-13l.586-.379A24.989,24.989,0,0,1,78.67,90.7" transform="translate(-13.691 -14.153)" fill="#c5b0a8"/>
              <path id="패스_8043" data-name="패스 8043" d="M58.8,84.229c2.386.247,4.162-.211,5.271-1.365,1.716-1.79,1.282-4.7,1.278-4.729l.688-.109c.021.132.5,3.274-1.459,5.317a6.08,6.08,0,0,1-4.589,1.652c-.39,0-.8-.025-1.231-.068.011-.227.025-.461.042-.7" transform="translate(-10.759 -14.286)" fill="#c5b0a8"/>
              <path id="패스_8044" data-name="패스 8044" d="M83.957,74.7l.7.025c0,.035-.1,3.526,1.69,5.128a3.124,3.124,0,0,0,1.826.775c0,.239,0,.47,0,.691a3.827,3.827,0,0,1-2.3-.948c-2.032-1.822-1.925-5.514-1.92-5.67" transform="translate(-15.371 -13.677)" fill="#c5b0a8"/>
              <path id="패스_8045" data-name="패스 8045" d="M68.517,77.968c8.929,0,13.507-4.308,13.783-4.571l-.707-2.138c-.314.3-8.436,7.193-20.728,3.523l-.2,1.955a28.179,28.179,0,0,0,7.852,1.232" transform="translate(-11.107 -13.047)" fill="#7a2e38"/>
              <rect id="사각형_2426" data-name="사각형 2426" width="2.984" height="1.394" transform="translate(50.131 64.76) rotate(-84.72)" fill="#e3d3c3"/>
              <rect id="사각형_2427" data-name="사각형 2427" width="1.394" height="2.985" transform="translate(58.27 62.532) rotate(-6.971)" fill="#e3d3c3"/>
              <rect id="사각형_2428" data-name="사각형 2428" width="1.394" height="2.985" transform="translate(66.221 60.869) rotate(-11.527)" fill="#e3d3c3"/>
              <path id="패스_8046" data-name="패스 8046" d="M56.375,51.632c-2.871-8.306-6.939-15.409,3.558-19.474,2.725-1.056,6.325-2.044,8.433-1.207C78.859,35.12,80.887,59.755,80.92,62.4,81.006,69,59.53,71.09,58.513,66.449c-1.555-7.091.017-8.582-2.139-14.817" transform="translate(-9.729 -5.609)" fill="#22acac"/>
              <path id="패스_8047" data-name="패스 8047" d="M61.616,67.07c-.6-1.625.127-4.692,1.126-4.488,1.179.24.915,5.3,3.957,4.347,1.822-.569.075-2.728,1.55-3.076,1.074-.254,2.233,2.249,4.385,2.377,2.19.131,1.288-3.9,1.568-5.151.827-3.7,7.191,9.8,3.236-8.577-.993-4.611-4.2-17.027-8.462-21.7a3.963,3.963,0,0,1,.609.179C80.077,35.15,82.1,59.785,82.138,62.434c.085,6.5-20.778,8.624-22.349,4.24a15.39,15.39,0,0,0,1.827.4" transform="translate(-10.947 -5.64)" fill="#229ba2"/>
              <path id="패스_8048" data-name="패스 8048" d="M55.329,46.8c-1.1-3.482,17.7-10.661,19.166-6.049a15.2,15.2,0,0,1,.669,7.926l-11.54,2.441A6.612,6.612,0,0,1,55.329,46.8" transform="translate(-10.122 -7.186)" fill="#229ba2"/>
              <path id="패스_8049" data-name="패스 8049" d="M54.764,38.3a5.989,5.989,0,0,0,11.921,0,5.989,5.989,0,0,0-11.921,0" transform="translate(-10.027 -6.023)" fill="#fa9086"/>
              <rect id="사각형_2429" data-name="사각형 2429" width="8.047" height="5.905" transform="translate(45.719 25.872)" fill="#fa9086"/>
              <path id="패스_8050" data-name="패스 8050" d="M55.966,31.671h8.047v3.837a5.809,5.809,0,0,1-8.047-1.743Z" transform="translate(-10.247 -5.799)" fill="#e67c72"/>
              <path id="패스_8051" data-name="패스 8051" d="M52.656,26.316a4.064,4.064,0,0,0,2.633,4.23,16.026,16.026,0,0,1-.732-4.51Z" transform="translate(-9.636 -4.767)" fill="#813029"/>
              <path id="패스_8052" data-name="패스 8052" d="M70.154,23.839a4.228,4.228,0,0,1-1.336,3.233c-.6-3.943-1.848-4.883-1.848-4.883Z" transform="translate(-12.261 -4.063)" fill="#813029"/>
              <path id="패스_8053" data-name="패스 8053" d="M67.292,17.527s-.559,7.281-.746,9.707a6.16,6.16,0,0,1-12.275-.943c.186-2.427.747-9.707.747-9.707Z" transform="translate(-9.933 -3.036)" fill="#ffa08b"/>
              <path id="패스_8054" data-name="패스 8054" d="M64.1,22.643c1.2,1.839-2.28,2.758-3.105-.014-1.6,2.3-4.856.92-4.638-.072-.908.939-4.866,4.538-3.609-1.5a11.693,11.693,0,0,1,1.207-2.711l8.81-1.45Z" transform="translate(-9.613 -3.094)" fill="#813029"/>
              <path id="패스_8055" data-name="패스 8055" d="M63.341,31.009a1.556,1.556,0,0,1-1.06-.136.187.187,0,0,1-.087-.252.19.19,0,0,1,.252-.087,1.3,1.3,0,0,0,.776.118.3.3,0,0,0,.171-.19,3.539,3.539,0,0,0-.207-2.055,10.826,10.826,0,0,1-.374-1.684.188.188,0,1,1,.374-.044,10.311,10.311,0,0,0,.363,1.627,3.786,3.786,0,0,1,.2,2.286.683.683,0,0,1-.406.417" transform="translate(-11.383 -4.854)" fill="#d85a5e"/>
              <path id="패스_8056" data-name="패스 8056" d="M59.839,26.658a.528.528,0,1,1-.429-.7.591.591,0,0,1,.429.7" transform="translate(-10.768 -4.752)" fill="#511324"/>
              <path id="패스_8057" data-name="패스 8057" d="M66.929,27.307a.526.526,0,1,1-.427-.7.587.587,0,0,1,.427.7" transform="translate(-12.066 -4.87)" fill="#511324"/>
              <path id="패스_8058" data-name="패스 8058" d="M67.264,26.8a.113.113,0,0,1-.065.02l-1.7.009a.116.116,0,0,1,0-.231l1.7-.009a.116.116,0,0,1,.067.211" transform="translate(-11.971 -4.868)" fill="#511324"/>
              <path id="패스_8059" data-name="패스 8059" d="M60.338,26.192a.125.125,0,0,1-.068.012L58.585,26a.118.118,0,0,1-.1-.131.115.115,0,0,1,.13-.1l1.684.205a.115.115,0,0,1,.1.128.113.113,0,0,1-.06.09" transform="translate(-10.708 -4.718)" fill="#511324"/>
              <path id="패스_8060" data-name="패스 8060" d="M61.5,10.631A7.591,7.591,0,0,1,68,19.162S58.855,17.24,52.436,21.08c0,0-.38-2.272-.439-2.865-.627-6.427,5.464-8.011,9.5-7.585" transform="translate(-9.512 -1.935)" fill="#ff6043"/>
              <path id="패스_8061" data-name="패스 8061" d="M55.348,25.152c-.15,1.017-.987,2.2-1.8,2.077s-1.291-1.493-1.14-2.51a1.522,1.522,0,1,1,2.938.434" transform="translate(-9.591 -4.226)" fill="#ffa08b"/>
              <path id="패스_8062" data-name="패스 8062" d="M54.259,26.259a.363.363,0,0,1-.048-.007.151.151,0,0,1-.089-.19,2.04,2.04,0,0,0-.388-2.2.149.149,0,0,1-.012-.208.147.147,0,0,1,.208-.013,2.312,2.312,0,0,1,.471,2.523.151.151,0,0,1-.142.1" transform="translate(-9.829 -4.321)" fill="#d85a5e"/>
              <path id="패스_8063" data-name="패스 8063" d="M68.452,20.826s3.732,2.35,3.117,3.627C70.441,26.792,54.4,21.96,54.4,21.96s7.349-4.31,14.048-1.134" transform="translate(-9.961 -3.599)" fill="#ee4533"/>
              <path id="패스_8064" data-name="패스 8064" d="M53.787,13.633c2.492.834,3.455,4.611,3.789,6.526l-.355.089c-.332-1.871-1.29-5.637-3.691-6.316.081-.1.168-.2.257-.3" transform="translate(-9.801 -2.496)" fill="#ee4533"/>
              <path id="패스_8065" data-name="패스 8065" d="M68.787,19.313c-.124-.008-.252-.016-.387-.023-.441-1.458-1.18-4.573-.259-6.687.1.083.2.165.293.252-.819,2.059-.052,5.133.353,6.458" transform="translate(-12.395 -2.307)" fill="#ee4533"/>
              <path id="패스_8066" data-name="패스 8066" d="M55.614,28.23a1.356,1.356,0,1,0,1.355-1.355,1.355,1.355,0,0,0-1.355,1.355" transform="translate(-10.182 -4.921)" fill="#ff8581"/>
              <path id="패스_8067" data-name="패스 8067" d="M65.788,29.522a1.354,1.354,0,1,0,1.354-1.355,1.354,1.354,0,0,0-1.354,1.355" transform="translate(-12.045 -5.157)" fill="#ff8581"/>
              <path id="패스_8068" data-name="패스 8068" d="M61.237,33.307a1.513,1.513,0,0,1-1.126-.417,1.612,1.612,0,0,1-.419-1.068.165.165,0,0,1,.183-.175.18.18,0,0,1,.176.182,1.255,1.255,0,0,0,.318.813,1.2,1.2,0,0,0,.881.306.178.178,0,0,1,.179.177.182.182,0,0,1-.192.181" transform="translate(-10.929 -5.794)" fill="#d85a5e"/>
              <path id="패스_8069" data-name="패스 8069" d="M81.817,50.788a.021.021,0,0,1,0,.042.021.021,0,0,1,0-.042" transform="translate(-14.976 -9.299)"/>
              <path id="패스_8070" data-name="패스 8070" d="M81.275,33.961a3.939,3.939,0,1,1,2.9,4.7,3.922,3.922,0,0,1-2.9-4.7" transform="translate(-14.86 -5.675)" fill="#ffa08b"/>
              <path id="패스_8071" data-name="패스 8071" d="M79.618,14.317c-1.018-1.373-5.238-1.134-4.814.528,2.4,9.366,3.492,11.315,5.43,18.139l7.486-2.358c-.676-3.006-3.917-10.661-8.1-16.308" transform="translate(-13.69 -2.458)" fill="#ffa08b"/>
              <path id="패스_8072" data-name="패스 8072" d="M61.144,47.16c-3.752.888-7.462-7.405-3.22-9.14,5.02-2.054,17.953-5.915,21.269-6.749l2.989,7.246c-2.318,1.551-13.559,6.877-21.038,8.644" transform="translate(-10.259 -5.725)" fill="#ffa08b"/>
              <path id="패스_8073" data-name="패스 8073" d="M84.94,31.044A3.939,3.939,0,1,1,81.079,35a3.924,3.924,0,0,1,3.861-3.953" transform="translate(-14.845 -5.684)" fill="#ffa08b"/>
              <path id="패스_8074" data-name="패스 8074" d="M54.279,44.307A6.611,6.611,0,0,1,58.6,36.013l10.818-2.642s1.9.714,3.371,5.325c1.524,4.778.61,6.467.61,6.467L62.575,48.624a6.614,6.614,0,0,1-8.3-4.317" transform="translate(-9.881 -6.11)" fill="#4acac1"/>
              <path id="패스_8075" data-name="패스 8075" d="M69.3,34.221c.77.658,2.019,2.158,3.07,5.456,1.152,3.614,1.046,5.636.856,6.568l-.39.125c.189-.745.429-2.737-.8-6.587-1.131-3.549-2.5-4.951-3.171-5.458Z" transform="translate(-12.609 -6.265)" fill="#22acac"/>
              <path id="패스_8076" data-name="패스 8076" d="M41.237,179.532h10.1l0-.873-10.612.028Z" transform="translate(-7.456 -32.711)" fill="#133b56"/>
              <path id="패스_8077" data-name="패스 8077" d="M36.018,169.242l4.588,6.787L50.472,176s-1.224-1.967-3.121-4.4l-2.093-4.313-6.552-3.147a6.98,6.98,0,0,0-2.688,5.1" transform="translate(-6.595 -30.053)" fill="#1c8186"/>
              <path id="패스_8078" data-name="패스 8078" d="M46.438,172.742A5.482,5.482,0,0,1,50.29,174.4a4.339,4.339,0,0,1,1.21,3.176l-9.866.027c.364-2.575,2.321-4.877,4.8-4.861" transform="translate(-7.623 -31.627)" fill="#1caba9"/>
              <path id="패스_8079" data-name="패스 8079" d="M35.993,169.775l5.386,7.734H40.095l-4.344-6.955Z" transform="translate(-6.546 -31.084)" fill="#133b56"/>
              <rect id="사각형_2430" data-name="사각형 2430" width="0.95" height="67.214" transform="translate(7.908 2.37) rotate(-83.144)" fill="#6b6d84"/>
              <path id="패스_8080" data-name="패스 8080" d="M1.84,5.91c-.062,1.858,2.8,2.308,3.864.315s1.642-3.85,2.122-3.813,2.567.327,2.567.327l-.015-1.02S6.981-.461,5.517.089,1.912,3.759,1.84,5.91" transform="translate(-0.337 0)" fill="#6b6d84"/>
              <path id="패스_8081" data-name="패스 8081" d="M64.762,8.018a1.21,1.21,0,0,0-.3.655A1.187,1.187,0,0,0,65.5,9.995l20.856,2.517a1.188,1.188,0,0,0,.283-2.358L65.787,7.636a1.194,1.194,0,0,0-1.024.382" transform="translate(-11.801 -1.397)" fill="#384350"/>
              <path id="패스_8082" data-name="패스 8082" d="M82.3,9.675a.9.9,0,0,1,1.216.381l.993,1.892a.9.9,0,1,1-1.6.837l-.992-1.893A.9.9,0,0,1,82.3,9.675" transform="translate(-14.98 -1.753)" fill="#f68f82"/>
              <path id="패스_8083" data-name="패스 8083" d="M79.4,9.237v4.3l-4.714,1.227s-1.813-4.236-1.79-6.485c1.31-.218,6.5.958,6.5.958" transform="translate(-13.346 -1.511)" fill="#ffa08b"/>
              <path id="패스_8084" data-name="패스 8084" d="M78.649,9.256a.9.9,0,1,0,.9-.9.9.9,0,0,0-.9.9" transform="translate(-14.4 -1.53)" fill="#ffa08b"/>
              <path id="패스_8085" data-name="패스 8085" d="M76.733,8.609a.9.9,0,1,0,.9-.9.9.9,0,0,0-.9.9" transform="translate(-14.049 -1.411)" fill="#ffa08b"/>
              <path id="패스_8086" data-name="패스 8086" d="M74.8,8.247a.9.9,0,1,0,.9-.9.9.9,0,0,0-.9.9" transform="translate(-13.695 -1.345)" fill="#ffa08b"/>
              <path id="패스_8087" data-name="패스 8087" d="M72.878,8.247a.9.9,0,1,0,.9-.9.9.9,0,0,0-.9.9" transform="translate(-13.343 -1.345)" fill="#ffa08b"/>
              <path id="패스_8088" data-name="패스 8088" d="M89.183,8.876a.8.8,0,0,1,.714.878l-.163,1.928a.786.786,0,1,1-1.566-.132l.162-1.928a.8.8,0,0,1,.854-.747" transform="translate(-16.142 -1.625)" fill="#ffa08b"/>
              <path id="패스_8089" data-name="패스 8089" d="M87.4,8.379a.964.964,0,0,1,.813,1.087l-.2,2.4a.907.907,0,1,1-1.795-.149l.2-2.4a.962.962,0,0,1,.982-.937" transform="translate(-15.784 -1.534)" fill="#ffa08b"/>
              <path id="패스_8090" data-name="패스 8090" d="M85.461,8.3a.962.962,0,0,1,.811,1.088l-.2,2.4a.907.907,0,1,1-1.794-.15l.2-2.4a.965.965,0,0,1,.983-.938" transform="translate(-15.429 -1.518)" fill="#ffa08b"/>
              <path id="패스_8091" data-name="패스 8091" d="M83.722,8.38a.848.848,0,0,1,.834.851L84.4,11.069a.911.911,0,0,1-1.8-.15L82.76,9.08a.846.846,0,0,1,.962-.7" transform="translate(-15.124 -1.534)" fill="#ffa08b"/>
              <path id="패스_8092" data-name="패스 8092" d="M69.112,180.316a4.6,4.6,0,1,1-4.6-4.6,4.6,4.6,0,0,1,4.6,4.6" transform="translate(-10.969 -32.172)" fill="#ffffe2"/>
              <path id="패스_8093" data-name="패스 8093" d="M62.316,182.589a4.591,4.591,0,0,0,4.267-6.308,4.6,4.6,0,1,1-6.262,5.848,4.58,4.58,0,0,0,2,.46" transform="translate(-11.044 -32.275)" fill="#ecead3"/>
              <path id="패스_8094" data-name="패스 8094" d="M67.692,187.4c0,.363-.207.657-.458.657h-4.6c-.253,0-.457-.294-.457-.657s.2-.657.457-.657h4.6c.252,0,.458.294.458.657" transform="translate(-11.385 -34.191)" fill="#133b56"/>
              <rect id="사각형_2431" data-name="사각형 2431" width="1.55" height="1.787" transform="translate(52.777 153.457)" fill="#133b56"/>
            </g>
          </g>
        </g>
      </g>
    </g>
  </g>
</svg>
