<svg xmlns="http://www.w3.org/2000/svg" width="23" height="23" viewBox="0 0 23 23">
    <path data-name="합치기 12" d="M15.5 23a.667.667 0 0 1-.657-.676.992.992 0 1 0-1.984 0A.667.667 0 0 1 12.2 23H7.584a.667.667 0 0 1-.657-.676.993.993 0 1 0-1.985 0 .667.667 0 0 1-.657.676H.657a.649.649 0 0 1-.466-.2.688.688 0 0 1-.191-.479L.072 3.369A3.341 3.341 0 0 1 3.358 0h18.985A.667.667 0 0 1 23 .676a.667.667 0 0 1-.657.676 1.993 1.993 0 0 0-1.487.458 2.356 2.356 0 0 0-.408 1.719v18.795a.667.667 0 0 1-.657.676zm.561-1.353h3.07V3.562a4.258 4.258 0 0 1 .424-2.209H3.358a2 2 0 0 0-1.971 2.021l-.07 18.273h2.407a2.29 2.29 0 0 1 4.421 0h3.493a2.29 2.29 0 0 1 4.421 0zM5.329 16.236v-1.354h9.857v1.353zm0-4.059v-1.354h9.857v1.353zm0-4.059V6.765h9.857v1.353z" style="fill:#fff"/>
</svg>
