<svg xmlns="http://www.w3.org/2000/svg" width="35.893" height="35.893" viewBox="0 0 35.893 35.893">
    <path d="M6.879 13.265a2.718 2.718 0 0 0-.494 0 6.648 6.648 0 1 1 .494 0z" transform="translate(6.82 2.991)" style="stroke:#000;stroke-linecap:round;stroke-linejoin:round;stroke-width:2px;fill:none"/>
    <path data-name="Vector" d="M.194 0a5.231 5.231 0 0 1 5.235 5.234 5.242 5.242 0 0 1-5.04 5.234 1.689 1.689 0 0 0-.389 0" transform="translate(24.347 5.982)" style="stroke:#000;stroke-linecap:round;stroke-linejoin:round;stroke-width:2px;fill:none"/>
    <path data-name="Vector" d="M2.714 2.053C-.9 4.475-.9 8.424 2.714 10.831a14.606 14.606 0 0 0 14.97 0c3.619-2.423 3.619-6.371 0-8.779a14.674 14.674 0 0 0-14.97.001z" transform="translate(3.507 19.722)" style="stroke:#000;stroke-linecap:round;stroke-linejoin:round;stroke-width:2px;fill:none"/>
    <path data-name="Vector" d="M0 8.973a7.234 7.234 0 0 0 2.931-1.3 3.788 3.788 0 0 0 0-6.386A7.438 7.438 0 0 0 .045 0" transform="translate(27.428 20.938)" style="stroke:#000;stroke-linecap:round;stroke-linejoin:round;stroke-width:2px;fill:none"/>
</svg>
