<svg xmlns="http://www.w3.org/2000/svg" width="26" height="27" viewBox="0 0 26 27">
    <defs>
        <clipPath id="0kmcn7zlia">
            <path data-name="사각형 2750" transform="translate(.2 .143)" style="fill:#e95539" d="M0 0h26v27H0z"/>
        </clipPath>
    </defs>
    <g data-name="그룹 5010">
        <g data-name="그룹 4873" transform="translate(-.2 -.143)" style="clip-path:url(#0kmcn7zlia)">
            <path data-name="합치기 28" d="M15.217 25.826a7.354 7.354 0 0 1-2.344-1.581 7.5 7.5 0 0 1-.788-.931H.8a.791.791 0 1 1 0-1.582h1.175v-4.123a5.734 5.734 0 0 1 3.314-5.2l1.242-.577a.205.205 0 0 0 .047-.126.2.2 0 0 0-.047-.13l-1.583-.87a5.732 5.732 0 0 1-2.973-5.021v-4.1H.8A.791.791 0 1 1 .8 0h17.755a.791.791 0 1 1 0 1.582h-1.178v4.14a5.732 5.732 0 0 1-3.042 5.063l-1.492.794a.2.2 0 0 0 0 .26l1.226.571q.2.092.387.2a7.377 7.377 0 1 1 .76 13.217zm-2.911-6.8a5.782 5.782 0 1 0 5.783-5.794 5.8 5.8 0 0 0-5.782 5.799zM3.564 5.685a4.145 4.145 0 0 0 2.152 3.64l1.661.912a.947.947 0 0 1 .105.07 1.776 1.776 0 0 1-.056 2.843.7.7 0 0 1-.13.077l-1.337.622a4.158 4.158 0 0 0-2.4 3.761v4.124h7.663a7.375 7.375 0 0 1 1.647-7.917c.049-.05.1-.1.15-.146l-.943-.441a.729.729 0 0 1-.12-.068 1.778 1.778 0 0 1-.061-2.866.786.786 0 0 1 .113-.072l1.571-.835a4.135 4.135 0 0 0 2.2-3.667v-4.14H3.564zm16.323 15.331L17.8 19.7a.793.793 0 0 1-.37-.668v-3.074a.8.8 0 0 1 1.591 0V18.6l1.717 1.084a.79.79 0 0 1-.426 1.459.8.8 0 0 1-.425-.127z" transform="translate(.19 .196)" style="fill:#e95539"/>
        </g>
    </g>
</svg>
