<svg xmlns="http://www.w3.org/2000/svg" width="24.154" height="24.154" viewBox="0 0 24.154 24.154">
    <g data-name="vuesax/linear/tag-user">
        <path d="M15.1 16.968h-.765a3.007 3.007 0 0 0-2.134.876l-1.721 1.7a2.035 2.035 0 0 1-2.848 0l-1.721-1.7a3.024 3.024 0 0 0-2.134-.876h-.758A3 3 0 0 1 0 13.979V2.989A3 3 0 0 1 3.019 0H15.1a3 3 0 0 1 3.019 2.989v10.98a3.011 3.011 0 0 1-3.019 2.999z" transform="translate(3.019 2.013)" style="stroke:#fff;stroke-linecap:round;stroke-linejoin:round;stroke-width:1.5px;fill:none"/>
        <path data-name="Vector" d="M2.043 3.925h-.151a1.963 1.963 0 1 1 2.033-1.962 1.936 1.936 0 0 1-1.882 1.962z" transform="translate(10.105 5.082)" style="stroke:#fff;stroke-linecap:round;stroke-linejoin:round;stroke-width:1.5px;fill:none"/>
        <path data-name="Vector" d="M1 .755a1.818 1.818 0 0 0 0 3.251 5.405 5.405 0 0 0 5.535 0 1.818 1.818 0 0 0 0-3.251A5.451 5.451 0 0 0 1 .755z" transform="translate(8.306 11.282)" style="stroke:#fff;stroke-linecap:round;stroke-linejoin:round;stroke-width:1.5px;fill:none"/>
    </g>
</svg>
