<svg xmlns="http://www.w3.org/2000/svg" width="72" height="72" viewBox="0 0 72 72">
    <defs>
        <clipPath id="m00m6uu7ma">
            <rect data-name="#!IMAGE" width="72" height="72" rx="36" transform="translate(639 1159)" style="fill:#fff"/>
        </clipPath>
        <clipPath id="wx2627j9vb">
            <path data-name="사각형 2406" style="fill:none" d="M0 0h148.527v176.16H0z"/>
        </clipPath>
    </defs>
    <g data-name="그룹 4222" transform="translate(-486 -1109)">
        <rect data-name="#!IMAGE" width="72" height="72" rx="36" transform="translate(486 1109)" style="fill:#ffe3d8"/>
        <g data-name="마스크 그룹 261" transform="translate(-153 -50)" style="clip-path:url(#m00m6uu7ma)">
            <g data-name="그룹 4059">
                <g data-name="그룹 4058" style="clip-path:url(#wx2627j9vb)" transform="translate(633 1168)">
                    <path data-name="패스 7680" d="M.187 164.121c4-16.884 34.581-14.914 81.488-13.753s69.672-3.007 66.574 11.777-31.788 11.12-73.74 12.908C47.168 176.217-3.457 179.48.187 164.121" style="fill:#aece79"/>
                    <path data-name="패스 7681" d="M60.6 13.372a3.87 3.87 0 0 0 1.071 2.747c1.189 1.251 2.607 1.881 2.607 3.707 0 1.632-1.655 1.456-.823 3.17s2.822 1.684 2.282 3.878l-23.645 2.36S38.979 25.95 38.993 23s2.447-3.671 2.208-5.187-1.4-3.215-.819-5.69 5.17-3.748 5.17-3.748z" style="fill:#db4614"/>
                    <path data-name="패스 7682" d="M41.636 22.043a5.475 5.475 0 0 1 .821-1.356 3.609 3.609 0 0 0 .824-1.558 2.722 2.722 0 0 0-.376-1.354c-.054-.118-.108-.231-.153-.343a6.106 6.106 0 0 1-.633-2.412c.022-1.725.955-4.055 2.482-4.964l.325.543a5.723 5.723 0 0 0-2.172 4.43 5.437 5.437 0 0 0 .579 2.156c.045.1.1.213.147.324a3.211 3.211 0 0 1 .43 1.7 4.068 4.068 0 0 1-.945 1.858 4.985 4.985 0 0 0-.733 1.192 2.757 2.757 0 0 0 .908 2.841c.17.159.35.308.527.457a5.712 5.712 0 0 1 1.155 1.177 3.427 3.427 0 0 1 .513 2.176l-.636.063a2.879 2.879 0 0 0-.4-1.885 5.164 5.164 0 0 0-1.034-1.045 9.441 9.441 0 0 1-.556-.484 3.373 3.373 0 0 1-1.07-3.517" style="fill:#b63029"/>
                    <path data-name="패스 7683" d="M55.82 27.864a2.77 2.77 0 0 1-.382-1.612 4.72 4.72 0 0 1 .41-1.4c.316-.762.543-1.314-.1-2.037a4.364 4.364 0 0 1-1.175-2.315 10.188 10.188 0 0 1 .3-3.45l.089-.451.622.119-.091.458a9.712 9.712 0 0 0-.29 3.235 3.712 3.712 0 0 0 1.027 1.978 2.236 2.236 0 0 1 .206 2.7 4.175 4.175 0 0 0-.362 1.217 2.307 2.307 0 0 0 .444 1.487z" style="fill:#b63029"/>
                    <path data-name="패스 7684" d="M60.855 25.814a8.02 8.02 0 0 0-.569-.767c-.647-.81-1.381-1.727-1.095-2.768a3.348 3.348 0 0 1 .864-1.333 3.08 3.08 0 0 0 .734-1.062c.4-1.187-.674-2.313-1.156-2.743a8.409 8.409 0 0 1-2.569-4.941l.687.229a7.668 7.668 0 0 0 2.305 4.243c1.213 1.083 1.7 2.327 1.336 3.415a3.677 3.677 0 0 1-.867 1.287 2.844 2.844 0 0 0-.723 1.073c-.2.731.4 1.481.98 2.206a7.959 7.959 0 0 1 .614.834 3.466 3.466 0 0 1 .556 1.767l-.632.063a2.805 2.805 0 0 0-.465-1.5" style="fill:#b63029"/>
                    <path data-name="패스 7685" d="m70.365 80.478-.431-6.444s3.757-.892 4.89-.458 4.556 5.069 4.556 5.069z" style="fill:#ffa08b"/>
                    <path data-name="패스 7686" d="M76.524 78.874c-.189-.021-3.738-.5-4.4-2.868a.3.3 0 0 1 .584-.162c.551 1.984 3.819 2.423 3.852 2.427a.3.3 0 0 1-.038.6" style="fill:#d85a5e"/>
                    <path data-name="패스 7687" d="M80.4 77.83a1.037 1.037 0 0 1-1.277.735l-2.392-.628a1.044 1.044 0 1 1 .534-2.019l2.393.634a1.046 1.046 0 0 1 .742 1.278" style="fill:#ffa08b"/>
                    <path data-name="패스 7688" d="M49.61 138.136c1.442 8.561 4.383 20.512 4.383 20.512l6.685-.231.6-21.19z" style="fill:#ff9c90"/>
                    <path data-name="사각형 2401" transform="rotate(-.114 83669.932 -26215.542)" style="fill:#832729" d="M0 0h11.573v1.001H0z"/>
                    <path data-name="패스 7689" d="m52.392 165.542 10.558-.507-2.271-6.618-6.685.231z" style="fill:#a43b36"/>
                    <path data-name="패스 7690" d="M58.1 160.626a5.788 5.788 0 0 1 5.8 5.776l-11.575.022a5.786 5.786 0 0 1 5.775-5.8" style="fill:#c25436"/>
                    <path data-name="패스 7691" d="M38.99 138.549c-1.637 8.553-5.069 21.019-5.069 21.019l-6.675-.417-.035-21.336s.662.428 6.073.821c4.322.313 5.706-.087 5.706-.087" style="fill:#ff9c90"/>
                    <path data-name="패스 7692" d="M60.939 80.151c.174 10.107-7.384 10.725-16.724 10.789s-14.838-5.859-15.894-9.767c1.749-6.751 2.805-13.073 5.059-16.287 2.754-3.927 5.391-2.886 10.52-2.92 9.339-.063 16.844 7.112 17.035 18.185" style="fill:#e3d3c3"/>
                    <path data-name="패스 7693" d="M27.173 118.338a6.2 6.2 0 1 0 7-5.269 6.2 6.2 0 0 0-7 5.269" style="fill:#c5b0a8"/>
                    <path data-name="패스 7694" d="m44.63 88.9-5.188 31.169-12.269-1.731S26 92.5 28.321 81.173z" style="fill:#c5b0a8"/>
                    <path data-name="패스 7695" d="M27.1 118.4a6.194 6.194 0 1 0 6.819-5.5 6.2 6.2 0 0 0-6.819 5.5" style="fill:#c5b0a8"/>
                    <path data-name="패스 7696" d="M26.428 145.989c.027-5.364.572-26.689.572-26.689l11.908-2.765s3 5.488 2.046 14.353c-.725 6.768-1.878 12.574-3.456 16.469-1.045 2.589-11.085 1.416-11.071-1.372" style="fill:#c5b0a8"/>
                    <path data-name="패스 7697" d="M47.839 121.118a6.193 6.193 0 1 0 5.749-6.6 6.187 6.187 0 0 0-5.749 6.6" style="fill:#e3d3c3"/>
                    <path data-name="패스 7698" d="M60.2 74.488c4.056 13.191 0 45.771 0 45.771l-12.357.859-4.356-33.784z" style="fill:#e3d3c3"/>
                    <path data-name="패스 7699" d="M47.951 120.963a6.195 6.195 0 1 0 5.732-6.624 6.194 6.194 0 0 0-5.732 6.624" style="fill:#e3d3c3"/>
                    <path data-name="패스 7700" d="M49.655 146.085c-.826-5.235-1.67-24.792-1.67-24.792l11.258-4.267s2.7 5.219 3.333 14.11c.49 6.789 1.349 12.021.468 14.368-1.178 3.136-12.869 3.869-13.389.581" style="fill:#e3d3c3"/>
                    <path data-name="사각형 2402" transform="translate(18.792 166.146)" style="fill:#832729" d="M0 0h17.241v1.002H0z"/>
                    <path data-name="패스 7701" d="m36.031 166.137-17.236.017a5.047 5.047 0 0 1 1.348-3.652 6.973 6.973 0 0 1 4.468-1.939c.619-.075 2.6-1.99 2.6-1.99h6.922s1.894 2.158 1.9 7.564" style="fill:#a43b36"/>
                    <path data-name="패스 7702" d="M24.468 160.581a6.872 6.872 0 0 0-4.324 1.921 5.046 5.046 0 0 0-1.349 3.652l11.1-.011a6.338 6.338 0 0 0-5.427-5.562" style="fill:#c25436"/>
                    <path data-name="패스 7703" d="m59.654 147.683-.873-.033c.007-.167.591-16.819-2.8-28.285-.558-1.886-.229-5.327.226-10.09.976-10.231 2.452-25.694-4.128-38.925l.781-.389c6.692 13.455 5.2 29.067 4.216 39.4-.429 4.49-.767 8.035-.257 9.76 3.43 11.605 2.839 28.4 2.833 28.565" style="fill:#c5b0a8"/>
                    <path data-name="패스 7704" d="M52.972 75.468a6.5 6.5 0 0 1-4.457-1.429 4.989 4.989 0 0 1-1.628-3.476h.873a4.175 4.175 0 0 0 1.34 2.832c1.158 1.02 2.95 1.394 5.332 1.107l.1.867a13.162 13.162 0 0 1-1.568.1" style="fill:#c5b0a8"/>
                    <path data-name="패스 7705" d="M41.8 77.742c-3.045-.122-3.14-.342-3.248-.6-.55-1.638.369-6.734.475-7.309l.86.159c-.266 1.435-.857 5.289-.567 6.662a21.908 21.908 0 0 0 2.515.212z" style="fill:#c5b0a8"/>
                    <path data-name="패스 7706" d="M42.817 88.91c-2.77-12.989-.741-18.612-.653-18.845l.817.307c-.02.055-2.018 5.662.69 18.355z" style="fill:#c5b0a8"/>
                    <path data-name="패스 7707" d="M30.794 73.677a2.175 2.175 0 0 1-.642-.1l.26-.834a1.259 1.259 0 0 0 1.009-.109c1.255-.672 2.21-3.137 2.473-4.03l.838.246c-.043.145-1.063 3.571-2.9 4.553a2.177 2.177 0 0 1-1.04.274" style="fill:#c5b0a8"/>
                    <path data-name="패스 7708" d="m18.17 29.794 1.071 6.368s3.863 0 4.865-.687 3.258-5.986 3.258-5.986z" style="fill:#ffa08b"/>
                    <path data-name="패스 7709" d="M21.22 34.048a.3.3 0 0 1-.3-.314c.093-2.461 3.435-3.742 3.577-3.8a.3.3 0 0 1 .213.567c-.031.012-3.107 1.193-3.184 3.25a.3.3 0 0 1-.3.292" style="fill:#d85a5e"/>
                    <path data-name="패스 7710" d="M28.549 30.046a1.042 1.042 0 0 0-1.412-.424l-2.182 1.169a1.043 1.043 0 1 0 .987 1.837l2.18-1.168a1.043 1.043 0 0 0 .427-1.414" style="fill:#ffa08b"/>
                    <path data-name="패스 7711" d="M41.874 38.294c1.963-3.218-2.531-12.7-7.52-5.764-3.095 4.3-10.94 14.893-12.721 17.722l5.831 4.976a93.655 93.655 0 0 0 14.41-16.934" style="fill:#f68f82"/>
                    <path data-name="패스 7712" d="M43.734 37.631c-3.253 4.256-8.483 10.505-8.483 10.505s-2.226.586-5.461-2.282c-3.357-2.972-3.1-5.053-3.1-5.053l7.5-10.159c1.631-.042 9.539 6.989 9.539 6.989" style="fill:#228a91"/>
                    <path data-name="패스 7713" d="M21.111 51.276a3.85 3.85 0 1 0 4.842-2.391 3.835 3.835 0 0 0-4.842 2.391" style="fill:#ffa08b"/>
                    <path data-name="패스 7714" d="M42.795 38.857a5.949 5.949 0 1 1 0-8.411 5.95 5.95 0 0 1 0 8.411" style="fill:#228a91"/>
                    <path data-name="사각형 2403" transform="rotate(-6.49 280.778 -74.808)" style="fill:#6b6d84" d="M0 0h70.582v.997H0z"/>
                    <path data-name="패스 7715" d="M87.2 28.049c.05 1.952-2.959 2.4-4.061.3s-1.7-4.056-2.2-4.022-2.7.325-2.7.325l.022-1.072s3.584-2.264 5.118-1.675 3.759 3.883 3.818 6.142" style="fill:#6b6d84"/>
                    <path data-name="패스 7716" d="M33.154 28.4a1.27 1.27 0 0 1 .306.692 1.244 1.244 0 0 1-1.1 1.379l-21.917 2.481a1.248 1.248 0 0 1-.28-2.48l21.918-2.48a1.248 1.248 0 0 1 1.073.407" style="fill:#384350"/>
                    <path data-name="패스 7717" d="M27.733 49.943a3.851 3.851 0 1 0-.377 5.388 3.835 3.835 0 0 0 .377-5.388" style="fill:#ffa08b"/>
                    <path data-name="패스 7718" d="M19.274 35.23c.1-1.669 4.414-.584 4.414-.584 2.18 9.2 3.581 12.505 4.951 17.3L21.088 53.3a87.546 87.546 0 0 1-1.814-18.07" style="fill:#ffa08b"/>
                    <path data-name="패스 7719" d="M34.28 46.919c-.888-3.96 2.872-10.413 3.251-12.268 1.032-5.058 1.056-7.266 9.989-7.756 7.033-.389 13.352 3.114 14.142 8.913.868 6.384-3.45 11.727-4.566 21.059-1.228 10.283 1.746 11.664-.46 14.117-2.99 3.325-24.551-.416-24.34-4.131.146-2.562 2.421-5.729 2.915-9.21a33.592 33.592 0 0 0-.931-10.724" style="fill:#22acac"/>
                    <path data-name="패스 7720" d="M44.811 29c-.076 1.307 2.2 2.5 5.074 2.666s5.272-.761 5.348-2.064-2.2-2.5-5.076-2.667-5.271.765-5.346 2.065" style="fill:#fa9086"/>
                    <path data-name="패스 7721" d="M50.546 32.124c-.226 0-.454-.007-.687-.02a9.608 9.608 0 0 1-3.822-.954c-1.119-.588-1.71-1.36-1.662-2.173.09-1.56 2.6-2.656 5.807-2.477a9.629 9.629 0 0 1 3.823.954c1.12.588 1.711 1.36 1.663 2.175-.084 1.446-2.238 2.5-5.122 2.5m-1.053-4.77c-2.563 0-4.2.869-4.247 1.673-.025.445.41.936 1.2 1.35a8.739 8.739 0 0 0 3.467.855q.323.018.635.018c2.565 0 4.2-.868 4.252-1.672.025-.445-.411-.937-1.2-1.35a8.732 8.732 0 0 0-3.469-.855q-.324-.019-.638-.019" style="fill:#228a91"/>
                    <path data-name="패스 7722" d="m53.82 29.54-7.812-.145.836-8.773 6.634-.173z" style="fill:#fa9086"/>
                    <path data-name="패스 7723" d="M46.321 26.1a7.227 7.227 0 0 0 1.811.689 6.9 6.9 0 0 0 5.545-1.089l-.2-5.253-6.634.174z" style="fill:#e67c72"/>
                    <path data-name="패스 7724" d="m44.721 5.82-2.477 11.493a7.437 7.437 0 0 0 14.532 3.13c.62-2.871 2.476-11.489 2.476-11.489z" style="fill:#ffa08b"/>
                    <path data-name="패스 7725" d="M46.019 14.859a.654.654 0 1 1-.493-.894.734.734 0 0 1 .493.894" style="fill:#511324"/>
                    <path data-name="패스 7726" d="M52.851 16.225a.653.653 0 1 1-.5-.889.733.733 0 0 1 .5.889" style="fill:#511324"/>
                    <path data-name="패스 7727" d="M45.487 17.45a1.447 1.447 0 1 1-.955-1.811 1.448 1.448 0 0 1 .955 1.811" style="fill:#ff8581"/>
                    <path data-name="패스 7728" d="M54.755 18.942a1.445 1.445 0 1 1-.954-1.805 1.448 1.448 0 0 1 .954 1.805" style="fill:#ff8581"/>
                    <path data-name="패스 7729" d="M44.647 11.6c.917-.921 3.338.719 3.338.719l-.338.618s-1.475-.715-3-1.337" style="fill:#b63029"/>
                    <path data-name="패스 7730" d="M54.218 13.943C54.156 12.821 51 12.8 51 12.8l-.038.7s1.631.163 3.256.437" style="fill:#b63029"/>
                    <path data-name="패스 7731" d="M49.854 7.568s3.965 9.8 10.015 9.472a6.238 6.238 0 0 0-.7-7.712z" style="fill:#db4614"/>
                    <path data-name="패스 7732" d="M53.933 2.875c6.1.164 8.426 3.515 6.987 8.833L43.363 8.247C44.8 2.935 47.037.881 53.933 2.875" style="fill:#813029"/>
                    <path data-name="패스 7733" d="M47.659 20.037a1.207 1.207 0 0 1-1.166-1.078 1.1 1.1 0 0 1 .84-1.24c.268-.076.718-1.29.968-2.377a.208.208 0 0 1 .254-.159.212.212 0 0 1 .158.253c-.135.586-.625 2.509-1.265 2.689a.681.681 0 0 0-.536.78.788.788 0 0 0 .75.71.211.211 0 0 1 0 .422" style="fill:#d85a5e"/>
                    <path data-name="패스 7734" d="M48.5 22.108a1.6 1.6 0 0 1-.9-.322.211.211 0 0 1 .238-.349 1.008 1.008 0 0 0 .888.213c.5-.166.75-.863.752-.87a.211.211 0 0 1 .4.136 1.925 1.925 0 0 1-1.018 1.134 1.112 1.112 0 0 1-.357.058" style="fill:#d85a5e"/>
                    <path data-name="패스 7735" d="M55.99 16.834c-.517 1.128-.448 2.872.45 3.286s2.291-.662 2.81-1.787a2.064 2.064 0 0 0-.695-2.793 2.06 2.06 0 0 0-2.565 1.294" style="fill:#ffa08b"/>
                    <path data-name="패스 7736" d="M56.668 18.732a.225.225 0 0 0 .052.024.182.182 0 0 0 .215-.132 2.464 2.464 0 0 1 1.846-1.974.18.18 0 0 0 .15-.2.182.182 0 0 0-.2-.151 2.794 2.794 0 0 0-2.141 2.243.178.178 0 0 0 .079.194" style="fill:#d85a5e"/>
                    <path data-name="패스 7737" d="M54.467 38.485c-.871-3.669 6.344-11.291 8.934-3.148 1.61 5.051 5.783 17.553 6.6 20.791l-7.085 2.922a93.533 93.533 0 0 1-8.449-20.565" style="fill:#ffa08b"/>
                    <path data-name="패스 7738" d="M53.263 36.934c1.355 5.183 3.771 12.966 3.771 12.966s2.37 1.629 6.461.233c4.243-1.445 5.343-3.275 5.343-3.275l-4.077-12.687c-1.489-.669-11.5 2.763-11.5 2.763" style="fill:#228a91"/>
                    <path data-name="패스 7739" d="M70.18 57.266a3.85 3.85 0 1 1-3.863-3.776 3.835 3.835 0 0 1 3.863 3.776" style="fill:#ffa08b"/>
                    <path data-name="패스 7740" d="M53.656 38.429a5.949 5.949 0 1 0 3.244-7.764 5.949 5.949 0 0 0-3.247 7.764" style="fill:#228a91"/>
                    <path data-name="패스 7741" d="M70.152 58.472a3.85 3.85 0 1 1-2.929-4.54 3.833 3.833 0 0 1 2.929 4.54" style="fill:#ffa08b"/>
                    <path data-name="패스 7742" d="M70.073 74.488c.846 1.44 5.3.687 4.852-.93-2.526-9.1-2.919-10.637-4.942-17.273l-7.272 2.449c.716 2.923 4.142 10.26 7.362 15.754" style="fill:#ffa08b"/>
                    <path data-name="패스 7743" d="M21.026 27.158a1.117 1.117 0 0 0-.98 1.229l.15 2.79a1.051 1.051 0 1 0 2.084-.112l-.149-2.787a1.115 1.115 0 0 0-1.105-1.12" style="fill:#f68f82"/>
                    <path data-name="패스 7744" d="M22.865 27.135a1.115 1.115 0 0 0-.98 1.229l.149 2.791a1.05 1.05 0 1 0 2.083-.111l-.148-2.789a1.118 1.118 0 0 0-1.1-1.12" style="fill:#f68f82"/>
                    <path data-name="패스 7745" d="M24.519 27.264a.982.982 0 0 0-.994.955l.116 2.136a1.054 1.054 0 0 0 2.083-.11l-.114-2.139a.98.98 0 0 0-1.091-.842" style="fill:#f68f82"/>
                    <path data-name="패스 7746" d="m121.991 150.213-.011-3.233c.137 0 13.786-.131 18.2-6.234 6.9-9.53-17.281-38.907-27.179-49.423l2.353-2.215c3.83 4.068 37.141 40.138 27.445 53.533-5.38 7.435-20.183 7.57-20.811 7.572" style="fill:#682029"/>
                    <path data-name="사각형 2404" transform="rotate(-18.2 255 -250.125)" style="fill:#384350" d="M0 0h1.616v24.822H0z"/>
                    <path data-name="패스 7747" d="m90.782 67.057 3.977 12.089a8.127 8.127 0 0 0 1.5-.613l-3.941-11.982z" style="fill:#6b6d84"/>
                    <path data-name="패스 7748" d="M90.813 67.057a5.238 5.238 0 0 1 1.233-5.712c2.657-2.827 6.456-1.543 6.168 1.1-.195 1.787-4.34 2.8-5.517 5.284a1.749 1.749 0 0 1-1.884-.673" style="fill:#6b6d84"/>
                    <path data-name="패스 7749" d="M95.032 100.714 89.5 75.692l-1.034.23 5.495 24.867a2.628 2.628 0 0 1 1.069-.075" style="fill:#6b6d84"/>
                    <path data-name="패스 7750" d="M92.747 68.206c2.054-.27 2.862 2.852.77 4.249s-4.092 2.239-4 2.764.43 2.716.43 2.716l-.923.191s-2.783-3.528-2.332-5.213 3.676-4.4 6.054-4.707" style="fill:#384350"/>
                    <path data-name="패스 7751" d="m113.59 99.543-1.509.5-6.22-18.724 1.508-.5z" style="fill:#384350"/>
                    <path data-name="패스 7752" d="M105.194 79.41c-.134.688.679 2.755 1.339 2.733s6.405-3.134 7.1-4.328c.72-1.233-.735-5.155-1.97-4.859s-6.283 5.492-6.472 6.454" style="fill:#6b6d84"/>
                    <path data-name="사각형 2405" transform="rotate(-10.474 454.06 -504.81)" style="fill:#6b6d84" d="M0 0h1.331v16.514H0z"/>
                    <path data-name="패스 7753" d="M99.019 72.462c-.191.553.243 2.362.793 2.422s5.674-1.854 6.392-2.763c.743-.937-.008-4.357-1.068-4.255s-5.846 3.819-6.117 4.6" style="fill:#384350"/>
                    <path data-name="패스 7754" d="M88.069 94.1s19.012 60.861 20.3 62.52 19.185-2.007 21.227-6.665-11.374-56.398-12.973-61.755c-1.742-5.832-27.917 2.289-28.554 5.9" style="fill:#e3d3c3"/>
                    <path data-name="패스 7755" d="M95.8 89.508c-4.249 1.561-7.514 3.345-7.733 4.589 0 0 19.011 60.862 20.3 62.521.576.734 4.416.42 8.692-.562z" style="fill:#c5b0a8"/>
                    <path data-name="패스 7756" d="M116.623 88.2c-1.741-5.831-27.917 2.289-28.554 5.9 0 0 .895 2.863 2.306 7.36a37.571 37.571 0 0 1 13.519-7.032 35.458 35.458 0 0 1 14.253-.625c-.728-2.769-1.273-4.76-1.524-5.6" style="fill:#ee4533"/>
                    <path data-name="패스 7757" d="M95.752 89.525c-4.227 1.558-7.464 3.331-7.683 4.572 0 0 .895 2.863 2.306 7.36a37.106 37.106 0 0 1 7.679-4.843z" style="fill:#c22d2c"/>
                    <path data-name="패스 7758" d="M133.866 140.369c1.012-5.346-6.513-28.217-9.829-30.982-1.56-1.3-13.69.887-13.02 3.028 1.155 3.689 7.563 30.548 10.387 32.32s11.533.538 12.462-4.366" style="fill:#c5b0a8"/>
                    <path data-name="패스 7759" d="m115.76 111.977-.959-1.908c-2.3.643-4.048 1.5-3.783 2.345 1.154 3.69 7.562 30.548 10.387 32.32a6.821 6.821 0 0 0 3.358.766c.619-1.276.568-3.392-.322-6.4-1.2-4.056-8.681-27.122-8.681-27.122" style="fill:#b79f99"/>
                    <path data-name="패스 7760" d="M125.527 142.35c-.312-4.946-8.793-28.78-9.153-29.792l-.763.27c.088.248 8.806 24.74 9.109 29.571a25.6 25.6 0 0 1 .034 3.1c.265 0 .534 0 .811-.016a27.116 27.116 0 0 0-.038-3.132" style="fill:#682029"/>
                    <path data-name="패스 7761" d="M102.916 160.141 80.457 82.878a1.234 1.234 0 1 1 2.369-.689l21.774 74.895 25.77-7.484a1.234 1.234 0 0 1 .688 2.37z" style="fill:#af959c"/>
                    <path data-name="패스 7762" d="M108.332 162.843a6.449 6.449 0 1 1-4.305-8.041 6.449 6.449 0 0 1 4.305 8.041" style="fill:#002543"/>
                    <path data-name="패스 7763" d="M105.144 161.879a3.117 3.117 0 1 1-2.081-3.886 3.118 3.118 0 0 1 2.081 3.886" style="fill:#c5cfcf"/>
                    <path data-name="패스 7764" d="M118 93.25a39.317 39.317 0 0 0-15.3 1.044 31.107 31.107 0 0 0-12.56 6.429l.268.856a30.521 30.521 0 0 1 12.489-6.5 38.155 38.155 0 0 1 15.332-.938l-.233-.889" style="fill:#682029"/>
                    <path data-name="패스 7765" d="M81.324 84.386a1.617 1.617 0 0 1-1.543-1.138c-1.431-4.617-9.439-2.428-9.52-2.4a1.617 1.617 0 0 1-.88-3.111c4.124-1.17 11.6-1.526 13.488 4.559a1.618 1.618 0 0 1-1.545 2.1" style="fill:#384350"/>
                    <path data-name="패스 7766" d="M100.655 101.885c-3.1.091-9.486 2.338-8.987 8.546s7.01 31.776 10.591 35.291 13.021 2.245 12.012-.586c-4.111-11.519-11.511-43.313-13.616-43.251" style="fill:#ee4533"/>
                    <path data-name="패스 7767" d="M111.018 112.414s3.194-.9 6.879 4.018c2.822 3.774 12.9 2.463 11.734-1.342s-3.378-6.863-6.17-7.635-13.824-.139-12.443 4.959" style="fill:#ee4533"/>
                    <path data-name="패스 7768" d="M129.706 115.427a2.334 2.334 0 0 0-.075-.337 19.529 19.529 0 0 0-.282-.836c-.654 2.081-2.9 2.823-6.844 2.257-1.727-.252-3.6-1.852-5.579-3.552-.633-.543-1.271-1.093-1.914-1.6a3.746 3.746 0 0 0-3.972-.646 2.605 2.605 0 0 0-.133.945 3.016 3.016 0 0 1 3.6.332c.634.506 1.262 1.046 1.888 1.583 1.826 1.569 3.563 3.058 5.292 3.581a4.606 4.606 0 0 0 .7.157c3.771.541 6.219-.093 7.315-1.883" style="fill:#682029"/>
                    <path data-name="패스 7769" d="M102.26 145.723c2.011 1.974 5.864 2.439 8.681 1.967-6.514-4.19-10.932-22.59-12.441-29.99-1.08-5.29-1.225-9.654 3.39-13.959-.5-1.181-.925-1.861-1.231-1.852-3.1.09-9.487 2.337-8.988 8.545s7.011 31.777 10.592 35.292" style="fill:#c22d2c"/>
                    <path data-name="패스 7770" d="m104.4 111.166-.239-.791a38.919 38.919 0 0 1-11.976 3.581c.048.265.1.53.152.805a47.116 47.116 0 0 0 5.2-1.039c.515 3.651 4.039 26.317 13.11 34.01.178-.026.35-.054.521-.087l.249-.312c-9.005-7.255-12.637-30.657-13.091-33.827a32.433 32.433 0 0 0 6.069-2.34" style="fill:#682029"/>
                    <path data-name="패스 7771" d="M53.3.1a9.193 9.193 0 0 0-10.244 7.991s11.307.567 17.646 7.045c0 0 1.147-2.542 1.4-3.221C64.816 4.578 58.168.845 53.3.1" style="fill:#fab577"/>
                    <path data-name="패스 7772" d="M45.09 7.568c-4.166-.92-9.893-1.416-8.918 0 .949 1.38 22.991 6.18 22.991 6.18a37.058 37.058 0 0 0-14.073-6.18" style="fill:#e99a5e"/>
                    <path data-name="패스 7773" d="M61.928 5.426c-3.179.207-5.471 4.335-6.451 6.478l.386.214c.967-2.09 3.251-6.207 6.275-6.263a7.743 7.743 0 0 0-.21-.429" style="fill:#e99a5e"/>
                    <path data-name="패스 7774" d="M45.582 8.478c.148.027.3.057.46.091C47.011 7 48.833 3.575 48.406.813c-.141.067-.282.133-.421.207.323 2.664-1.519 6.031-2.4 7.458" style="fill:#e99a5e"/>
                    <path data-name="패스 7775" d="M34.28 46.919a6.74 6.74 0 0 1-.1-1.924c1.347 2.161 4.465 3.9 11.024 4.574 8.2.839 9 2.528 5.761 3.921s-11-1.785-12.634.352-5.252 12.91-3.117 13.308 6.232-2.362 5.659 0 2.152 2.1 2.864 1.578 5.521-5.912 5.623-3.253c.182 4.618 1.526 6.253 3.379 6.726-7.1.555-20.607-2.4-20.44-5.348.146-2.562 2.421-5.729 2.915-9.21a33.592 33.592 0 0 0-.931-10.724" style="fill:#229ba2"/>
                    <path data-name="패스 7776" d="M72.04 82.359a.931.931 0 0 1-1.064-.768l-.4-2.205a.911.911 0 1 1 1.791-.327l.4 2.2a.931.931 0 0 1-.727 1.1" style="fill:#f68f82"/>
                    <path data-name="패스 7777" d="M73.755 82.379a1.117 1.117 0 0 1-1.239-.968l-.5-2.75a1.05 1.05 0 1 1 2.051-.373l.5 2.747a1.115 1.115 0 0 1-.816 1.344" style="fill:#f68f82"/>
                    <path data-name="패스 7778" d="M75.55 81.976a1.116 1.116 0 0 1-1.239-.968l-.5-2.75a1.05 1.05 0 1 1 2.052-.373l.5 2.746a1.117 1.117 0 0 1-.814 1.345" style="fill:#f68f82"/>
                    <path data-name="패스 7779" d="M77.127 81.467a.979.979 0 0 1-1.187-.7l-.382-2.1a1.053 1.053 0 0 1 2.051-.374l.384 2.106a.979.979 0 0 1-.866 1.072" style="fill:#f68f82"/>
                </g>
            </g>
        </g>
    </g>
</svg>
