<svg xmlns="http://www.w3.org/2000/svg" width="72" height="72" viewBox="0 0 72 72">
    <defs>
        <clipPath id="ln9u8ic61a">
            <rect data-name="#!IMAGE" width="72" height="72" rx="36" transform="translate(712 1241)" style="fill:#fff"/>
        </clipPath>
        <clipPath id="8z05h7zw2b">
            <path data-name="사각형 2424" style="fill:none" d="M0 0h148.307v186.085H0z"/>
        </clipPath>
    </defs>
    <g data-name="그룹 4225" transform="translate(-384 -1307)">
        <rect data-name="#!IMAGE" width="72" height="72" rx="36" transform="translate(384 1307)" style="fill:#dbf5e6"/>
        <g data-name="마스크 그룹 264" transform="translate(-328 66)" style="clip-path:url(#ln9u8ic61a)">
            <g data-name="그룹 4065">
                <g data-name="그룹 4064" style="clip-path:url(#8z05h7zw2b)" transform="translate(646 1249.958)">
                    <path data-name="패스 7934" d="M146.447 172.866c9.3 12.458-17.492 11.869-52.729 12.839s-85.454.836-77.642-9.823c9.006-12.293 26.01-11.552 61.248-12.522s58.526-4.7 69.123 9.506" style="fill:#aece79"/>
                    <path data-name="패스 7935" d="M75.214 122.305s-2.393 33.137-2.305 33.724l8.6 1.167 6.847-33.6z" style="fill:#ff9c90"/>
                    <path data-name="패스 7936" d="m73.178 151.34-1.157 10.692 8.951.639 1.558-10.483s-5.263 1.258-9.352-.848" style="fill:#e3d3c3"/>
                    <path data-name="패스 7937" d="m76.155 162.328.863.061 1.171-9.846a16.342 16.342 0 0 1-.862-.058z" style="fill:#c5b0a8"/>
                    <path data-name="패스 7938" d="M80.7 152.472c-.27.026-.565.046-.879.063l-1.185 9.97.865.061z" style="fill:#c5b0a8"/>
                    <path data-name="패스 7939" d="m73.638 162.148.861.062 1.188-9.985a10.092 10.092 0 0 1-.844-.221z" style="fill:#c5b0a8"/>
                    <path data-name="패스 7940" d="M88.357 123.6a6.6 6.6 0 1 1-5.926-7.214 6.6 6.6 0 0 1 5.926 7.214" style="fill:#ffa08b"/>
                    <path data-name="패스 7941" d="m90.585 119.944 7.668-36.738-16.98-12.766s-7.735 47.2-7.806 47.538z" style="fill:#c5b0a8"/>
                    <path data-name="패스 7942" d="M90.673 119.312a8.637 8.637 0 1 1-7.555-9.594 8.628 8.628 0 0 1 7.555 9.594" style="fill:#c5b0a8"/>
                    <path data-name="패스 7943" d="M73.6 116.869s-2.167 20.431-1.577 27.978c.287 3.659 12.247 4.776 13.184 1.619 2.737-9.229 5.434-26.757 5.434-26.757z" style="fill:#c5b0a8"/>
                    <path data-name="패스 7944" d="M90.639 119.709a8.638 8.638 0 1 1-7.1-9.934 8.632 8.632 0 0 1 7.1 9.934" style="fill:#c5b0a8"/>
                    <path data-name="패스 7945" d="M95.671 121.059S97.626 155.7 97.8 156.27l8.512.229 2.553-36.054z" style="fill:#ff9c90"/>
                    <path data-name="패스 7946" d="M108.862 120.445a6.6 6.6 0 1 1-6.9-6.284 6.6 6.6 0 0 1 6.9 6.284" style="fill:#ffa08b"/>
                    <path data-name="패스 7947" d="m97.41 151.028.256 10.75 8.957-.542.168-10.595s-5.052 1.935-9.381.387" style="fill:#e3d3c3"/>
                    <path data-name="패스 7948" d="m101.8 161.528.861-.053-.129-9.913a18.19 18.19 0 0 1-.864.055z" style="fill:#c5b0a8"/>
                    <path data-name="패스 7949" d="M105.011 151.163a18.47 18.47 0 0 1-.861.177l.134 10.039.861-.052z" style="fill:#c5b0a8"/>
                    <path data-name="패스 7950" d="m99.283 161.681.863-.051-.134-10.054a13.77 13.77 0 0 1-.864-.108z" style="fill:#c5b0a8"/>
                    <path data-name="패스 7951" d="m110.719 118.819 1.047-39.933-20.2 3.287s1.953 36.783 1.934 37.127z" style="fill:#e3d3c3"/>
                    <path data-name="패스 7952" d="M110.717 118.182a8.637 8.637 0 1 1-8.837-8.428 8.629 8.629 0 0 1 8.837 8.428" style="fill:#e3d3c3"/>
                    <path data-name="패스 7953" d="M96.346 145.179S93 128.141 93.473 117.994l17.192 1.493-1.61 23.592s-.295 3.475-6.022 4.061a8.613 8.613 0 0 1-6.687-1.961" style="fill:#e3d3c3"/>
                    <path data-name="패스 7954" d="M110.665 119.486a8.637 8.637 0 1 1-7.465-9.662 8.627 8.627 0 0 1 7.465 9.662" style="fill:#e3d3c3"/>
                    <path data-name="패스 7955" d="M83.091 63.806c-2.723 2.6-1.943 12.246-1.943 12.246s15.632 13.6 30.545 5.785c0 0 1.065-11.009-3.227-15.71-4.349-4.763-20.637-6.836-25.375-2.321" style="fill:#e3d3c3"/>
                    <path data-name="패스 7956" d="M92.084 74.975a2.129 2.129 0 0 1-1.373-1.234c-.935-2.173 1.03-6.249 1.114-6.421l.776.378c-.524 1.078-1.743 4.2-1.1 5.7a1.282 1.282 0 0 0 .838.751z" style="fill:#c5b0a8"/>
                    <path data-name="패스 7957" d="M90.737 84.271a30.958 30.958 0 0 1 4.1-16.6l.724.47a30.7 30.7 0 0 0-3.96 16.1z" style="fill:#c5b0a8"/>
                    <path data-name="패스 7958" d="M111.715 75.285c-2.957.306-5.158-.261-6.529-1.692-2.128-2.215-1.588-5.822-1.582-5.857l-.854-.136c-.026.164-.614 4.056 1.807 6.586a7.526 7.526 0 0 0 5.684 2.048c.485 0 1-.032 1.525-.084a39.47 39.47 0 0 0-.051-.865" style="fill:#c5b0a8"/>
                    <path data-name="패스 7959" d="m86.271 65.047-.865.03c0 .043.123 4.367-2.093 6.351a3.868 3.868 0 0 1-2.265.961q-.006.444 0 .856a4.718 4.718 0 0 0 2.846-1.176c2.518-2.255 2.387-6.829 2.381-7.022" style="fill:#c5b0a8"/>
                    <path data-name="사각형 2419" transform="rotate(-83.1 88.126 -19.473)" style="fill:#e3d3c3" d="M0 0h3.696v1.727H0z"/>
                    <path data-name="패스 7960" d="M116.395 48.162c6.1-10.68 6.881-18.324-7.383-22.961-3.7-1.2-8.247-2.39-11.149-1.563-11.883 3.389-14.94 32.435-14.991 35.456-.169 10.135 28.616 10.835 30.089 4.462 1.885-8.142.505-8.282 3.434-15.394" style="fill:#ff6043"/>
                    <path data-name="패스 7961" d="M109.6 64.012c-3.206 3.009-15.47.84-18.8-1.245s3.578-3.11 2.376-5.7c-3.851-8.306 5.017-3.367 3.251-8.054-1.464-3.883-2.565-17.951.512-25.043-11.116 4.591-14.018 32.184-14.066 35.124-.17 10.135 28.615 10.835 30.088 4.462a54.481 54.481 0 0 0 1-5.453 25.046 25.046 0 0 1-4.36 5.909" style="fill:#ee4533"/>
                    <path data-name="패스 7962" d="M114.925 30.821c-.645 1.443-4.525 2.188-7.8.727s-4.279-4.248-3.634-5.694 3.4-1.755 6.672-.294 5.408 3.817 4.764 5.261" style="fill:#fa9086"/>
                    <path data-name="패스 7963" d="M110.916 32.772a9.778 9.778 0 0 1-3.968-.831c-3.618-1.613-4.563-4.673-3.855-6.262.428-.956 1.563-1.5 3.12-1.5a10.4 10.4 0 0 1 4.126.99 12.169 12.169 0 0 1 4 2.74c1.022 1.128 1.37 2.226.985 3.09-.473 1.063-2.243 1.776-4.4 1.776m-4.7-7.734c-1.2 0-2.049.362-2.33.991-.548 1.227.355 3.758 3.416 5.125a8.946 8.946 0 0 0 3.617.755c1.982 0 3.342-.653 3.615-1.265.234-.525-.072-1.311-.837-2.159a11.266 11.266 0 0 0-3.709-2.53 9.507 9.507 0 0 0-3.772-.917" style="fill:#d03f3d"/>
                    <path data-name="사각형 2420" transform="rotate(-82.93 68.77 -45.474)" style="fill:#fa9086" d="M0 0h7.315v8.693H0z"/>
                    <path data-name="패스 7964" d="m115.011 21.823-8.629-1.07-.585 4.716a5.659 5.659 0 0 0 3.729 1.6 6.133 6.133 0 0 0 5.166-2.676z" style="fill:#e67c72"/>
                    <path data-name="패스 7965" d="M88.432 40.845a.026.026 0 1 0 0 .052.026.026 0 0 0 0-.052"/>
                    <path data-name="패스 7966" d="M102.756 58.954a4.6 4.6 0 1 0 6.368-1.021 4.578 4.578 0 0 0-6.368 1.021" style="fill:#ffa08b"/>
                    <path data-name="패스 7967" d="M89.371 68.169c-1.99.149-5.145-2.542-3.763-3.992 1.786-1.871 19.223-6.819 19.223-6.819l3.628 8.411c-3.169 1.695-10.91 1.787-19.088 2.4" style="fill:#ffa08b"/>
                    <path data-name="패스 7968" d="M124.191 41.831c1.749-4.145-7.075-10.021-9.893-5.479-3.336 5.377-10.289 19.51-11.89 23.165l7.757 4.845c2.234-2.367 10.541-14.269 14.026-22.531" style="fill:#ffa08b"/>
                    <path data-name="패스 7969" d="M101.968 60.819a4.6 4.6 0 1 0 5.3-3.676 4.582 4.582 0 0 0-5.3 3.676" style="fill:#ffa08b"/>
                    <path data-name="패스 7970" d="M121.723 33.74a7.717 7.717 0 0 0-10.381 3.36L106.2 49.034s.455 2.329 5.474 4.914C116.879 56.626 119 55.9 119 55.9l6.082-11.783a7.713 7.713 0 0 0-3.358-10.38" style="fill:#d03f3d"/>
                    <path data-name="패스 7971" d="m80.076 71.215 1.149-6.393s-4.088-1.776-4.995-.849a11.25 11.25 0 0 0-3.042 8.145z" style="fill:#f68f82"/>
                    <path data-name="패스 7972" d="M70.408 71.776a1.472 1.472 0 0 0 2.052.348l2.853-2.016a1.472 1.472 0 1 0-1.7-2.4l-2.854 2.012a1.474 1.474 0 0 0-.351 2.056" style="fill:#f68f82"/>
                    <path data-name="사각형 2421" transform="rotate(-5.894 756.89 -37.597)" style="fill:#6b6d84" d="M0 0h83.262v1.177H0z"/>
                    <path data-name="패스 7973" d="M0 73.05c-.04-2.3 3.514-2.8 4.793-.313s1.959 4.8 2.553 4.762 3.186-.353 3.186-.353l-.038 1.263s-4.25 2.634-6.054 1.926S.048 75.717 0 73.05" style="fill:#6b6d84"/>
                    <path data-name="패스 7974" d="M63.752 73.182a1.5 1.5 0 0 1-.355-.818 1.47 1.47 0 0 1 1.31-1.616l25.879-2.707a1.472 1.472 0 0 1 .307 2.928l-25.879 2.705a1.471 1.471 0 0 1-1.262-.492" style="fill:#384350"/>
                    <path data-name="패스 7975" d="m88.414 71.3 1.469-4.378-4.275-2.745s-5.252 5.395-5.267 8.183c1.619.294 8.073-1.06 8.073-1.06" style="fill:#ffa08b"/>
                    <path data-name="패스 7976" d="M86.184 71.265a1.115 1.115 0 1 1 1.1 1.132 1.117 1.117 0 0 1-1.1-1.132" style="fill:#ffa08b"/>
                    <path data-name="패스 7977" d="M84.236 71.889a1.116 1.116 0 1 1 1.1 1.133 1.114 1.114 0 0 1-1.1-1.133" style="fill:#ffa08b"/>
                    <path data-name="패스 7978" d="M82.274 72.223a1.115 1.115 0 1 1 1.1 1.134 1.113 1.113 0 0 1-1.1-1.134" style="fill:#ffa08b"/>
                    <path data-name="패스 7979" d="M78.833 73.605a.991.991 0 0 0 .9-1.074l-.162-2.393a.975.975 0 1 0-1.944.132l.163 2.394a1 1 0 0 0 1.043.941" style="fill:#ffa08b"/>
                    <path data-name="패스 7980" d="M77.062 74.078a1.192 1.192 0 0 0 1.027-1.33l-.2-2.98a1.124 1.124 0 1 0-2.227.15l.2 2.982a1.193 1.193 0 0 0 1.2 1.178" style="fill:#ffa08b"/>
                    <path data-name="패스 7981" d="M75.1 74.132a1.2 1.2 0 0 0 1.025-1.332l-.2-2.979a1.123 1.123 0 1 0-2.225.152l.2 2.978a1.2 1.2 0 0 0 1.2 1.181" style="fill:#ffa08b"/>
                    <path data-name="패스 7982" d="M73.326 74.017a1.046 1.046 0 0 0 1.046-1.036l-.154-2.281a1.128 1.128 0 0 0-2.227.151l.155 2.281a1.046 1.046 0 0 0 1.18.885" style="fill:#ffa08b"/>
                    <path data-name="패스 7983" d="M82.359 72.848a1.115 1.115 0 1 1-.459-1.508 1.115 1.115 0 0 1 .462 1.508" style="fill:#ffa08b"/>
                    <path data-name="패스 7984" d="M103.921 5.993s-.848 8.789-1.132 11.718a7.446 7.446 0 0 0 14.814 1.43l1.131-11.715z" style="fill:#ffa08b"/>
                    <path data-name="패스 7985" d="M104.4 12.6a10.657 10.657 0 0 1 3.563-.215l-.167.719s-1.685-.306-3.4-.5" style="fill:#813029"/>
                    <path data-name="패스 7986" d="M114.59 13.27a10.664 10.664 0 0 0-3.474-.833l.04.736s1.714-.008 3.434.1" style="fill:#813029"/>
                    <path data-name="패스 7987" d="M118.8 14.827c4-2 .176-5.075 1.084-5.531 3.135-1.58 1.369-5.543-1.974-5.542a7.167 7.167 0 0 1-4.078-.837C112.64 2.1 112.725.841 111.357.258c-2.947-1.251-3.657 2.465-4.966 2.33-3.853-.392-5.924 3.6-4.991 6.319 2.276 6.623 1.615 3.458 4.791 1.1 1.357-1.008 2.214 2.9 4.282 2 2.705-1.173 3.73-1.76 4.431-.6 1.334 2.21.289 5.219 3.9 3.417" style="fill:#813029"/>
                    <path data-name="패스 7988" d="M113.339 5.664a3.74 3.74 0 0 1-1.624-1.534 6.73 6.73 0 0 1-.191-.334c-.156-.29-.331-.616-.542-.643a2.363 2.363 0 0 0-1.063.354 4.543 4.543 0 0 1-.865.362 1.7 1.7 0 0 1-2.045-.885 3.279 3.279 0 0 0-.343-.431 1.7 1.7 0 0 0 .693-.51 3.906 3.906 0 0 1 .374.469c.358.549.577.651 1.112.516a3.68 3.68 0 0 0 .689-.293 2.882 2.882 0 0 1 1.553-.439c.652.08.968.663 1.2 1.09.054.1.1.2.158.28a2.978 2.978 0 0 0 1.228 1.2 4.2 4.2 0 0 0 1.941.144 4.907 4.907 0 0 1 2.375.218 6.19 6.19 0 0 1 3.035 3.137 2.95 2.95 0 0 1-.644.63 5.4 5.4 0 0 0-2.728-2.972 4.2 4.2 0 0 0-1.975-.153 4.911 4.911 0 0 1-2.336-.208" style="fill:#511324"/>
                    <path data-name="패스 7989" d="M101.191 7.855a2.887 2.887 0 0 1 1.4-.3 2.44 2.44 0 0 0 1.611-.316 4.936 4.936 0 0 0 .68-.615 4.544 4.544 0 0 1 1.062-.883c1.029-.55 2.66-.7 4.639 1.788l.1.133c.3.388.76.976 1.155.9.211-.043.38-.244.578-.475a1.992 1.992 0 0 1 1.084-.776c1.541-.328 2.942 1.4 3.991 2.937a12.517 12.517 0 0 1 1.823 4.281 5.314 5.314 0 0 1-.513.3c-.106.051-.191.085-.282.129a11.926 11.926 0 0 0-1.742-4.225c-.477-.7-1.926-2.83-3.1-2.58a1.3 1.3 0 0 0-.608.493 1.9 1.9 0 0 1-1.061.761c-.919.186-1.6-.689-2.009-1.211l-.1-.128c-1.288-1.62-2.489-2.141-3.549-1.565a3.872 3.872 0 0 0-.859.727 5.836 5.836 0 0 1-.8.722 3.279 3.279 0 0 1-2.125.468 1.884 1.884 0 0 0-1.212.337 4.08 4.08 0 0 1-.168-.9" style="fill:#511324"/>
                    <path data-name="패스 7990" d="M107.9 19.841a1.9 1.9 0 0 0 1.291.061.228.228 0 0 0-.127-.438 1.6 1.6 0 0 1-.947-.022.36.36 0 0 1-.167-.262 4.282 4.282 0 0 1 .675-2.4 13.053 13.053 0 0 0 .8-1.928.228.228 0 0 0-.436-.131 12.306 12.306 0 0 1-.771 1.863 4.584 4.584 0 0 0-.712 2.68.833.833 0 0 0 .4.581" style="fill:#d85a5e"/>
                    <path data-name="패스 7991" d="M112.221 15.382a.638.638 0 1 0 .658-.747.711.711 0 0 0-.658.747" style="fill:#511324"/>
                    <path data-name="패스 7992" d="M105.212 14.809a.637.637 0 1 0 1.243.054.637.637 0 1 0-1.243-.054" style="fill:#511324"/>
                    <path data-name="패스 7993" d="M104.808 14.118a.128.128 0 0 0 .074.037l2.018.364a.14.14 0 0 0 .05-.276l-2.019-.361a.138.138 0 0 0-.163.111.136.136 0 0 0 .04.125" style="fill:#511324"/>
                    <path data-name="패스 7994" d="M111.646 14.752a.15.15 0 0 0 .078.029l2.048.1a.139.139 0 0 0 .146-.133.137.137 0 0 0-.131-.146l-2.05-.107a.139.139 0 0 0-.145.132.134.134 0 0 0 .054.12" style="fill:#511324"/>
                    <path data-name="패스 7995" d="M116.368 16.268c-.031 1.242.719 2.821 1.712 2.848s1.845-1.511 1.878-2.753a1.841 1.841 0 1 0-3.59-.1" style="fill:#ffa08b"/>
                    <path data-name="패스 7996" d="M117.74 17.753a.4.4 0 0 0 .059 0 .182.182 0 0 0 .145-.207 2.467 2.467 0 0 1 .918-2.546.18.18 0 0 0 .062-.245.182.182 0 0 0-.248-.059 2.794 2.794 0 0 0-1.085 2.907.184.184 0 0 0 .149.149" style="fill:#d85a5e"/>
                    <path data-name="패스 7997" d="M116.263 17.812a1.638 1.638 0 1 1-1.331-1.9 1.636 1.636 0 0 1 1.331 1.9" style="fill:#ff8581"/>
                    <path data-name="패스 7998" d="M106.146 17.34a1.638 1.638 0 1 1-1.332-1.9 1.639 1.639 0 0 1 1.332 1.9" style="fill:#ff8581"/>
                    <path data-name="패스 7999" d="M110.015 21.84a2.548 2.548 0 0 1-.45-.042.215.215 0 0 1-.174-.252.207.207 0 0 1 .251-.173 1.431 1.431 0 0 0 1.115-.183 1.5 1.5 0 0 0 .545-.9.222.222 0 0 1 .247-.181.217.217 0 0 1 .18.246 1.929 1.929 0 0 1-.721 1.185 1.661 1.661 0 0 1-.993.3" style="fill:#d85a5e"/>
                    <path data-name="패스 8000" d="M80.64 49.5a4.4 4.4 0 1 0 3.86-4.811 4.38 4.38 0 0 0-3.86 4.811" style="fill:#f68f82"/>
                    <path data-name="패스 8001" d="M80.1 66.461c-1.064 1.584-5.316.36-4.618-1.422a139.6 139.6 0 0 1 5.6-18l7.974 3.63C87.9 53.907 81.808 63.925 80.1 66.461" style="fill:#f68f82"/>
                    <path data-name="패스 8002" d="M98.66 31.523c1.185-4.137-7.653-10.864-11.039-1.718-2.107 5.678-5.429 14.032-6.531 17.687l7.924 3.708a75.187 75.187 0 0 0 9.646-19.68" style="fill:#f68f82"/>
                    <path data-name="패스 8003" d="M80.825 48.779a4.4 4.4 0 1 0 4.607-4.1 4.38 4.38 0 0 0-4.607 4.1" style="fill:#f68f82"/>
                    <path data-name="패스 8004" d="M97.818 24.827a7.384 7.384 0 0 0-10.083 2.7l-4.91 10.393s.317 2.246 4.988 4.964c4.838 2.817 6.109 1.763 6.109 1.763l6.59-9.733a7.381 7.381 0 0 0-2.694-10.084" style="fill:#d03f3d"/>
                    <path data-name="사각형 2422" transform="rotate(-89.84 117.129 53.815)" style="fill:#133b56" d="M0 0h1.083v18.985H0z"/>
                    <path data-name="패스 8005" d="m81.974 169.763-18.98-.051a5.375 5.375 0 0 1 1.5-3.935 7.769 7.769 0 0 1 4.928-2.073c.682-.078 2.751-3.108 2.751-3.108h9.077a46.131 46.131 0 0 1 .724 9.167" style="fill:#1c8186"/>
                    <path data-name="패스 8006" d="M69.263 163.724a7.649 7.649 0 0 0-4.77 2.053 5.378 5.378 0 0 0-1.5 3.935l12.221.033a6.907 6.907 0 0 0-5.952-6.021" style="fill:#1caba9"/>
                    <path data-name="패스 8007" d="M96.666 168.632h11.689l-1.74-8.235-8.957.259z" style="fill:#1c8186"/>
                    <path data-name="패스 8008" d="M102.534 163.655a6.269 6.269 0 0 1 6.267 6.268H96.266a6.268 6.268 0 0 1 6.268-6.268" style="fill:#1caba9"/>
                    <path data-name="패스 8009" d="m108.759 171.058-12.493-.068v-1.083l12.493.069z" style="fill:#133b56"/>
                    <path data-name="사각형 2423" transform="rotate(-86.114 55.968 -48.472)" style="fill:#1c8186" d="M0 0h2.372v20.109H0z"/>
                    <path data-name="패스 8010" d="M101.618 9.273c-.952.021-.66.021-2.13.1-6.144.322-7.658 3.3-.775 3.477a112.858 112.858 0 0 0 16.674-1.221s-13.574-2.459-13.769-2.353" style="fill:#1caba9"/>
                </g>
            </g>
        </g>
    </g>
</svg>
