<svg xmlns="http://www.w3.org/2000/svg" width="27" height="27" viewBox="0 0 27 27">
    <g data-name="vuesax/linear/setting-2">
        <path d="M7.5 3.75A3.75 3.75 0 1 1 3.75 0 3.75 3.75 0 0 1 7.5 3.75z" transform="translate(9.75 9.75)" style="stroke:#292d32;stroke-linecap:round;stroke-linejoin:round;stroke-width:1.5px;fill:none"/>
        <path data-name="Vector" d="M0 11.259V9.338a2.088 2.088 0 0 1 2.09-2.073c1.991 0 2.805-1.4 1.8-3.11a2.063 2.063 0 0 1 .77-2.826L6.567.25A1.844 1.844 0 0 1 9.076.9l.121.207c.99 1.713 2.618 1.713 3.619 0L12.937.9a1.844 1.844 0 0 1 2.508-.65l1.9 1.08a2.063 2.063 0 0 1 .77 2.826c-1 1.713-.187 3.11 1.8 3.11a2.088 2.088 0 0 1 2.09 2.073v1.92a2.088 2.088 0 0 1-2.09 2.073c-1.991 0-2.805 1.4-1.8 3.11a2.06 2.06 0 0 1-.77 2.826l-1.9 1.08a1.844 1.844 0 0 1-2.508-.655l-.121-.207c-.99-1.713-2.618-1.713-3.619 0l-.121.207a1.844 1.844 0 0 1-2.508.655l-1.9-1.08a2.063 2.063 0 0 1-.77-2.826c1-1.713.187-3.11-1.8-3.11A2.088 2.088 0 0 1 0 11.259z" transform="translate(2.5 3.201)" style="stroke:#292d32;stroke-linecap:round;stroke-linejoin:round;stroke-width:1.5px;fill:none"/>
    </g>
</svg>
