<svg xmlns="http://www.w3.org/2000/svg" width="72" height="72" viewBox="0 0 72 72">
    <defs>
        <clipPath id="aqbx5wmska">
            <rect data-name="#!IMAGE" width="72" height="72" rx="36" transform="translate(666 1228)" style="fill:#fff"/>
        </clipPath>
        <clipPath id="c8rrmi4t7b">
            <path data-name="사각형 2438" style="fill:none" d="M0 0h117.338v179.454H0z"/>
        </clipPath>
    </defs>
    <g data-name="그룹 4227" transform="translate(-384 -1406)">
        <rect data-name="#!IMAGE" width="72" height="72" rx="36" transform="translate(384 1406)" style="fill:#dbf1f5"/>
        <g data-name="마스크 그룹 266" transform="translate(-282 178)" style="clip-path:url(#aqbx5wmska)">
            <g data-name="그룹 4069">
                <g data-name="그룹 4068" style="clip-path:url(#c8rrmi4t7b)" transform="translate(639 1233)">
                    <path data-name="패스 8095" d="M3.626 163.048c-13.751 11.262 13.61 12.311 48.417 13.718s64.563 8.7 65.277-8.939c.651-16.088-16.55-15.206-34.749-15.915-34.807-1.353-66.487.936-78.945 11.136" style="fill:#aece79"/>
                    <path data-name="패스 8096" d="M50.989 13.541s-.674 3.891 2.162 5.235c-.044-.044.24-5.235.24-5.235z" style="fill:#813029"/>
                    <path data-name="패스 8097" d="M50.149 118.167s.927 37.849 1.064 38.418l8.549-1.039 3.438-37.284z" style="fill:#ff9c90"/>
                    <path data-name="패스 8098" d="M63.2 118.261a6.526 6.526 0 1 1-6.479-6.566 6.519 6.519 0 0 1 6.479 6.566" style="fill:#ffa08b"/>
                    <path data-name="패스 8099" d="m65.224 111.589 4.242-36.844L51.61 63.711s-3.367 47.146-3.409 47.483z" style="fill:#832729"/>
                    <path data-name="패스 8100" d="M65.255 110.96a8.536 8.536 0 1 1-8.3-8.762 8.527 8.527 0 0 1 8.3 8.762" style="fill:#832729"/>
                    <path data-name="패스 8101" d="M48.231 110.091s-1.622 21.818-.361 29.191c.611 3.575 13.837 4.055 14.474.863 1.864-9.329 2.912-28.789 2.912-28.789z" style="fill:#832729"/>
                    <path data-name="패스 8102" d="M65.256 111.356a8.536 8.536 0 1 1-7.882-9.139 8.529 8.529 0 0 1 7.882 9.139" style="fill:#832729"/>
                    <path data-name="패스 8103" d="M76.519 114.547s8 36.82 8.26 37.345l8.9-.539-4.437-39.7z" style="fill:#ff9c90"/>
                    <path data-name="패스 8104" d="M89.243 111.651a6.525 6.525 0 1 1-7.809-4.91 6.518 6.518 0 0 1 7.809 4.91" style="fill:#ffa08b"/>
                    <path data-name="패스 8105" d="m90.766 109.747-5.212-38.814-19.861 1.94s8.367 40 8.4 40.343z" style="fill:#a43b36"/>
                    <path data-name="패스 8106" d="M90.654 109.127a8.535 8.535 0 1 1-10.064-6.658 8.528 8.528 0 0 1 10.064 6.658" style="fill:#a43b36"/>
                    <path data-name="패스 8107" d="M81.127 138.716S75.16 121.9 73.848 111.95l16.983-1.55 2.546 25.377s.316 1.284-5.154 2.851a12.5 12.5 0 0 1-7.1.083" style="fill:#a43b36"/>
                    <path data-name="패스 8108" d="M90.831 110.406a8.535 8.535 0 1 1-8.944-8.1 8.528 8.528 0 0 1 8.944 8.1" style="fill:#a43b36"/>
                    <path data-name="패스 8109" d="M53.038 57C50.279 59.826 52 69.246 52 69.246s18.059 12.305 33.744 3.119c0 0 .526-11.434-4.614-15.63-5.207-4.253-23.294-4.654-28.094.264" style="fill:#a43b36"/>
                    <path data-name="패스 8110" d="M88.984 138.315c-.1-.927-2.13-13.668-3.76-23.9-.728-4.576-1.377-8.648-1.738-10.937-1.154-7.334-5.171-39.134-5.212-39.455l.847-.106c.04.321 4.056 32.108 5.209 39.427.36 2.291 1.008 6.362 1.737 10.937 1.632 10.246 3.663 23 3.766 23.945z" style="fill:#832729"/>
                    <path data-name="패스 8111" d="M62.656 67.2a2.1 2.1 0 0 1-1.462-1.091c-1.116-2.054.452-6.241.519-6.42l.8.3c-.419 1.106-1.338 4.289-.567 5.708a1.266 1.266 0 0 0 .893.664z" style="fill:#832729"/>
                    <path data-name="패스 8112" d="M62.166 76.472a30.575 30.575 0 0 1 2.542-16.7l.756.4a30.3 30.3 0 0 0-2.45 16.2z" style="fill:#832729"/>
                    <path data-name="패스 8113" d="M85.274 65.044c-2.881.566-5.1.206-6.576-1.078-2.294-1.989-2.088-5.585-2.085-5.623l-.851-.056c-.011.164-.241 4.046 2.371 6.319a7.431 7.431 0 0 0 5.776 1.5c.478-.044.978-.12 1.494-.22-.038-.277-.082-.56-.129-.846" style="fill:#832729"/>
                    <path data-name="패스 8114" d="m56.04 57.956-.847.106c.006.044.514 4.289-1.488 6.44a3.825 3.825 0 0 1-2.142 1.148q.034.438.074.843a4.672 4.672 0 0 0 2.694-1.412c2.274-2.446 1.733-6.936 1.709-7.125" style="fill:#c5b0a8"/>
                    <path data-name="사각형 2433" transform="matrix(.031 -1 1 .031 66.966 62.241)" style="fill:#e3d3c3" d="M0 0h3.654v1.707H0z"/>
                    <path data-name="패스 8115" d="M80.257 44.387c-1.709-9.4 4.326-12.3-7.344-17.95-3.082-1.491-17.221-3.894-23.481 2.914-7.918 8.612 3.744 27.586 5.2 30.264 3.632 6.664 27.949 1.766 26.386-3.272-2.387-7.695.516-4.9-.765-11.956" style="fill:#fab577"/>
                    <path data-name="패스 8116" d="M67.619 28.225c.02 1.672-2.948 3.063-6.63 3.109s-6.683-1.276-6.7-2.947 2.949-3.062 6.631-3.108 6.684 1.274 6.7 2.946" style="fill:#fa9086"/>
                    <path data-name="패스 8117" d="M60.805 31.894c-4.011 0-7.054-1.5-7.079-3.5-.024-2.044 3.063-3.623 7.181-3.673h.19c4.011 0 7.055 1.506 7.079 3.5.025 2.045-3.063 3.623-7.182 3.673zm.292-6.059h-.176c-3.6.046-6.094 1.378-6.079 2.546.013 1.133 2.466 2.4 5.963 2.4h.177c3.6-.043 6.092-1.375 6.078-2.543-.013-1.134-2.466-2.4-5.963-2.4" style="fill:#ffdd9e"/>
                    <path data-name="패스 8118" d="M80.257 44.387c-1.52-8.357 3.075-11.579-4.1-16.166-3.876 2.46-6.815 5.9-7.867 15.6-.412 3.794 2.553 12.432-.008 14.139-6.722 5.168-17.913-8.931-20.932-15.346 1.73 7.7 6.4 15.371 7.286 17 3.632 6.664 27.949 1.766 26.386-3.272-2.387-7.695.516-4.9-.765-11.956" style="fill:#f3a25e"/>
                    <path data-name="사각형 2434" transform="translate(56.801 21.502)" style="fill:#fa9086" d="M0 0h9.249v6.338H0z"/>
                    <path data-name="패스 8119" d="M51.838 41.648a.026.026 0 0 0 .021.048.026.026 0 0 0-.021-.048"/>
                    <path data-name="사각형 2435" transform="rotate(-64.645 128.312 50.195)" style="fill:#6b6d84" d="M0 0h82.278v1.164H0z"/>
                    <path data-name="패스 8120" d="M20.153 148.973c-1.963-1.147-.561-4.406 2.2-4.207s5.059.811 5.333.291 1.337-2.872 1.337-2.872l1.048.681s.041 4.942-1.485 6.1-6.154 1.338-8.429.008" style="fill:#6b6d84"/>
                    <path data-name="패스 8121" d="M53 95.217a1.474 1.474 0 0 1-.874-.118 1.456 1.456 0 0 1-.691-1.938l11.007-23.239a1.454 1.454 0 0 1 2.629 1.245l-11 23.239a1.458 1.458 0 0 1-1.071.811" style="fill:#384350"/>
                    <path data-name="패스 8122" d="M54.81 35.565c-.866-4.639-12.834-6.9-11.671 3.732C43.86 45.9 44.7 55.723 45.41 59.85L55 59.6c.588-3.364 1.537-14.787-.193-24.036" style="fill:#f68f82"/>
                    <path data-name="패스 8123" d="M45.781 61.241a4.822 4.822 0 1 0 2.509-6.283 4.8 4.8 0 0 0-2.509 6.283" style="fill:#ffa08b"/>
                    <path data-name="패스 8124" d="M50.7 29.41A8.1 8.1 0 0 0 42.133 37l.283 12.6s1.412 2.048 7.326 2.423c6.127.39 6.857-1.267 6.857-1.267l1.692-12.78A8.1 8.1 0 0 0 50.7 29.41" style="fill:#ffdd9e"/>
                    <path data-name="패스 8125" d="m42.37 47.571.022.967a16.9 16.9 0 0 0 7.547 1.737 20.583 20.583 0 0 0 6.889-1.246l.126-.955c-6.854 2.567-11.921.923-14.584-.5" style="fill:#f3a25e"/>
                    <path data-name="패스 8126" d="M46.594 62.551a4.821 4.821 0 1 0 .4-6.752 4.8 4.8 0 0 0-.4 6.752" style="fill:#ffa08b"/>
                    <path data-name="패스 8127" d="M56.864 78.064c.052 2.093-4.527 3.694-5.033 1.656 0 0-4.524-11.179-6.4-19.657l9.437-1.807c1.017 3.63 1.915 16.46 2 19.808" style="fill:#ffa08b"/>
                    <path data-name="패스 8128" d="M56.8 25.887a6.75 6.75 0 0 0 9.249-2V21.5H56.8z" style="fill:#e67c72"/>
                    <path data-name="패스 8129" d="m52.042 7.163.913 11.884a7.54 7.54 0 0 0 15.026-1.155l-.913-11.883z" style="fill:#ffa08b"/>
                    <path data-name="패스 8130" d="M59.1 9.794a3 3 0 0 0 1.023 3.464 3.47 3.47 0 0 0 2.861.224c-.383 1.567 1.889 1.545 2.419 1.17.028.912 1.814-.132 2.641-.084 0 2.373-.179 5.246-.179 5.246.69-1.3 2.919-1.237 2.916-4.968a2.572 2.572 0 0 0-.871-2.015 10.428 10.428 0 0 1 .158-1.931c.111-1.56-1.265-2.379-1.794-3.718z" style="fill:#813029"/>
                    <path data-name="패스 8131" d="M58.655 21.441a1.923 1.923 0 0 0 1.3-.166.23.23 0 0 0-.2-.414A1.612 1.612 0 0 1 58.8 21a.364.364 0 0 1-.21-.232 4.343 4.343 0 0 1 .254-2.517 13.111 13.111 0 0 0 .458-2.061.231.231 0 0 0-.458-.055 12.723 12.723 0 0 1-.443 1.993 4.63 4.63 0 0 0-.244 2.8.838.838 0 0 0 .5.51" style="fill:#d85a5e"/>
                    <path data-name="패스 8132" d="M62.188 16.239a.646.646 0 1 0 .525-.859.721.721 0 0 0-.525.859" style="fill:#511324"/>
                    <path data-name="패스 8133" d="M55.1 16.89a.645.645 0 1 0 .525-.862.72.72 0 0 0-.525.862" style="fill:#511324"/>
                    <path data-name="패스 8134" d="M54.572 16.27a.134.134 0 0 0 .081.025l2.077.01a.14.14 0 0 0 .142-.14.141.141 0 0 0-.14-.143l-2.078-.01a.142.142 0 0 0-.143.14.14.14 0 0 0 .061.118" style="fill:#511324"/>
                    <path data-name="패스 8135" d="M61.5 15.71a.132.132 0 0 0 .083.017l2.063-.251a.145.145 0 0 0 .123-.16.143.143 0 0 0-.159-.123l-2.062.25a.145.145 0 0 0-.123.16.14.14 0 0 0 .075.107" style="fill:#511324"/>
                    <path data-name="패스 8136" d="M58.616.069a9.289 9.289 0 0 0-7.958 10.442s17.257 2.4 19.215-.753c.77-7.869-6.311-10.21-11.257-9.689" style="fill:#d9c4b7"/>
                    <path data-name="패스 8137" d="M63.1 11.38c.289-.005.574-.014.855-.022.195-3.13.784-7.654 2.191-9.731a9.979 9.979 0 0 0-.736-.413c-1.618 2.475-2.141 7.353-2.31 10.166" style="fill:#c5b0a8"/>
                    <path data-name="패스 8138" d="M66.4 14.627c-.336 1.213.013 2.949.98 3.218s2.186-1.03 2.523-2.241a1.864 1.864 0 1 0-3.5-.977" style="fill:#ffa08b"/>
                    <path data-name="패스 8139" d="M67.385 16.421a.3.3 0 0 0 .057.015.182.182 0 0 0 .194-.166 2.5 2.5 0 0 1 1.53-2.27.182.182 0 0 0 .118-.226.178.178 0 0 0-.227-.118 2.82 2.82 0 0 0-1.781 2.586.18.18 0 0 0 .109.183" style="fill:#d85a5e"/>
                    <path data-name="패스 8140" d="M50.6 10.359s-2.747 5.516 3.43 5.368c6.2-.149 14.259-5.3 14.259-5.3z" style="fill:#e3d3c3"/>
                    <path data-name="패스 8141" d="M66.643 17.958a1.659 1.659 0 1 1-1.659-1.658 1.659 1.659 0 0 1 1.659 1.659" style="fill:#ff8581"/>
                    <path data-name="패스 8142" d="M56.468 19.249a1.658 1.658 0 1 1-1.658-1.657 1.659 1.659 0 0 1 1.658 1.657" style="fill:#ff8581"/>
                    <path data-name="패스 8143" d="M60.674 23.1a.226.226 0 0 1-.235-.221.218.218 0 0 1 .218-.216 1.452 1.452 0 0 0 1.08-.376 1.539 1.539 0 0 0 .39-1 .219.219 0 1 1 .437-.007 1.964 1.964 0 0 1-.512 1.307 1.853 1.853 0 0 1-1.378.509" style="fill:#d85a5e"/>
                    <path data-name="사각형 2436" transform="rotate(-89.84 103.551 62.968)" style="fill:#133b56" d="M0 0h1.269v21.833H0z"/>
                    <path data-name="패스 8144" d="m62.13 165.133-21.83-.059a6.4 6.4 0 0 1 1.725-4.618 8.836 8.836 0 0 1 5.668-2.434c.784-.093 3.773-2.3 3.773-2.3l8.293-.181s2.388 2.744 2.369 9.588" style="fill:#1c8186"/>
                    <path data-name="패스 8145" d="M47.513 158.045a8.69 8.69 0 0 0-5.485 2.411 6.394 6.394 0 0 0-1.726 4.618l14.056.037a8.027 8.027 0 0 0-6.845-7.066" style="fill:#1caba9"/>
                    <path data-name="사각형 2437" transform="translate(80.125 165.133)" style="fill:#133b56" d="M0 0h14.68v1.271H0z"/>
                    <path data-name="패스 8146" d="m94.718 164.014-11.946-.714 1.143-11.871 9.7-.892z" style="fill:#1c8186"/>
                    <path data-name="패스 8147" d="M87.464 157.793a7.34 7.34 0 0 0-7.34 7.34h14.681a7.34 7.34 0 0 0-7.341-7.34" style="fill:#1caba9"/>
                    <path data-name="패스 8148" d="M56.537 74.468a8.787 8.787 0 0 1 2.293-1.7c1.355-.675 5.725-1.57 6.35-1.918 1.863-1.039 6.062 3.085 5.16 4.277-3.713 4.903-7.94 6.814-10.423 6.943 1.231-3.868-2.2-1.336-3.64-.352.091-1.892.26-7.25.26-7.25" style="fill:#f68f82"/>
                    <path data-name="패스 8149" d="M59.3 84.075c.815-4.3-2.4-10.2-2.4-10.2l-6.676 1.6a28.959 28.959 0 0 1 .511 9.12c-.649 3.955 2.3 5.236 2.3 5.236l2.908-5.531 1.035-.884a1.2 1.2 0 0 0-.114.326l-.54 3.949a1.228 1.228 0 0 0 2.433.332z" style="fill:#ffa08b"/>
                    <path data-name="패스 8150" d="M72.786 60.046a4.822 4.822 0 1 0 5.18-4.354 4.8 4.8 0 0 0-5.18 4.354" style="fill:#f68f82"/>
                    <path data-name="패스 8151" d="M65.922 78.954c-1.709 1.209-6.526-.687-5.393-2.459 6.382-9.967 8.4-11.814 13.267-19l7.8 5.611C79.656 66.339 72.952 74 65.922 78.954" style="fill:#f68f82"/>
                    <path data-name="패스 8152" d="M82.734 33.407c-.694-4.67-11.805-5.121-11.853.485-.057 6.639 1.423 23.1 1.979 27.245l9.6.112c.712-3.341 1.663-18.537.278-27.842" style="fill:#f68f82"/>
                    <path data-name="패스 8153" d="M73.177 62.542a4.822 4.822 0 1 0 2.743-6.184 4.806 4.806 0 0 0-2.743 6.184" style="fill:#f68f82"/>
                    <path data-name="패스 8154" d="M76.109 27.5a8.094 8.094 0 0 0-7.47 8.673l1.907 13.5s1.674 1.838 7.584 1.417c6.124-.438 7.629-2.242 7.629-2.242l-.978-13.876a8.093 8.093 0 0 0-8.672-7.47" style="fill:#ffdd9e"/>
                    <path data-name="패스 8155" d="m70.2 47.194.138.979a16.794 16.794 0 0 0 6.244 1.183 20.663 20.663 0 0 0 9.059-2.231l-.064-.917c-6.99 3.506-12.432 2.274-15.377.986" style="fill:#f3a25e"/>
                </g>
            </g>
        </g>
    </g>
</svg>
