<svg xmlns="http://www.w3.org/2000/svg" width="72" height="72" viewBox="0 0 72 72">
    <defs>
        <clipPath id="7lhynaac0a">
            <rect data-name="#!IMAGE" width="72" height="72" rx="36" transform="translate(671 1109)" style="fill:#fff"/>
        </clipPath>
        <clipPath id="ufz79572pb">
            <path data-name="사각형 2393" style="fill:none" d="M0 0h124.822v171.381H0z"/>
        </clipPath>
    </defs>
    <g data-name="그룹 4220" transform="translate(-486 -1208)">
        <rect data-name="#!IMAGE" width="72" height="72" rx="36" transform="translate(486 1208)" style="fill:#f5f2db"/>
        <g data-name="마스크 그룹 259" transform="translate(-185 99)" style="clip-path:url(#7lhynaac0a)">
            <g data-name="그룹 4055">
                <g data-name="그룹 4054" style="clip-path:url(#ufz79572pb)" transform="translate(642.255 1113.285)">
                    <path data-name="패스 7536" d="M126.415 180.409c.261 8.449-13.3 10.564-44.437 10.564s-68.307 1.5-68.307-14.275c0-5.262 15.083-8.653 46.218-8.653s66.293 4.89 66.525 12.365" transform="translate(-1.597 -19.63)" style="fill:#aece79"/>
                    <path data-name="패스 7537" d="M69.252 44.568c1.266 3.039 10.273 4.731 7.932-2.352-1.45-4.4-4.9-15.375-5.987-18.087L64.69 25.69a81.8 81.8 0 0 0 4.562 18.877" transform="translate(-7.557 -2.819)" style="fill:#f68f82"/>
                    <path data-name="패스 7538" d="M70.74 22.935a3.363 3.363 0 1 0-.8 4.647 3.35 3.35 0 0 0 .8-4.647" transform="translate(-7.552 -2.518)" style="fill:#f68f82"/>
                    <path data-name="패스 7539" d="M71.178 23.746A3.363 3.363 0 1 0 69.139 28a3.348 3.348 0 0 0 2.039-4.256" transform="translate(-7.552 -2.518)" style="fill:#f68f82"/>
                    <path data-name="패스 7540" d="M69.422 7.869c.738-1.259 4.439-1.345 4.23.106-1.182 8.169-1.35 10-2.371 15.975l-6.569-1.323c.3-2.612 1.675-9.583 4.711-14.758" transform="translate(-7.559 -.807)" style="fill:#f68f82"/>
                    <path data-name="패스 7541" d="m78.685 3.565-3.639 3.944a11.736 11.736 0 0 1-3.3-1.2c-.66-.6-.1-2.59-.1-2.59z" transform="translate(-8.343 -.416)" style="fill:#f68f82"/>
                    <path data-name="사각형 2390" transform="rotate(-16.752 75.33 -5.312)" style="fill:#6b6d84" d="M0 0h70.556v.997H0z"/>
                    <path data-name="패스 7542" d="M.358 31.32c.722 1.811 3.663 1.039 3.848-1.326s-.042-4.393.433-4.559 2.43-.9 2.43-.9l-.269-.842s-4.185-.665-5.362.48S-.48 29.22.358 31.32" transform="translate(0 -2.745)" style="fill:#384350"/>
                    <path data-name="패스 7543" d="M56.757 7.63a1.28 1.28 0 0 0-.011.756 1.25 1.25 0 0 0 1.556.835l21.109-6.366a1.247 1.247 0 0 0-.719-2.388l-21.11 6.365a1.245 1.245 0 0 0-.825.8" transform="translate(-6.623 -.048)" style="fill:#384350"/>
                    <path data-name="패스 7544" d="M73.115 2.847a.768.768 0 0 1 1.077.137l1.885 1.964c.261.335-.562.292-.9.551a.769.769 0 0 1-1.077-.133l-1.12-1.437a.771.771 0 0 1 .134-1.082" transform="translate(-8.506 -.314)" style="fill:#f68f82"/>
                    <path data-name="패스 7545" d="M93.64 34.527c.836 3.184-5.3 9.991-7.737 2.941-1.512-4.378-5.421-15.2-6.2-18.013l6.123-2.7a81.73 81.73 0 0 1 7.814 17.772" transform="translate(-9.31 -1.957)" style="fill:#f68f82"/>
                    <path data-name="패스 7546" d="M96.458 43.683c.517-6.8-4.634-16.87-4.634-16.87l-9.3 3.508 3.684 14.986c1.256.672 10.079 2.276 10.249-1.624" transform="translate(-9.64 -3.132)" style="fill:#d03f3d"/>
                    <path data-name="패스 7547" d="M87.99 28.216c1.295 1.5 2.44 2.161 2.605 2.687s-1.214 1.12-1.214 1.12z" transform="translate(-10.278 -3.296)" style="fill:#fa9086"/>
                    <path data-name="패스 7548" d="M79.495 18.24a3.363 3.363 0 1 1 3.454 3.213 3.35 3.35 0 0 1-3.454-3.213" transform="translate(-9.286 -1.731)" style="fill:#ffa08b"/>
                    <path data-name="패스 7549" d="m79.677 45.189 6.793-.857-1.562-7.342-5.8.484z" transform="translate(-9.241 -4.321)" style="fill:#fa9086"/>
                    <path data-name="패스 7550" d="m78.237 42.683.15 3.171 9.207-3.171z" transform="translate(-9.139 -4.986)" style="fill:#df4b3d"/>
                    <path data-name="패스 7551" d="m84.908 36.99-5.8.483.192 2.633a5.742 5.742 0 0 0 6.073.42c.087-.045.168-.1.253-.147z" transform="translate(-9.241 -4.321)" style="fill:#e67c72"/>
                    <path data-name="패스 7552" d="M79.568 18.485a3.363 3.363 0 1 1 3.77 2.837 3.348 3.348 0 0 1-3.77-2.837" transform="translate(-9.291 -1.718)" style="fill:#ffa08b"/>
                    <path data-name="패스 7553" d="M73.74 5.309c-1.176-.865-3.79 2.084-2.934 3.273 4.821 6.7 4.859 5.7 8.521 10.528l5.22-4.2c-1.471-2.181-5.5-5.7-10.807-9.6" transform="translate(-8.251 -.602)" style="fill:#ffa08b"/>
                    <path data-name="패스 7554" d="M68.982 110.738a5.724 5.724 0 0 1-.55-1.221.269.269 0 0 0-.442-.115 1.4 1.4 0 0 1-.262.049.142.142 0 0 0-.086.207.952.952 0 0 1 .069.349c.006.055.1.055.11 0 .011-.073.019-.17.039-.253a.206.206 0 0 1 .048.132 1.584 1.584 0 0 0 .227.6 5.949 5.949 0 0 1 .716 1.566c.031.14.273.151.3 0a2.129 2.129 0 0 0-.167-1.319" transform="translate(-7.899 -12.771)" style="fill:#229ba2"/>
                    <path data-name="패스 7555" d="M85.656 114.327c-.756-.214-1.241-.865-2.027-1.05-.658-.158-1.335-.146-2-.329a3.409 3.409 0 0 0-1.818.091.21.21 0 0 0 0 .4 13.153 13.153 0 0 0 3.331.653c.887.032 1.582.586 2.483.493a.134.134 0 0 0 .035-.261" transform="translate(-9.305 -13.184)" style="fill:#229ba2"/>
                    <path data-name="패스 7556" d="M67.779 113.244a.041.041 0 0 0 0 .081.041.041 0 0 0 0-.081" transform="translate(-7.913 -13.228)" style="fill:#ff9c90"/>
                    <path data-name="패스 7557" d="M95.625 137.163a4.918 4.918 0 1 1-4.919-4.919 4.918 4.918 0 0 1 4.919 4.919" transform="translate(-10.021 -15.448)" style="fill:#ff9c90"/>
                    <path data-name="패스 7558" d="m83.653 104.045 1.886 29.824h9.836l1.843-29.565z" transform="translate(-9.772 -12.154)" style="fill:#ff9c90"/>
                    <path data-name="패스 7559" d="m83.653 104.045 1.886 29.824h9.836l1.843-29.565z" transform="translate(-9.772 -12.154)" style="fill:#ff9c90"/>
                    <path data-name="패스 7560" d="m84.774 121.779 11.593-3.825.852-13.65-13.565-.259z" transform="translate(-9.772 -12.154)" style="fill:#f3847f"/>
                    <path data-name="패스 7561" d="M95.625 137.163a4.918 4.918 0 1 1-4.919-4.919 4.918 4.918 0 0 1 4.919 4.919" transform="translate(-10.021 -15.448)" style="fill:#ff9c90"/>
                    <path data-name="패스 7562" d="m93.3 170.791 2.09-32.586-9.168-3.188s-2.451 4.458-2.449 12.244c0 5.944 3.687 23.531 3.687 23.531z" transform="translate(-9.786 -15.772)" style="fill:#ff9c90"/>
                    <path data-name="패스 7563" d="M84.238 154.467c.958 7.542 3.275 18.6 3.275 18.6h5.841l1.192-18.6s-.6.337-5.34.384a17.125 17.125 0 0 1-4.968-.384" transform="translate(-9.84 -18.044)" style="fill:#ffdd9e"/>
                    <path data-name="패스 7564" d="M75.677 134.223a4.917 4.917 0 1 1-3.505-6 4.918 4.918 0 0 1 3.505 6" transform="translate(-7.71 -14.959)" style="fill:#ff9c90"/>
                    <path data-name="패스 7565" d="m71.942 99.008-5.755 29.323 9.512 2.5L85 102.707z" transform="translate(-7.732 -11.566)" style="fill:#ff9c90"/>
                    <path data-name="패스 7566" d="m78.858 121.585 6.24-18.878-13.053-3.7-4.98 25.372z" transform="translate(-7.834 -11.566)" style="fill:#f3847f"/>
                    <path data-name="패스 7567" d="M75.318 135.181a4.918 4.918 0 1 1-2.189-6.6 4.922 4.922 0 0 1 2.189 6.6" transform="translate(-7.71 -14.959)" style="fill:#ff9c90"/>
                    <path data-name="패스 7568" d="m56.824 164.116 16.685-28.6-6.96-6.554s-4.19 2.884-7.682 9.845c-2.667 5.314-7.267 22.685-7.267 22.685z" transform="translate(-6.028 -15.065)" style="fill:#ff9c90"/>
                    <path data-name="패스 7569" d="M56.834 145.918c-2.481 7.165-5.23 17.554-5.23 17.554l5.219 2.624 9.329-15.988a36.442 36.442 0 0 0-9.318-4.19" transform="translate(-6.028 -17.045)" style="fill:#ffdd9e"/>
                    <path data-name="패스 7570" d="M76.877 78.866S54.542 97.52 57.706 104.975c.6 1.4 2.884-.168 3.768.8s.752 5.135 4.089 5.568 4.782-2.693 6.732-1.148 4.872 4.385 7.809 4.19c4.849-.324 6.962-2.4 9.687-1.773s5.793 3.323 6.143 1.783c3.8-16.663-2.1-35.342-2.1-35.342z" transform="translate(-6.705 -9.213)" style="fill:#22acac"/>
                    <path data-name="패스 7571" d="M100.329 88.165c-.048-.261-.092-.515-.14-.768a4.064 4.064 0 0 1-2.313.321c-.633-5.992-2.028-7.268-2.138-7.358l-.493.583c.046.042 4.252 4.257.815 32.5.246.11.491.226.728.344 1.532-12.478 1.6-20.367 1.161-25.319.189.014.391.042.567.042a4.378 4.378 0 0 0 1.812-.35" transform="translate(-11.126 -9.387)" style="fill:#229ba2"/>
                    <path data-name="패스 7572" d="M76.877 78.866S54.542 97.52 57.706 104.975c.6 1.4 2.884-.168 3.768.8s.752 5.135 4.089 5.568 4.782-2.693 6.732-1.148c1.736 1.379.664-.035.438-1.583-.318-2.174 7.371-20.372 7.371-20.372l-12.615 21.103s-3.494.069-3.686-1.888c-.569-5.88 11.151-29 25.9-28.134z" transform="translate(-6.705 -9.213)" style="fill:#229ba2"/>
                    <path data-name="패스 7573" d="m89.563 93.008-5.334 22.928a41.488 41.488 0 0 0 6.205-1.608z" transform="translate(-9.839 -10.865)" style="fill:#229ba2"/>
                    <path data-name="패스 7574" d="M76.781 76.74c-3.534-.279.6-5.139-.114-7.489s-7.118-17.015-5.815-20.433 8.759-3.951 18.666-7.133c0 0 5.813-2.513 7.265 9.207.747 6.016 1.6 24.018-.521 25.848s-12.936.515-19.481 0" transform="translate(-8.256 -4.843)" style="fill:#ff6043"/>
                    <path data-name="패스 7575" d="M96.262 77.271a2.14 2.14 0 0 0 .521-.882c-3.484 1.535-12.44-2.665-10.816-5.582.744-1.334 2.068-4.456 0-6.865-1.076-1.254-5.468-4.449-6.032-6.993s9.006 5.909 7.936 1.973c-1.16-4.269-8.543-5.945-13.448-12.922a6.93 6.93 0 0 0-3.572 3.35c-1.3 3.419 5.107 18.081 5.816 20.433s-3.421 7.21.113 7.489c6.546.515 17.363 1.827 19.482 0" transform="translate(-8.256 -5.373)" style="fill:#ee4533"/>
                    <path data-name="패스 7576" d="M84.566 22.01a77 77 0 0 0 3 8.26 5.448 5.448 0 0 1-2.44 7.374 5.614 5.614 0 0 1-7.568-2.138l-4.2-7.8z" transform="translate(-8.569 -2.571)" style="fill:#ffa08b"/>
                    <path data-name="패스 7577" d="M86.582 31.849a1.3 1.3 0 1 1-1.3-1.3 1.3 1.3 0 0 1 1.3 1.3" transform="translate(-9.81 -3.568)" style="fill:#ff8581"/>
                    <path data-name="패스 7578" d="M85.757 29.3a.541.541 0 1 0 .44-.721.6.6 0 0 0-.44.721" transform="translate(-10.017 -3.338)" style="fill:#511324"/>
                    <path data-name="패스 7579" d="M79.572 25.845s-9.179-.159-11.642 3.882c-4-2.449-6.624-1.287-8.118 1.2-1.253 2.091-.239 3.618-7.632 3.347a6.75 6.75 0 0 0-2.913.553c3.418 7.731 7.084 15.462 10.159 23.192 2.89-1.591 5.323-4.078 9.919-4.281 6.33-.278 6.137-7 6.529-8.485.859-3.241.557-6.021 3.421-7.543s.277-11.869.277-11.869" transform="translate(-5.755 -3.019)" style="fill:#ffdd9e"/>
                    <path data-name="패스 7580" d="M70.484 27.838a6.918 6.918 0 0 1-1 3.073 2.085 2.085 0 0 1-1.66.671 5.9 5.9 0 0 0-1.115.2c-1.735.533-2.343 2.033-2.933 3.484a7.186 7.186 0 0 1-1.246 2.289c-1.637 1.73-3.689 1.246-5.861.737l-.648-.15a19.615 19.615 0 0 0-2.707-.456c-.154 0-.295 0-.456-.006a12.916 12.916 0 0 0-1.176.009 7.349 7.349 0 0 0-.982.163c.1.234.208.468.314.7a11.381 11.381 0 0 1 4.843.317l.639.149c2.177.512 4.647 1.093 6.577-.952a7.87 7.87 0 0 0 1.4-2.521c.546-1.347 1.062-2.622 2.457-3.051a5.292 5.292 0 0 1 .976-.168 2.759 2.759 0 0 0 2.184-.977 8.055 8.055 0 0 0 1.193-3.881 10.11 10.11 0 0 0-.794.37" transform="translate(-5.922 -3.209)" style="fill:#fab577"/>
                    <path data-name="패스 7581" d="m80.1 30.726-.072-.325a40.1 40.1 0 0 1-.8-4.51c-.23.013-.479.029-.746.05a41.807 41.807 0 0 0 .818 4.619l.074.329c.312 1.4.7 3.141-.213 4.237a10.1 10.1 0 0 1-2.8 1.97c-2.086 1.165-4.449 2.482-4.092 5.3a8.569 8.569 0 0 0 .395 1.55 3.984 3.984 0 0 1 .263 2.509A2.892 2.892 0 0 1 70.23 48.4c-.759.069-1.593.064-2.476.058-3.255-.021-6.937-.043-8.059 3.8-.169.571-.3 1.168-.427 1.744-.041.173-.077.344-.116.513q.244.579.484 1.161c.136-.5.251-1.009.361-1.512.125-.564.253-1.147.414-1.7.964-3.3 4.2-3.282 7.337-3.266.9.007 1.754.011 2.552-.061a3.656 3.656 0 0 0 3.34-2.471 4.631 4.631 0 0 0-.269-2.963 7.817 7.817 0 0 1-.363-1.414c-.293-2.312 1.653-3.4 3.713-4.548a10.7 10.7 0 0 0 3.013-2.143c1.153-1.379.718-3.322.369-4.88" transform="translate(-6.91 -3.024)" style="fill:#fab577"/>
                    <path data-name="패스 7582" d="M75.259 26.334c-.245.043-.491.093-.739.146.688 2.375 1.109 6.566-1.563 8.082a10.47 10.47 0 0 1-2.249.841c-1.838.533-3.741 1.082-3.947 3.681-.024.324-.024.672-.02 1.028a4.339 4.339 0 0 1-.432 2.424c-.541.8-1.468.686-2.721.436l-.274-.054c-2.036-.391-6.69-.871-8.849 2.184.12.274.242.545.365.816 1.781-3.126 6.378-2.642 8.34-2.266l.273.053c1.107.221 2.626.524 3.485-.752a4.929 4.929 0 0 0 .557-2.847c0-.334 0-.661.023-.964.163-2.083 1.6-2.5 3.409-3.022a11.041 11.041 0 0 0 2.409-.908c3.057-1.734 2.712-6.157 1.932-8.879" transform="translate(-6.362 -3.076)" style="fill:#fab577"/>
                    <path data-name="패스 7583" d="M74.618 17.673a9.125 9.125 0 0 0-6.1 11.371l17.472-5.272a9.126 9.126 0 0 0-11.371-6.1" transform="translate(-7.958 -2.019)" style="fill:#22acac"/>
                    <path data-name="패스 7584" d="M69.956 21.541c-.136.2-.262.395-.382.6 1.816-.839 4.774-1.841 7.46-1.086a7.187 7.187 0 0 1 4.523 4.156l.344-.163a7.549 7.549 0 0 0-4.762-4.36 11.21 11.21 0 0 0-7.183.856" transform="translate(-8.127 -2.383)" style="fill:#228191"/>
                    <path data-name="사각형 2391" transform="rotate(-17.58 114.233 -181.548)" style="fill:#228191" d="M0 0h18.191v1.767H0z"/>
                    <path data-name="패스 7585" d="M84.078 27.535a9.172 9.172 0 0 1 2.956-.873v.638s-1.478.072-2.956.238" transform="translate(-9.821 -3.114)" style="fill:#ffefa8"/>
                    <path data-name="사각형 2392" transform="translate(75.53 159.727)" style="fill:#84253d" d="M0 0h16.504v1.052H0z"/>
                    <path data-name="패스 7586" d="M85.52 180.015h16.5a3.887 3.887 0 0 0-1.3-3.055 7.2 7.2 0 0 0-4.279-1.62 15.206 15.206 0 0 1-2.847-1.523l-6.268-.134s-1.811 1.809-1.811 6.332" transform="translate(-9.99 -20.289)" style="fill:#d03f3d"/>
                    <path data-name="패스 7587" d="M51.646 163.914c-1.6 1.449-4.359 5.553-3.259 6.576a29.088 29.088 0 0 1 5.368 7.559h9.026s.993-3.418-3.3-4.738l-2.452-6.16z" transform="translate(-5.623 -19.147)" style="fill:#d03f3d"/>
                    <path data-name="패스 7588" d="M51.2 170.363a3.942 3.942 0 0 0-2.821-1.167c-.328.808-.388 1.543.008 1.909a28.208 28.208 0 0 1 5.37 7.981h9.027a3.66 3.66 0 0 0 .087-.994l-7.422-.006s-.971-4.958-4.249-7.724" transform="translate(-5.62 -19.763)" style="fill:#84253d"/>
                    <path data-name="패스 7589" d="M68.846 30.138s14.433-4.038 20.277-5.869c5.372-1.684 4.437-2.486-.464-1.357-5.992 1.38-20.091 6.727-20.091 6.727z" transform="translate(-8.01 -2.615)" style="fill:#228191"/>
                    <path data-name="패스 7590" d="M88.593 35.09a.969.969 0 0 1-.157-.013 1.735 1.735 0 0 1-1.075-.858.19.19 0 1 1 .334-.181c0 .006.328.591.8.663a.913.913 0 0 0 .757-.323.191.191 0 0 1 .266.274 1.341 1.341 0 0 1-.927.439" transform="translate(-10.202 -3.964)" style="fill:#d85a5e"/>
                    <path data-name="패스 7591" d="M78.584.034a.8.8 0 0 1 .992.542l.574 1.836a.782.782 0 1 1-1.492.469l-.578-1.838a.8.8 0 0 1 .5-1.009" transform="translate(-9.116)" style="fill:#ffa08b"/>
                    <path data-name="패스 7592" d="M76.92.217a.96.96 0 0 1 1.158.7l.717 2.29a.958.958 0 0 1-.553 1.233.958.958 0 0 1-1.157-.7l-.718-2.288A.96.96 0 0 1 76.92.217" transform="translate(-8.915 -.021)" style="fill:#ffa08b"/>
                    <path data-name="패스 7593" d="M75.238.821a.96.96 0 0 1 1.158.7l.717 2.288a.9.9 0 1 1-1.711.538l-.718-2.292a.959.959 0 0 1 .554-1.234" transform="translate(-8.718 -.092)" style="fill:#ffa08b"/>
                    <path data-name="패스 7594" d="M73.767 1.5a.841.841 0 0 1 1.087.47l.546 1.755a.906.906 0 0 1-1.711.536l-.549-1.752a.842.842 0 0 1 .627-1.009" transform="translate(-8.54 -.17)" style="fill:#ffa08b"/>
                    <path data-name="패스 7595" d="m71.556 1.946 1.666 2.989-2.935 3.273a19.347 19.347 0 0 1-4.087-3.84c.881-.8 5.358-2.422 5.358-2.422" transform="translate(-7.733 -.227)" style="fill:#ffa08b"/>
                    <path data-name="패스 7596" d="M70.713 2.767a.8.8 0 1 0 .243-1.112.8.8 0 0 0-.243 1.112" transform="translate(-8.245 -.178)" style="fill:#ffa08b"/>
                    <path data-name="패스 7597" d="M69.089 3.173a.806.806 0 1 0 .244-1.113.807.807 0 0 0-.244 1.113" transform="translate(-8.056 -.226)" style="fill:#ffa08b"/>
                    <path data-name="패스 7598" d="M67.582 3.785a.805.805 0 1 0 .242-1.113.8.8 0 0 0-.242 1.113" transform="translate(-7.88 -.297)" style="fill:#ffa08b"/>
                    <path data-name="패스 7599" d="M66.245 4.644a.805.805 0 1 0 .243-1.113.806.806 0 0 0-.243 1.113" transform="translate(-7.723 -.397)" style="fill:#ffa08b"/>
                </g>
            </g>
        </g>
    </g>
</svg>
