<svg xmlns="http://www.w3.org/2000/svg" width="72" height="72" viewBox="0 0 72 72">
    <defs>
        <clipPath id="qa7dyw5mca">
            <rect data-name="#!IMAGE" width="72" height="72" rx="36" transform="translate(684 1228)" style="fill:#fff"/>
        </clipPath>
        <clipPath id="vj1q436s2b">
            <path data-name="사각형 2432" style="fill:none" d="M0 0h131.47v194.311H0z"/>
        </clipPath>
    </defs>
    <g data-name="그룹 4226" transform="translate(-384 -1109)">
        <rect data-name="#!IMAGE" width="72" height="72" rx="36" transform="translate(384 1109)" style="fill:#ffe3d8"/>
        <g data-name="마스크 그룹 265" transform="translate(-300 -119)" style="clip-path:url(#qa7dyw5mca)">
            <g data-name="그룹 4067">
                <g data-name="그룹 4066" style="clip-path:url(#vj1q436s2b)" transform="translate(652 1234)">
                    <path data-name="패스 8011" d="M1.837 181.247c-9.184 12.313 17.285 11.729 52.107 12.688s84.443.825 76.723-9.708c-8.9-12.147-25.7-11.414-60.523-12.372s-57.835-4.644-68.307 9.392" style="fill:#aece79"/>
                    <path data-name="패스 8012" d="M88.561 134.554S86.854 167.34 86.7 167.9l-8.577.1-2.607-33.779z" style="fill:#ff9c90"/>
                    <path data-name="패스 8013" d="m87.007 163.274-.173 10.626-8.856-.469-.244-10.468s5 1.875 9.273.31" style="fill:#e3d3c3"/>
                    <path data-name="패스 8014" d="m82.744 173.684-.852-.045.055-9.8c.277.023.562.039.853.048z" style="fill:#c5b0a8"/>
                    <path data-name="패스 8015" d="M79.5 163.464c.262.059.549.116.853.17l-.056 9.92-.854-.045z" style="fill:#c5b0a8"/>
                    <path data-name="패스 8016" d="m85.235 173.816-.852-.045.056-9.935c.283-.027.569-.064.853-.113z" style="fill:#c5b0a8"/>
                    <path data-name="패스 8017" d="M75.516 134.218a6.525 6.525 0 1 0 6.69-6.35 6.519 6.519 0 0 0-6.69 6.35" style="fill:#ffa08b"/>
                    <path data-name="사각형 2425" transform="translate(77.2 179.243)" style="fill:#133b56" d="M0 0h18.761v1.07H0z"/>
                    <path data-name="패스 8018" d="m77.2 179.243 18.754-.05a5.3 5.3 0 0 0-1.481-3.888 7.677 7.677 0 0 0-4.869-2.048c-.675-.078-2.724-2.2-2.724-2.2l-9.083.111a35.616 35.616 0 0 0-.6 8.07" style="fill:#1c8186"/>
                    <path data-name="패스 8019" d="M89.761 173.276a7.55 7.55 0 0 1 4.713 2.029 5.3 5.3 0 0 1 1.48 3.888l-12.075.033a6.826 6.826 0 0 1 5.882-5.95" style="fill:#1caba9"/>
                    <path data-name="패스 8020" d="M73.711 127.482 70.684 90.52l18.211-10.442s1.811 47.232 1.842 47.571z" style="fill:#c5b0a8"/>
                    <path data-name="패스 8021" d="M73.7 126.853a8.536 8.536 0 1 0 8.581-8.484 8.528 8.528 0 0 0-8.581 8.484" style="fill:#c5b0a8"/>
                    <path data-name="패스 8022" d="M90.744 126.546s.9 21.858-.6 29.187c-.727 3.552-13.963 3.6-14.495.385-1.556-9.385-1.963-28.87-1.963-28.87z" style="fill:#c5b0a8"/>
                    <path data-name="패스 8023" d="M73.686 127.248a8.536 8.536 0 1 0 8.18-8.874 8.53 8.53 0 0 0-8.18 8.874" style="fill:#c5b0a8"/>
                    <path data-name="패스 8024" d="M64.578 132.882s-15.6 30.57-15.978 31.018l-7.532-3.014 11.777-33.72z" style="fill:#ff9c90"/>
                    <path data-name="패스 8025" d="M52.845 127.166a6.525 6.525 0 1 0 8.723-3 6.519 6.519 0 0 0-8.723 3" style="fill:#ffa08b"/>
                    <path data-name="패스 8026" d="m51.284 159.4-4.436 9.659-7.918-3.994 3.989-9.681s3.829 3.731 8.365 4.016" style="fill:#e3d3c3"/>
                    <path data-name="패스 8027" d="m43.191 167.212-.763-.384 3.994-8.946c.246.131.5.261.762.386z" style="fill:#c5b0a8"/>
                    <path data-name="패스 8028" d="M44.332 156.55c.216.159.454.327.712.5L41 166.107l-.763-.386z" style="fill:#c5b0a8"/>
                    <path data-name="패스 8029" d="m45.417 168.336-.764-.385 4.053-9.071q.4.133.827.24z" style="fill:#c5b0a8"/>
                    <path data-name="패스 8030" d="m51.422 126.2 8.227-38.289L79.3 91.4s-11.465 39.23-11.528 39.564z" style="fill:#e3d3c3"/>
                    <path data-name="패스 8031" d="M51.583 125.593a8.534 8.534 0 1 0 10.552-5.852 8.525 8.525 0 0 0-10.552 5.852" style="fill:#e3d3c3"/>
                    <path data-name="패스 8032" d="M54.535 154.508s9.693-14.156 13.234-23.547l-16.185-5.368-7.761 22.039s-1.092 3.27 3.878 6.041a8.509 8.509 0 0 0 6.834.835" style="fill:#e3d3c3"/>
                    <path data-name="패스 8033" d="M51.583 125.593a8.534 8.534 0 1 0 10.552-5.852 8.525 8.525 0 0 0-10.552 5.852" style="fill:#e3d3c3"/>
                    <path data-name="패스 8034" d="M87.235 30.859a4.821 4.821 0 1 1 3.7 5.66 4.8 4.8 0 0 1-3.7-5.66" style="fill:#f68f82"/>
                    <path data-name="패스 8035" d="M88.43 12.291c-1.289-1.648-5.765-.953-5.191 1.067 3.238 11.383 1.634 11.949 4.224 20.238l9.086-3.126c-.923-3.657-2.817-11.4-8.119-18.179" style="fill:#f68f82"/>
                    <path data-name="패스 8036" d="M70.861 43.7c-4.678.616-10.542-10.06-.072-12.252 6.5-1.364 16.1-3.613 20.241-4.219l2.741 9.2c-3.017 1.6-13.581 6.05-22.91 7.275" style="fill:#f68f82"/>
                    <path data-name="패스 8037" d="M92.466 27.15a4.821 4.821 0 1 1-5.192 4.335 4.8 4.8 0 0 1 5.192-4.335" style="fill:#f68f82"/>
                    <path data-name="패스 8038" d="M63.736 41.7a8.093 8.093 0 0 1 4.559-10.5l12.068-3.642s2.384.707 4.576 6.213c2.27 5.7.923 6.911.923 6.911l-11.625 5.577a8.1 8.1 0 0 1-10.5-4.557" style="fill:#228a91"/>
                    <path data-name="패스 8039" d="M90.6 11.258 89.515 14.9s-4.12-.206-5.155-.961-.552-3.68-.552-3.68z" style="fill:#f68f82"/>
                    <path data-name="패스 8040" d="M87.1 73.478c2.692 2.565 1.922 12.1 1.922 12.1S73.571 99.016 58.834 91.3c0 0-1.051-10.879 3.19-15.526 4.3-4.706 20.392-6.754 25.073-2.292" style="fill:#e3d3c3"/>
                    <path data-name="패스 8041" d="m78.21 84.514-.255-.815a1.266 1.266 0 0 0 .829-.743c.639-1.482-.566-4.568-1.085-5.632l.767-.375c.084.17 2.027 4.2 1.1 6.344a2.1 2.1 0 0 1-1.358 1.221" style="fill:#c5b0a8"/>
                    <path data-name="패스 8042" d="m79.543 93.7-.854-.025a30.308 30.308 0 0 0-3.913-15.91l.717-.464a30.59 30.59 0 0 1 4.05 16.4" style="fill:#c5b0a8"/>
                    <path data-name="패스 8043" d="M58.814 85.619c2.921.3 5.1-.258 6.452-1.671 2.1-2.191 1.569-5.753 1.564-5.789l.842-.134c.026.162.609 4.008-1.786 6.509a7.443 7.443 0 0 1-5.617 2.022c-.478 0-.983-.031-1.507-.083.013-.278.031-.564.052-.854" style="fill:#c5b0a8"/>
                    <path data-name="패스 8044" d="m83.958 74.7.853.03c0 .043-.121 4.316 2.069 6.277a3.824 3.824 0 0 0 2.235.949c.006.292.006.575.005.846a4.684 4.684 0 0 1-2.812-1.161c-2.487-2.23-2.357-6.75-2.35-6.941" style="fill:#c5b0a8"/>
                    <path data-name="패스 8045" d="M70.277 79.472c10.93 0 16.534-5.274 16.872-5.6l-.866-2.617c-.384.363-10.327 8.805-25.374 4.312l-.244 2.393a34.494 34.494 0 0 0 9.612 1.508" style="fill:#7a2e38"/>
                    <path data-name="사각형 2426" transform="rotate(-84.72 74.153 5.988)" style="fill:#e3d3c3" d="M0 0h3.653v1.707H0z"/>
                    <path data-name="사각형 2427" transform="rotate(-6.971 664.04 -547.276)" style="fill:#e3d3c3" d="M0 0h1.707v3.654H0z"/>
                    <path data-name="사각형 2428" transform="rotate(-11.527 409.643 -364.309)" style="fill:#e3d3c3" d="M0 0h1.707v3.655H0z"/>
                    <path data-name="패스 8046" d="M57.1 56.337C53.585 46.17 48.606 37.474 61.455 32.5c3.336-1.3 7.745-2.5 10.323-1.479 12.845 5.1 15.328 35.26 15.369 38.5.1 8.072-26.184 10.633-27.429 4.952-1.9-8.68.021-10.5-2.618-18.138" style="fill:#22acac"/>
                    <path data-name="패스 8047" d="M62.025 75.2c-.729-1.989.156-5.744 1.378-5.494 1.443.294 1.12 6.482 4.844 5.321 2.23-.7.092-3.339 1.9-3.765 1.315-.311 2.733 2.753 5.368 2.91 2.681.16 1.577-4.776 1.919-6.306 1.012-4.525 8.8 12 3.961-10.5-1.218-5.645-5.149-20.844-10.362-26.566a4.853 4.853 0 0 1 .745.219c12.846 5.1 15.328 35.26 15.369 38.5.1 7.957-25.435 10.557-27.358 5.19a18.837 18.837 0 0 0 2.236.485" style="fill:#229ba2"/>
                    <path data-name="패스 8048" d="M55.339 48.491C53.994 44.229 77 35.441 78.8 41.086c1.865 5.849.819 9.7.819 9.7l-14.126 2.99a8.094 8.094 0 0 1-10.154-5.285" style="fill:#229ba2"/>
                    <path data-name="패스 8049" d="M54.764 39.512c0 3.653 3.267 6.617 7.3 6.617s7.3-2.964 7.3-6.617-3.268-6.618-7.3-6.618-7.3 2.963-7.3 6.618" style="fill:#fa9086"/>
                    <path data-name="사각형 2429" transform="translate(55.966 31.671)" style="fill:#fa9086" d="M0 0h9.85v7.228H0z"/>
                    <path data-name="패스 8050" d="M55.966 31.671h9.85v4.7a7.111 7.111 0 0 1-9.85-2.134z" style="fill:#e67c72"/>
                    <path data-name="패스 8051" d="M52.662 26.379a4.975 4.975 0 0 0 3.223 5.178 19.618 19.618 0 0 1-.9-5.521z" style="fill:#813029"/>
                    <path data-name="패스 8052" d="M70.868 24.209a5.175 5.175 0 0 1-1.636 3.958C68.5 23.34 66.97 22.19 66.97 22.19z" style="fill:#813029"/>
                    <path data-name="패스 8053" d="m70.214 17.738-.913 11.883a7.54 7.54 0 0 1-15.026-1.154l.914-11.883z" style="fill:#ffa08b"/>
                    <path data-name="패스 8054" d="M66.7 23.93c1.472 2.251-2.791 3.376-3.8-.017-1.964 2.821-5.944 1.126-5.677-.088-1.112 1.149-5.957 5.555-4.418-1.831a14.314 14.314 0 0 1 1.477-3.319L65.063 16.9z" style="fill:#813029"/>
                    <path data-name="패스 8055" d="M63.6 32.017a1.905 1.905 0 0 1-1.3-.166.229.229 0 0 1-.107-.309.233.233 0 0 1 .309-.106 1.6 1.6 0 0 0 .95.144.363.363 0 0 0 .209-.232 4.332 4.332 0 0 0-.254-2.516 13.25 13.25 0 0 1-.458-2.061.231.231 0 1 1 .458-.054 12.622 12.622 0 0 0 .444 1.992 4.635 4.635 0 0 1 .244 2.8.836.836 0 0 1-.5.51" style="fill:#d85a5e"/>
                    <path data-name="패스 8056" d="M60.07 26.816a.646.646 0 1 1-.525-.86.723.723 0 0 1 .525.86" style="fill:#511324"/>
                    <path data-name="패스 8057" d="M67.159 27.465a.644.644 0 1 1-.523-.86.719.719 0 0 1 .523.86" style="fill:#511324"/>
                    <path data-name="패스 8058" d="M67.685 26.846a.138.138 0 0 1-.08.025l-2.078.011a.142.142 0 0 1 0-.283l2.078-.011a.142.142 0 0 1 .082.258" style="fill:#511324"/>
                    <path data-name="패스 8059" d="M60.753 26.287a.153.153 0 0 1-.083.015l-2.062-.251a.144.144 0 0 1-.123-.16.141.141 0 0 1 .159-.122l2.061.251a.141.141 0 0 1 .122.157.138.138 0 0 1-.074.11" style="fill:#511324"/>
                    <path data-name="패스 8060" d="M63.642 10.645A9.292 9.292 0 0 1 71.6 21.088s-11.2-2.352-19.056 2.349c0 0-.465-2.781-.537-3.507-.768-7.868 6.688-9.806 11.635-9.285" style="fill:#ff6043"/>
                    <path data-name="패스 8061" d="M56.013 25.615c-.184 1.245-1.208 2.689-2.2 2.542s-1.58-1.828-1.4-3.073a1.864 1.864 0 1 1 3.6.531" style="fill:#ffa08b"/>
                    <path data-name="패스 8062" d="M54.388 26.855a.446.446 0 0 1-.059-.009.184.184 0 0 1-.109-.233 2.5 2.5 0 0 0-.475-2.7.182.182 0 0 1-.015-.255.18.18 0 0 1 .255-.016 2.83 2.83 0 0 1 .577 3.089.185.185 0 0 1-.174.122" style="fill:#d85a5e"/>
                    <path data-name="패스 8063" d="M71.6 21.088s4.569 2.877 3.816 4.44C74.035 28.391 54.4 22.476 54.4 22.476s9-5.276 17.2-1.388" style="fill:#ee4533"/>
                    <path data-name="패스 8064" d="M53.845 13.633c3.05 1.021 4.229 5.644 4.638 7.989l-.435.109c-.406-2.29-1.579-6.9-4.518-7.732.1-.127.206-.249.315-.366" style="fill:#ee4533"/>
                    <path data-name="패스 8065" d="M69.031 20.817c-.152-.01-.309-.02-.474-.028-.54-1.785-1.444-5.6-.317-8.186.122.1.243.2.359.309-1 2.521-.064 6.284.432 7.9" style="fill:#ee4533"/>
                    <path data-name="패스 8066" d="M55.614 28.534a1.66 1.66 0 1 0 1.659-1.659 1.659 1.659 0 0 0-1.659 1.659" style="fill:#ff8581"/>
                    <path data-name="패스 8067" d="M65.788 29.826a1.658 1.658 0 1 0 1.658-1.659 1.658 1.658 0 0 0-1.658 1.659" style="fill:#ff8581"/>
                    <path data-name="패스 8068" d="M61.583 33.679a1.852 1.852 0 0 1-1.378-.51 1.973 1.973 0 0 1-.513-1.307.2.2 0 0 1 .224-.214.22.22 0 0 1 .215.223 1.536 1.536 0 0 0 .389 1 1.473 1.473 0 0 0 1.079.375.218.218 0 0 1 .219.217.223.223 0 0 1-.235.221" style="fill:#d85a5e"/>
                    <path data-name="패스 8069" d="M81.822 50.788a.026.026 0 0 1 0 .052.026.026 0 0 1 0-.052"/>
                    <path data-name="패스 8070" d="M81.3 34.625a4.821 4.821 0 1 1 3.556 5.755 4.8 4.8 0 0 1-3.556-5.755" style="fill:#ffa08b"/>
                    <path data-name="패스 8071" d="M80.7 14.517c-1.246-1.681-6.412-1.388-5.893.646 2.941 11.465 4.275 13.851 6.647 22.2l9.164-2.887c-.827-3.68-4.795-13.05-9.918-19.963" style="fill:#ffa08b"/>
                    <path data-name="패스 8072" d="M62.289 50.721c-4.593 1.087-9.134-9.065-3.942-11.189 6.145-2.514 21.977-7.241 26.036-8.262l3.659 8.87c-2.837 1.9-16.6 8.418-25.753 10.581" style="fill:#ffa08b"/>
                    <path data-name="패스 8073" d="M85.805 31.044a4.822 4.822 0 1 1-4.726 4.839 4.8 4.8 0 0 1 4.726-4.839" style="fill:#ffa08b"/>
                    <path data-name="패스 8074" d="M54.348 46.758A8.093 8.093 0 0 1 59.634 36.6l13.243-3.234s2.329.874 4.127 6.519c1.865 5.849.747 7.916.747 7.916L64.5 52.043a8.1 8.1 0 0 1-10.155-5.285" style="fill:#4acac1"/>
                    <path data-name="패스 8075" d="M69.4 34.221c.942.806 2.472 2.642 3.758 6.679 1.41 4.424 1.28 6.9 1.048 8.04l-.478.153c.231-.912.525-3.351-.977-8.063-1.384-4.345-3.06-6.061-3.882-6.681z" style="fill:#22acac"/>
                    <path data-name="패스 8076" d="M41.352 179.728h12.366v-1.069l-12.991.034z" style="fill:#133b56"/>
                    <path data-name="패스 8077" d="m36.018 170.384 5.616 8.308 12.077-.033s-1.5-2.408-3.821-5.383L47.328 168l-8.02-3.852s-3.29 2.423-3.29 6.239" style="fill:#1c8186"/>
                    <path data-name="패스 8078" d="M47.515 172.742a6.711 6.711 0 0 1 4.715 2.029 5.312 5.312 0 0 1 1.481 3.888l-12.077.033c.445-3.152 2.841-5.97 5.881-5.95" style="fill:#1caba9"/>
                    <path data-name="패스 8079" d="m36.047 169.775 6.593 9.468h-1.572l-5.317-8.514z" style="fill:#133b56"/>
                    <path data-name="사각형 2430" transform="rotate(-83.144 6.476 -4.007)" style="fill:#6b6d84" d="M0 0h1.163v82.278H0z"/>
                    <path data-name="패스 8080" d="M1.84 7.235c-.076 2.274 3.427 2.825 4.73.386s2.01-4.713 2.6-4.667 3.142.4 3.142.4l-.018-1.249s-4.158-2.669-5.95-2S1.929 4.6 1.84 7.235" style="fill:#6b6d84"/>
                    <path data-name="패스 8081" d="M64.831 8.106a1.481 1.481 0 0 0-.365.8 1.453 1.453 0 0 0 1.269 1.617l25.53 3.081a1.454 1.454 0 0 0 .347-2.887L66.085 7.638a1.462 1.462 0 0 0-1.254.468" style="fill:#384350"/>
                    <path data-name="패스 8082" d="M82.408 9.7a1.1 1.1 0 0 1 1.488.466l1.215 2.316a1.1 1.1 0 1 1-1.953 1.025l-1.214-2.317a1.1 1.1 0 0 1 .464-1.49" style="fill:#f68f82"/>
                    <path data-name="패스 8083" d="M80.855 9.458v5.263l-5.77 1.5s-2.219-5.186-2.191-7.938c1.6-.267 7.961 1.173 7.961 1.173" style="fill:#ffa08b"/>
                    <path data-name="패스 8084" d="M78.649 9.458a1.1 1.1 0 1 0 1.1-1.1 1.1 1.1 0 0 0-1.1 1.1" style="fill:#ffa08b"/>
                    <path data-name="패스 8085" d="M76.733 8.811a1.1 1.1 0 1 0 1.1-1.1 1.1 1.1 0 0 0-1.1 1.1" style="fill:#ffa08b"/>
                    <path data-name="패스 8086" d="M74.8 8.449a1.1 1.1 0 1 0 1.1-1.1 1.1 1.1 0 0 0-1.1 1.1" style="fill:#ffa08b"/>
                    <path data-name="패스 8087" d="M72.878 8.449a1.1 1.1 0 1 0 1.1-1.1 1.1 1.1 0 0 0-1.1 1.1" style="fill:#ffa08b"/>
                    <path data-name="패스 8088" d="M89.411 8.877a.981.981 0 0 1 .874 1.075l-.2 2.36a.963.963 0 1 1-1.917-.161l.2-2.36a.982.982 0 0 1 1.045-.914" style="fill:#ffa08b"/>
                    <path data-name="패스 8089" d="M87.666 8.38a1.18 1.18 0 0 1 1 1.331l-.248 2.94a1.11 1.11 0 1 1-2.2-.183l.248-2.941a1.178 1.178 0 0 1 1.2-1.147" style="fill:#ffa08b"/>
                    <path data-name="패스 8090" d="M85.727 8.3a1.177 1.177 0 0 1 .993 1.332l-.247 2.939a1.11 1.11 0 1 1-2.2-.184l.247-2.939a1.181 1.181 0 0 1 1.2-1.148" style="fill:#ffa08b"/>
                    <path data-name="패스 8091" d="M83.973 8.381a1.038 1.038 0 0 1 1.021 1.042l-.19 2.25a1.115 1.115 0 0 1-2.2-.184l.189-2.251a1.036 1.036 0 0 1 1.178-.857" style="fill:#ffa08b"/>
                    <path data-name="패스 8092" d="M71.174 181.347a5.631 5.631 0 1 1-5.629-5.63 5.631 5.631 0 0 1 5.629 5.63" style="fill:#ffffe2"/>
                    <path data-name="패스 8093" d="M62.763 184a5.62 5.62 0 0 0 5.223-7.722 5.627 5.627 0 1 1-7.666 7.159 5.606 5.606 0 0 0 2.443.563" style="fill:#ecead3"/>
                    <path data-name="패스 8094" d="M68.927 187.55c0 .444-.253.8-.561.8h-5.625c-.31 0-.56-.36-.56-.8s.25-.8.56-.8h5.625c.308 0 .561.36.561.8" style="fill:#133b56"/>
                    <path data-name="사각형 2431" transform="translate(64.605 187.851)" style="fill:#133b56" d="M0 0h1.897v2.187H0z"/>
                </g>
            </g>
        </g>
    </g>
</svg>
