<svg xmlns="http://www.w3.org/2000/svg" width="72" height="72" viewBox="0 0 72 72">
    <defs>
        <clipPath id="twozx2rr5a">
            <rect data-name="#!IMAGE" width="72" height="72" rx="36" transform="translate(686 1108)" style="fill:#fff"/>
        </clipPath>
        <clipPath id="eijj0ahzsb">
            <path data-name="사각형 2400" style="fill:none" d="M0 0h145.902v167.999H0z"/>
        </clipPath>
    </defs>
    <g data-name="그룹 4221" transform="translate(-486 -1307)">
        <rect data-name="#!IMAGE" width="72" height="72" rx="36" transform="translate(486 1307)" style="fill:#dbf5e6"/>
        <g data-name="마스크 그룹 260" transform="translate(-200 199)" style="clip-path:url(#twozx2rr5a)">
            <g data-name="그룹 4057">
                <g data-name="그룹 4056" style="clip-path:url(#eijj0ahzsb)" transform="translate(653.049 1115)">
                    <path data-name="패스 7600" d="M.03 162.956c-.769 19.029 13.05 15.19 44.97 16.482s69.976 4.373 70.631-11.8c.6-14.756-11.274-13.6-43.2-14.892S.628 148.2.03 162.956" transform="translate(0 -12.551)" style="fill:#aece79"/>
                    <path data-name="패스 7601" d="M88.889 120.168a5.046 5.046 0 1 1-4.838-5.246 5.047 5.047 0 0 1 4.838 5.246" transform="translate(-6.527 -9.519)" style="fill:#ff9c90"/>
                    <path data-name="패스 7602" d="m78.045 86.772.7 30.657 10.084.408L91.945 87.6z" transform="translate(-6.465 -7.188)" style="fill:#ff9c90"/>
                    <path data-name="패스 7603" d="m78.045 86.772.7 30.657 10.084.408L91.945 87.6z" transform="translate(-6.465 -7.188)" style="fill:#ff9c90"/>
                    <path data-name="패스 7604" d="m78.512 107.226 11.639-.944.725-7.028-12.521 1.015z" transform="translate(-6.49 -8.222)" style="fill:#f3847f"/>
                    <path data-name="패스 7605" d="M88.889 120.168a5.046 5.046 0 1 1-4.838-5.246 5.047 5.047 0 0 1 4.838 5.246" transform="translate(-6.527 -9.519)" style="fill:#ff9c90"/>
                    <path data-name="패스 7606" d="m85.165 154.443 3.493-33.325-9.267-3.65s-2.7 4.469-3.019 12.453c-.245 6.094 2.8 24.28 2.8 24.28z" transform="translate(-6.325 -9.73)" style="fill:#ff9c90"/>
                    <path data-name="패스 7607" d="M76.609 136.579c.671 7.774 2.587 19.2 2.587 19.2l5.99.242 1.992-19.018s-.628.321-5.491.172a17.577 17.577 0 0 1-5.078-.6" transform="translate(-6.346 -11.313)" style="fill:#ff6043"/>
                    <path data-name="패스 7608" d="M68.872 119.9a5.046 5.046 0 1 1-4.146-5.807 5.048 5.048 0 0 1 4.146 5.807" transform="translate(-4.874 -9.445)" style="fill:#ff9c90"/>
                    <path data-name="패스 7609" d="m62.615 85.285-3.692 30.568s8.66 4.985 9.676 2.675c3.194-7.256 7.923-30.487 7.923-30.487z" transform="translate(-4.881 -7.064)" style="fill:#ff9c90"/>
                    <path data-name="패스 7610" d="m60.205 107.263 12.56-1.018c.558-2.224 1.09-4.462 1.572-6.558l-.044-.536-13.237 1.074z" transform="translate(-4.987 -8.213)" style="fill:#f3847f"/>
                    <path data-name="패스 7611" d="M67.947 121.652a5.048 5.048 0 1 1-1.748-6.92 5.053 5.053 0 0 1 1.748 6.92" transform="translate(-4.851 -9.445)" style="fill:#ff9c90"/>
                    <path data-name="패스 7612" d="m47.227 149.962 19.208-28.025-6.635-7.227s-4.5 2.641-8.595 9.5c-3.126 5.237-9.125 22.673-9.125 22.673z" transform="translate(-3.486 -9.502)" style="fill:#ff9c90"/>
                    <path data-name="패스 7613" d="M48.742 130.63c-3.073 7.15-6.661 17.577-6.661 17.577l5.146 3.074 10.74-15.67z" transform="translate(-3.486 -10.821)" style="fill:#ff6043"/>
                    <path data-name="사각형 2394" transform="rotate(-.154 55906.546 -26252.31)" style="fill:#8f979f" d="M0 0h17.024v.99H0z"/>
                    <path data-name="패스 7614" d="m77.155 163.059 17.019-.046a4.99 4.99 0 0 0-1.345-3.6 6.89 6.89 0 0 0-4.419-1.9 15.256 15.256 0 0 1-2.942-1.791L79 155.584s-1.862 2.139-1.847 7.475" transform="translate(-6.391 -12.888)" style="fill:#e0dbd4"/>
                    <path data-name="패스 7615" d="M89.1 157.708a6.78 6.78 0 0 1 4.276 1.879 4.985 4.985 0 0 1 1.345 3.6l-10.958.028a6.257 6.257 0 0 1 5.337-5.509" transform="translate(-6.938 -13.064)" style="fill:#f7eae3"/>
                    <path data-name="패스 7616" d="M63.05 77.449c0 7.63 6.784 13.815 15.154 13.815S93.36 85.079 93.36 77.449 86.575 63.633 78.2 63.633s-15.15 6.185-15.15 13.816" transform="translate(-5.223 -5.271)" style="fill:#ffdd9e"/>
                    <path data-name="패스 7617" d="m83.193 77.145-.222-.75 2.823-.834a19.575 19.575 0 0 0-.836-8.3L85.7 67a19.953 19.953 0 0 1 .838 8.929l-.04.242z" transform="translate(-6.873 -5.55)" style="fill:#fab577"/>
                    <path data-name="패스 7618" d="m81.876 81.6-.732-.279c3.268-8.552.231-13.949.2-14l.676-.394c.136.231 3.264 5.752-.145 14.676" transform="translate(-6.721 -5.544)" style="fill:#fab577"/>
                    <path data-name="패스 7619" d="M94.562 78.7C94 87.757 91.9 102.109 91.9 102.109s-2.472 1.305-7.693 1.013-6.659-1.838-6.659-1.838V83.1z" transform="translate(-6.424 -6.519)" style="fill:#fab577"/>
                    <path data-name="패스 7620" d="M77.151 104.719a29.68 29.68 0 0 0 15.48 0v-2.979a29.68 29.68 0 0 1-15.48 0z" transform="translate(-6.391 -8.428)" style="fill:#facc8d"/>
                    <path data-name="패스 7621" d="M64.638 73.474a31.122 31.122 0 0 0-4.2 10.65A71.061 71.061 0 0 0 59.33 99.3s0 1.324 6.586 2.469a30.866 30.866 0 0 0 7.4.611l6.021-20.57z" transform="translate(-4.911 -6.086)" style="fill:#ffdd9e"/>
                    <path data-name="패스 7622" d="m63.405 99.369-.781-.038c.765-15.713 8.531-29.937 8.61-30.078l.685.379c-.078.139-7.758 14.211-8.514 29.737" transform="translate(-5.187 -5.736)" style="fill:#fab577"/>
                    <path data-name="패스 7623" d="M76.141 26.453c-2.537-2.233-11.6.267-6.252 5.744 3.318 3.4 11.451 11.965 13.672 13.973l5.293-4.37a83.873 83.873 0 0 0-12.713-15.347" transform="translate(-5.652 -2.124)" style="fill:#f68f82"/>
                    <path data-name="패스 7624" d="M75.435 24.777c3.528 3.255 8.672 8.443 8.672 8.443s.338 2.033-2.489 4.683c-2.931 2.748-4.765 2.343-4.765 2.343l-8.446-7.536c.1-1.46 7.028-7.933 7.028-7.933" transform="translate(-5.666 -2.052)" style="fill:#d5463d"/>
                    <path data-name="패스 7625" d="M85.682 48.117a3.45 3.45 0 1 0-1.36-4.645 3.438 3.438 0 0 0 1.36 4.645" transform="translate(-6.95 -3.449)" style="fill:#f68f82"/>
                    <path data-name="패스 7626" d="M76.326 25.627a5.333 5.333 0 1 1-7.509-.7 5.333 5.333 0 0 1 7.509.7" transform="translate(-5.541 -1.963)" style="fill:#d5463d"/>
                    <path data-name="패스 7627" d="M85.626 48.081a3.451 3.451 0 1 0-1.264-4.675 3.437 3.437 0 0 0 1.264 4.675" transform="translate(-6.951 -3.449)" style="fill:#f68f82"/>
                    <path data-name="패스 7628" d="M96.414 58.706c.268 1.474-2.774 3.022-3.581 1.755-4.546-7.147-5.328-8.327-8.53-13.655l5.997-3.373a49.214 49.214 0 0 1 6.117 15.273" transform="translate(-6.983 -3.598)" style="fill:#f68f82"/>
                    <path data-name="패스 7629" d="m90.209 56.079 1.307 5.271 5.837-3.235-1.786-3.529z" transform="translate(-7.472 -4.522)" style="fill:#f68f82"/>
                    <path data-name="패스 7630" d="M87.381 59.778c-.835-2.116-2.778-11.437-5.523-17.6-.051-3.372-1.043-7.062-6.071-10.757-4.121-3.028-5.4-7.188-10.668-4.643-5.685 2.743-10.312 9.543-10.962 13.994-.174 1.188 6.737 10.139 9.091 16.754 1.5 4.224 1.194 7.262 2.7 8.757 2.29 2.266 23.907-.222 21.429-6.5" transform="translate(-4.486 -2.153)" style="fill:#ff6043"/>
                    <path data-name="패스 7631" d="M82.809 42.857a11.819 11.819 0 0 0-3.6-8.634c.6 2.663 2.251 8.034-2.127 10.243-2.973 1.5-10.282 4.3-8.325 5.75s11.48.216 12.524 2.008 4.207 9.2 2.691 9.933-5.3-2.01-4.909-.835-1.745 3.969-3.026 3.093-6.26-3.481-5.923-1.983 2.182 3.063 1 3.063c-.918 0-4.209-1.566-5.477-1.508a6.091 6.091 0 0 0 1.158 2.829c.154.133.32.265.5.4 3.637 1.8 23.424-.727 21.046-6.753-.835-2.115-2.778-11.436-5.523-17.6" transform="translate(-5.437 -2.835)" style="fill:#ee4533"/>
                    <path data-name="패스 7632" d="M56.4 46.412c-2.766-1.943-2.461-11.345 4.118-7.425C64.6 41.415 74.832 47.315 77.306 49l-3.013 6.173A83.861 83.861 0 0 1 56.4 46.412" transform="translate(-4.535 -3.151)" style="fill:#ffa08b"/>
                    <path data-name="패스 7633" d="M54.662 46.027c3.991 2.667 10.238 6.454 10.238 6.454s2.055-.149 3.969-3.517c1.984-3.493 1.161-5.183 1.161-5.183l-9.3-6.443c-1.4.436-6.065 8.689-6.065 8.689" transform="translate(-4.528 -3.093)" style="fill:#d5463d"/>
                    <path data-name="패스 7634" d="M79.67 50.608a3.451 3.451 0 1 1-4.835-.234 3.437 3.437 0 0 1 4.835.234" transform="translate(-6.103 -4.099)" style="fill:#ffa08b"/>
                    <path data-name="패스 7635" d="M55.648 46.737a5.332 5.332 0 1 0-2.437-7.137 5.331 5.331 0 0 0 2.437 7.136" transform="translate(-4.362 -3.033)" style="fill:#d5463d"/>
                    <path data-name="패스 7636" d="M79.376 49.888a3.45 3.45 0 1 1-4.648 1.354 3.436 3.436 0 0 1 4.648-1.354" transform="translate(-6.153 -4.097)" style="fill:#ffa08b"/>
                    <path data-name="패스 7637" d="M94.206 53.622c1.4-.537 1.137-3.94-.363-3.97-8.47-.162-9.885-.216-16.1-.179l.24 6.873a49.117 49.117 0 0 0 16.224-2.724" transform="translate(-6.44 -4.097)" style="fill:#ffa08b"/>
                    <path data-name="패스 7638" d="M69.412 29.119c.62 1.762.625 4.887-1.814 5.744s-5.447.367-6.067-1.4.853-3.886 3.291-4.744 3.97-1.367 4.59.4" transform="translate(-5.085 -2.314)" style="fill:#fa9086"/>
                    <path data-name="사각형 2395" transform="rotate(-37.196 67.67 -67.77)" style="fill:#fa9086" d="M0 0h6.357v6.358H0z"/>
                    <path data-name="패스 7639" d="M61.586 31.737a7.086 7.086 0 0 0 4.956-3.983l-1.5-1.976-5.064 3.844z" transform="translate(-4.968 -2.135)" style="fill:#e67c72"/>
                    <path data-name="패스 7640" d="m47.236 18.411 5.831 8.9a6.73 6.73 0 0 0 11.249-7.376l-5.832-8.894z" transform="translate(-3.913 -.914)" style="fill:#ffa08b"/>
                    <path data-name="패스 7641" d="M59.129 27.027a1.5 1.5 0 0 0 .827-.6.181.181 0 0 0-.3-.208 1.237 1.237 0 0 1-.6.457.28.28 0 0 1-.232-.079 3.366 3.366 0 0 1-.774-1.819 10.564 10.564 0 0 0-.465-1.585.18.18 0 0 0-.334.136 9.952 9.952 0 0 1 .448 1.533 3.616 3.616 0 0 0 .887 2.009.658.658 0 0 0 .533.161" transform="translate(-4.742 -1.912)" style="fill:#d85a5e"/>
                    <path data-name="패스 7642" d="M60.057 21.947a.576.576 0 1 0 .039-.9.641.641 0 0 0-.039.9" transform="translate(-4.961 -1.736)" style="fill:#511324"/>
                    <path data-name="패스 7643" d="M54.318 25.831a.576.576 0 1 0 .039-.9.642.642 0 0 0-.039.9" transform="translate(-4.486 -2.058)" style="fill:#511324"/>
                    <path data-name="패스 7644" d="M53.585 25.536a.159.159 0 0 0 .073-.015l1.628-.887a.127.127 0 0 0-.119-.224l-1.63.888a.127.127 0 0 0-.051.172.131.131 0 0 0 .1.066" transform="translate(-4.429 -2.021)" style="fill:#511324"/>
                    <path data-name="패스 7645" d="M59.227 21.787a.129.129 0 0 0 .07-.025l1.503-1.084a.127.127 0 0 0-.149-.205l-1.5 1.084a.128.128 0 0 0 .077.23" transform="translate(-4.895 -1.694)" style="fill:#511324"/>
                    <path data-name="패스 7646" d="M64.423 21.34a1.48 1.48 0 1 1-2.01-.581 1.48 1.48 0 0 1 2.01.581" transform="translate(-5.106 -1.704)" style="fill:#ff8581"/>
                    <path data-name="패스 7647" d="M56.359 27.218a1.48 1.48 0 1 1-2.011-.582 1.482 1.482 0 0 1 2.011.582" transform="translate(-4.438 -2.191)" style="fill:#ff8581"/>
                    <path data-name="패스 7648" d="M61.371 28.034a.2.2 0 0 1-.093-.367 1.284 1.284 0 0 0 .682-.761 1.344 1.344 0 0 0-.126-.94.2.2 0 0 1 .072-.267.2.2 0 0 1 .267.071 1.754 1.754 0 0 1 .163 1.243 1.657 1.657 0 0 1-.871 1 .189.189 0 0 1-.094.025" transform="translate(-5.068 -2.127)" style="fill:#d85a5e"/>
                    <path data-name="패스 7649" d="M0 2.557A9.629 9.629 0 0 1 1.98 0l.391.54S1.157 1.508 0 2.557" transform="rotate(14 -58.163 206.739)" style="fill:#813029"/>
                    <path data-name="패스 7650" d="M3.2.013A9.64 9.64 0 0 0 0 .487l.281.606S1.72.508 3.2.013" transform="rotate(-14.98 96.191 -192.075)" style="fill:#813029"/>
                    <path data-name="사각형 2396" transform="rotate(-30.9 144.469 -114.684)" style="fill:#6b6d84" d="M0 0h72.404v1.024H0z"/>
                    <path data-name="패스 7651" d="M157.279 14.643c-1.175-1.622-3.906-.113-3.494 2.286s1.146 4.361.714 4.646-2.193 1.5-2.193 1.5l.478.776s4.33-.391 5.214-1.825.642-5.5-.719-7.383" transform="translate(-12.616 -1.157)" style="fill:#384350"/>
                    <path data-name="패스 7652" d="M107.5 50.993a1.279 1.279 0 0 0-1.932-1.193L86.161 61.438a1.28 1.28 0 0 0 1.317 2.2L106.882 52a1.275 1.275 0 0 0 .618-1" transform="translate(-7.086 -4.11)" style="fill:#384350"/>
                    <path data-name="패스 7653" d="M66.427 0a6.738 6.738 0 0 0-3.1 1.4c-1.39 1.174-2.25 2.413-3.619 1.989a5.855 5.855 0 0 0-5.014.765 3.87 3.87 0 0 0 2.065 7.146c.113 0 .221-.025.332-.034.966.408 5.612 2.26 7.024.848 2.475-2.479 4.794 1.956 6.355-.814z" transform="translate(-4.381)" style="fill:#651b24"/>
                    <path data-name="패스 7654" d="M53.459 9.522a3.787 3.787 0 0 0 .566.771 8.24 8.24 0 0 1 .508-1.318 7.373 7.373 0 0 1 1.932-2.7c.625-.468 1.382-.188 2.183.106l.419.154a2.726 2.726 0 0 0 1.354.252 2.517 2.517 0 0 0 1.507-1.056A8.021 8.021 0 0 1 64.7 3.268a3.661 3.661 0 0 1 2.873-.017l-.327-.912a4.29 4.29 0 0 0-2.866.216 8.783 8.783 0 0 0-3.073 2.7 1.8 1.8 0 0 1-1 .759 2.089 2.089 0 0 1-.967-.209l-.426-.158a2.926 2.926 0 0 0-2.921 0 8.065 8.065 0 0 0-2.167 2.986 9.528 9.528 0 0 0-.37.887" transform="translate(-4.428 -.181)" style="fill:#813029"/>
                    <path data-name="패스 7655" d="M60.256 9.225c0 1.241-1.88 2.246-4.2 2.246s-4.2-1.005-4.2-2.246 1.878-2.244 4.2-2.244 4.2 1 4.2 2.244" transform="translate(-4.296 -.578)" style="fill:#fab577"/>
                    <path data-name="패스 7656" d="M69.9 9.112a1.835 1.835 0 0 1-1.912.363 21.373 21.373 0 0 1-.5-.228 5.233 5.233 0 0 0-2-.629 4.156 4.156 0 0 0-3.1 1.207 3.475 3.475 0 0 0-.442.581 3.063 3.063 0 0 1-.321.436 7.145 7.145 0 0 1-.988.812 4.121 4.121 0 0 1-2.061.724c.415.152.907.318 1.436.472a4.593 4.593 0 0 0 1.082-.561 7.759 7.759 0 0 0 1.1-.906 3.768 3.768 0 0 0 .409-.547 2.813 2.813 0 0 1 .343-.459 3.334 3.334 0 0 1 2.513-.977 4.586 4.586 0 0 1 1.7.555c.178.083.352.165.525.239a2.551 2.551 0 0 0 2.495-.32z" transform="translate(-4.852 -.714)" style="fill:#813029"/>
                    <path data-name="패스 7657" d="M51.441 9.173c-4.193 2.077-6.533 7.927-4.569 11.207 0 0 8.074-3.765 9.82-3.953 4.316 2.8 5.688 2.056 6.674.149.667-1.293-.6-3.657-1.156-4.742-1.571-3.069-6.58-4.74-10.77-2.661" transform="translate(-3.824 -.683)" style="fill:#813029"/>
                    <path data-name="패스 7658" d="M62.994 18.863c.681.892 2.1 1.581 2.817 1.037s.447-2.108-.234-3a1.86 1.86 0 0 0-2.52-.632 1.864 1.864 0 0 0-.062 2.6" transform="translate(-5.177 -1.324)" style="fill:#ffa08b"/>
                    <path data-name="패스 7659" d="m64.9 19.165.04-.032a.165.165 0 0 0-.016-.23 2.226 2.226 0 0 1-.79-2.313.164.164 0 0 0-.1-.206.161.161 0 0 0-.208.1 2.529 2.529 0 0 0 .88 2.663.169.169 0 0 0 .19.022" transform="translate(-5.28 -1.356)" style="fill:#d85a5e"/>
                    <path data-name="사각형 2397" transform="rotate(-26.373 61.519 -81.03)" style="fill:#c5b0a8" d="M0 0h18.244v1.626H0z"/>
                    <path data-name="패스 7660" d="M68.09 34.994s-5.195-.781-7.6-2.2l-.812 2.718s4.834 1.666 8.41-.52" transform="translate(-4.944 -2.717)" style="fill:#d5463d"/>
                    <path data-name="패스 7661" d="M68.779 34.584a42.007 42.007 0 0 0-.787-7.416l2.569-.306s1.309 4.889-1.782 7.723" transform="translate(-5.632 -2.225)" style="fill:#d5463d"/>
                    <path data-name="사각형 2398" transform="translate(34.185 150.171)" style="fill:#8f979f" d="M0 0h11.445v.991H0z"/>
                    <path data-name="패스 7662" d="m37.986 160.524 9.315-.553.88-9.192-5.649-3.445c-4.545 3.294-4.545 13.19-4.545 13.19" transform="translate(-3.147 -12.204)" style="fill:#e0dbd4"/>
                    <path data-name="패스 7663" d="M43.025 158.855c3.161 0 5.7 1.313 5.7 4.474H37.273c0-3.161 2.591-4.474 5.752-4.474" transform="translate(-3.087 -13.159)" style="fill:#f7eae3"/>
                    <path data-name="패스 7664" d="M70.415 77.649a12.2 12.2 0 0 1-1.846-.149l.12-.774c2.48.386 4.448-.021 5.85-1.208a7.64 7.64 0 0 0 2.3-5.185l.783.009a8.332 8.332 0 0 1-2.574 5.774 6.935 6.935 0 0 1-4.63 1.533" transform="translate(-5.68 -5.826)" style="fill:#fab577"/>
                    <path data-name="패스 7665" d="M101.6 56.238s-4.484-1.951-6.35-2.563c-.639-.6-1.22-3.47-.017-4.1 5.43-2.852 10.535.784 12.195 2.567-.867 1.149-5.828 4.1-5.828 4.1" transform="translate(-7.831 -4.019)" style="fill:#ffa08b"/>
                    <path data-name="패스 7666" d="M103.63 55.442a.976.976 0 1 0-.035 1.379.975.975 0 0 0 .035-1.379" transform="translate(-8.445 -4.567)" style="fill:#ffa08b"/>
                    <path data-name="패스 7667" d="M105.4 54.622a.976.976 0 1 0-.034 1.378.978.978 0 0 0 .036-1.379" transform="translate(-8.591 -4.499)" style="fill:#ffa08b"/>
                    <path data-name="패스 7668" d="M107 53.591a.976.976 0 1 0-.037 1.379.975.975 0 0 0 .037-1.379" transform="translate(-8.723 -4.414)" style="fill:#ffa08b"/>
                    <path data-name="패스 7669" d="M108.34 52.317a.975.975 0 1 0-.034 1.379.975.975 0 0 0 .034-1.379" transform="translate(-8.835 -4.308)" style="fill:#ffa08b"/>
                    <path data-name="패스 7670" d="M99.4 58.289c-.7 1.028-2.33-.118-2.723-.4l-3.3-.7c-.393-.284 1.166-1.391 1.482-1.833a.936.936 0 0 1 1.284-.287l1.686 1.219c.392.286 2.274.979 1.573 2.006" transform="translate(-7.73 -4.549)" style="fill:#f68f82"/>
                    <path data-name="패스 7671" d="M92.57 63.869a1.008 1.008 0 0 1-1.331-.431l-.905-1.984a.954.954 0 0 1 .565-1.245 1.007 1.007 0 0 1 1.332.428l.9 1.987a.952.952 0 0 1-.565 1.244" transform="translate(-7.477 -4.98)" style="fill:#ffa08b"/>
                    <path data-name="패스 7672" d="M94.476 63.4a1.2 1.2 0 0 1-1.561-.575l-1.132-2.475a1.133 1.133 0 0 1 .611-1.508 1.2 1.2 0 0 1 1.566.577l1.125 2.473a1.131 1.131 0 0 1-.609 1.509" transform="translate(-7.595 -4.866)" style="fill:#ffa08b"/>
                    <path data-name="패스 7673" d="M96.326 62.05a1.2 1.2 0 0 1-1.561-.577L93.637 59a1.132 1.132 0 0 1 .608-1.508 1.2 1.2 0 0 1 1.564.576l1.127 2.475a1.13 1.13 0 0 1-.61 1.509" transform="translate(-7.748 -4.754)" style="fill:#ffa08b"/>
                    <path data-name="패스 7674" d="M97.741 60.55a1.094 1.094 0 0 1-1.45-.334l-.862-1.891c-.2-.442.121-1.008.722-1.268a1.1 1.1 0 0 1 1.452.332l.864 1.895c.2.442-.124 1.008-.725 1.266" transform="translate(-7.9 -4.716)" style="fill:#ffa08b"/>
                    <path data-name="패스 7675" d="M58.412 102.2a28.593 28.593 0 0 0 14.842 3.238q.316-1.456.636-2.911a28.611 28.611 0 0 1-14.843-3.236q-.316 1.453-.635 2.909" transform="translate(-4.838 -8.225)" style="fill:#ffeab5"/>
                    <path data-name="패스 7676" d="M46.745 21.176C45.9 23.2 44.332 26.6 49.6 24.005c6.624-3.265 11.347-7.358 10.158-9.142z" transform="translate(-3.798 -1.231)" style="fill:#e3d3c3"/>
                    <path data-name="패스 7677" d="M73.215 165.349a5.165 5.165 0 1 1-5.164-5.165 5.164 5.164 0 0 1 5.164 5.165" transform="translate(-5.209 -13.269)" style="fill:#ffffe2"/>
                    <path data-name="패스 7678" d="M65.534 167.83a5.161 5.161 0 0 0 4.792-7.083 5.162 5.162 0 1 1-7.033 6.566 5.126 5.126 0 0 0 2.241.517" transform="translate(-5.243 -13.315)" style="fill:#ecead3"/>
                    <path data-name="패스 7679" d="M71.341 171.951c0 .406-.23.736-.515.736h-5.16c-.283 0-.513-.33-.513-.736s.229-.738.513-.738h5.16c.284 0 .515.331.515.738" transform="translate(-5.397 -14.182)" style="fill:#133b56"/>
                    <path data-name="사각형 2399" transform="translate(61.98 158.044)" style="fill:#133b56" d="M0 0h1.74v2.006H0z"/>
                </g>
            </g>
        </g>
    </g>
</svg>
