<svg xmlns="http://www.w3.org/2000/svg" width="72" height="72" viewBox="0 0 72 72">
    <defs>
        <clipPath id="hqn81y0mga">
            <rect data-name="#!IMAGE" width="72" height="72" rx="36" transform="translate(631 1122)" style="fill:#fff"/>
        </clipPath>
        <clipPath id="pdt2r29f4b">
            <path data-name="사각형 2411" style="fill:none" d="M0 0h125.914v195.562H0z"/>
        </clipPath>
    </defs>
    <g data-name="그룹 4223" transform="translate(-486 -1406)">
        <rect data-name="#!IMAGE" width="72" height="72" rx="36" transform="translate(486 1406)" style="fill:#dbf1f5"/>
        <g data-name="마스크 그룹 262" transform="translate(-145 284)" style="clip-path:url(#hqn81y0mga)">
            <g data-name="그룹 4061">
                <g data-name="그룹 4060" style="clip-path:url(#pdt2r29f4b)" transform="translate(601.043 1122)">
                    <path data-name="패스 7780" d="M0 180.915c-.123 13.122 21.933 13.229 48.97 14.324s53.256.166 51.078-15.065c-1.481-10.353-15.1-11.978-42.131-13.072S.083 172.209 0 180.915" style="fill:#aece79"/>
                    <path data-name="패스 7781" d="m46.818 1.8-.873 6.384s3.832 1.014 4.969.635 4.727-4.8 4.727-4.8z" style="fill:#ffa08b"/>
                    <path data-name="패스 7782" d="M48.642 6.689a.3.3 0 0 0 .283-.2c.634-1.934 3.882-2.219 3.915-2.222a.3.3 0 0 0-.049-.6c-.15.011-3.674.32-4.433 2.63a.3.3 0 0 0 .189.377.275.275 0 0 0 .095.016" style="fill:#d85a5e"/>
                    <path data-name="패스 7783" d="M56.618 4.869a1.035 1.035 0 0 0-1.23-.786L53 4.6a1.03 1.03 0 1 0 .434 2.014l2.393-.514a1.037 1.037 0 0 0 .791-1.231" style="fill:#ffa08b"/>
                    <path data-name="패스 7784" d="M81.679 30.13c.179.648-.018 1.787.76 2.8s3.884.988 4.747 4.706-1.4 3.828-.647 5.746 5.289 1.3 5.4 4.567-1.214 2.917-.864 4.511 2.231 1.782 1.953 5.121c-.036.016-26.616 0-26.616 0V35.807l8.388-9.229z" style="fill:#813029"/>
                    <path data-name="패스 7785" d="M74.772 36.957a10.416 10.416 0 0 1 1.554 4.189 4.391 4.391 0 0 1-.473 2.114c-.35.826-.6 1.425-.05 2.271a11.763 11.763 0 0 0 1.085 1.354 9.549 9.549 0 0 1 1.512 2.073c.7 1.429.13 2.76-.372 3.932-.134.31-.265.616-.375.922a4.016 4.016 0 0 0-.11 2.218c.037.188.118.441.2.717s.172.562.242.837h-.894c-.055-.2-.118-.4-.166-.55a7.632 7.632 0 0 1-.225-.834 4.9 4.9 0 0 1 .146-2.692 13.1 13.1 0 0 1 .4-.984c.464-1.083.9-2.107.39-3.149a8.637 8.637 0 0 0-1.383-1.876 12.806 12.806 0 0 1-1.164-1.458 2.972 2.972 0 0 1-.029-3.141 3.486 3.486 0 0 0 .4-1.676 9.57 9.57 0 0 0-1.437-3.824 22.147 22.147 0 0 1-.884-1.731l.782-.377c.246.559.54 1.093.851 1.66" style="fill:#511324"/>
                    <path data-name="패스 7786" d="M85.235 50.226a3.4 3.4 0 0 0 .354-2.515 4.555 4.555 0 0 0-2.166-2.055 8.241 8.241 0 0 1-1.69-1.226c-1.23-1.263-.731-2.88-.29-4.307a7.172 7.172 0 0 0 .41-1.818c.06-2.411-2.2-4.034-3.561-4.789l.407-.8c1.532.854 4.09 2.713 4.018 5.609a8.017 8.017 0 0 1-.45 2.074c-.4 1.29-.779 2.512.072 3.382a7.555 7.555 0 0 0 1.517 1.092 5.29 5.29 0 0 1 2.535 2.493 4.217 4.217 0 0 1-.357 3.2 3.941 3.941 0 0 0-.423 2.525 3.716 3.716 0 0 0 .923 1.4 5.6 5.6 0 0 1 .939 1.277 4.688 4.688 0 0 1 .48 1.81h-.877a3.755 3.755 0 0 0-.374-1.4 4.909 4.909 0 0 0-.8-1.069 4.418 4.418 0 0 1-1.121-1.762 4.757 4.757 0 0 1 .45-3.126" style="fill:#511324"/>
                    <path data-name="패스 7787" d="M48.742 47.172c1.5 3.413 11.734 5.137 8.93-2.835-1.736-4.947-5.883-17.3-7.167-20.344L43.17 25.9a92.573 92.573 0 0 0 5.572 21.268" style="fill:#ffa08b"/>
                    <path data-name="패스 7788" d="M49.229 49.192c-2.367-4.739-5.65-12.1-5.65-12.1s.446-2.231 4.4-3.859c4.1-1.688 5.833-.554 5.833-.554l5.768 11.075c-.668 1.466-10.35 5.439-10.35 5.439" style="fill:#ffdd9e"/>
                    <path data-name="패스 7789" d="M49.968 22.988a3.807 3.807 0 1 0-.8 5.281 3.8 3.8 0 0 0 .8-5.281" style="fill:#ffa08b"/>
                    <path data-name="패스 7790" d="M48.545 47.824a5.883 5.883 0 1 1 7.478 3.653 5.883 5.883 0 0 1-7.478-3.653" style="fill:#ffdd9e"/>
                    <path data-name="패스 7791" d="M50.34 23.64a3.807 3.807 0 1 0-1.824 5.02 3.789 3.789 0 0 0 1.824-5.02" style="fill:#ffa08b"/>
                    <path data-name="패스 7792" d="M46.308 7.351C47 5.849 50.663 8 50.663 8c-.431 9.337 0 12.864 0 17.79l-7.551-.762c.05-2.979.35-11.5 3.2-17.674" style="fill:#ffa08b"/>
                    <path data-name="패스 7793" d="M66.74 153.383c-1.412 8.469-4.295 20.29-4.295 20.29l-6.612-.213-.628-20.951z" style="fill:#ff9c90"/>
                    <path data-name="사각형 2407" transform="translate(52.665 181.36)" style="fill:#8f979f" d="M0 0h11.444v.99H0z"/>
                    <path data-name="패스 7794" d="m64.041 180.489-9.311-.554.889-9.256 7.511.524z" style="fill:#e0dbd4"/>
                    <path data-name="패스 7795" d="M58.386 175.638a5.725 5.725 0 0 0-5.724 5.722h11.447a5.724 5.724 0 0 0-5.723-5.722" style="fill:#f7eae3"/>
                    <path data-name="패스 7796" d="M40.037 132.969c3.307 7.952 7.256 20.111 7.256 20.111l-5.739 3.291-11.638-17.594s.778-.006 5.461-2.629c3.737-2.1 4.66-3.179 4.66-3.179" style="fill:#ff9c90"/>
                    <path data-name="패스 7797" d="M71 96.6c-1.542 9.877-8.914 9.292-18.037 7.866s-13.551-8.08-13.958-12.062c2.78-6.309 4.816-12.308 7.532-15.088 3.313-3.4 5.718-1.957 10.734-1.175C66.4 77.569 72.546 86.73 71 96.6" style="fill:#22acac"/>
                    <path data-name="패스 7798" d="M22.2 118.575a6.125 6.125 0 1 0 8.657-.342 6.126 6.126 0 0 0-8.657.342" style="fill:#22959a"/>
                    <path data-name="패스 7799" d="M52.967 104.468 31.2 126.886l-9-8.312 16.809-26.169z" style="fill:#22959a"/>
                    <path data-name="패스 7800" d="M21.26 125.977a6.126 6.126 0 1 0 2.637-8.252 6.128 6.128 0 0 0-2.637 8.252" style="fill:#22959a"/>
                    <path data-name="패스 7801" d="M35.724 149.114c-2.9-4.443-14.051-22.341-14.051-22.341L30 118.008s5.459 2.9 9.5 10.736c3.083 5.983 5.291 11.4 6.112 15.478.544 2.7-8.381 7.2-9.889 4.892" style="fill:#22959a"/>
                    <path data-name="패스 7802" d="M54.029 135.81a6.125 6.125 0 1 0 6.336-5.9 6.125 6.125 0 0 0-6.336 5.9" style="fill:#22acac"/>
                    <path data-name="패스 7803" d="M71 91.226c2.625 13.4-4.732 45.015-4.732 45.015l-12.243-.431-.79-33.676z" style="fill:#22acac"/>
                    <path data-name="패스 7804" d="M54.157 135.665a6.125 6.125 0 1 0 6.321-5.922 6.124 6.124 0 0 0-6.321 5.922" style="fill:#22acac"/>
                    <path data-name="패스 7805" d="M53.238 160.549c-.271-5.235.917-24.556.917-24.556l11.513-3.03s2.111 5.408 1.821 14.22c-.22 6.725.087 11.959-1.024 14.177-1.483 2.96-13.055 2.476-13.227-.811" style="fill:#22acac"/>
                    <path data-name="패스 7806" d="M46.872 56.426c-.127-4.009 1.523-5.655 4.706-9.09 3.473-3.744 3.855-7.474 11.476-5.319 6.7 1.9 14.8 8.4 14.487 14.179-.341 6.363-8.408 10.086-10.657 19.104-.817 3.279 5.271 9.8.589 10.047-8.254.442-23.378-3.1-22.483-6.667a50.725 50.725 0 0 0 2.631-12.8c.531-5.38-.614-5.131-.749-9.455" style="fill:#fab577"/>
                    <path data-name="패스 7807" d="M46.915 79.21c.328-1.846 4.88.409 6.053 1.989s3.146 1.587 2.857-1.073 1.295-2.665 2.331 0 5.441 2.948 6.88 2.581S62.728 71 61.88 68.249c-1.517-4.918-8.986-6.549-14.38-7.462a20.126 20.126 0 0 1-.631-4.361 10.126 10.126 0 0 1 .158-2.248c2.589 1.463 8.195 7.414 14.221 8.313 7.73 1.155 12.037-6.92 12.037-6.92l3.083 4.436c-2.381 4.393-7.719 8.212-9.484 15.293-.817 3.279 5.271 9.8.589 10.047-8.254.442-23.378-3.1-22.483-6.667.04-.147.077-.292.119-.435.836.9 1.69 1.618 1.806.964" style="fill:#f3a25e"/>
                    <path data-name="패스 7808" d="M60.027 43.563c-.314 1.253 1.67 2.836 4.436 3.532s5.261.241 5.577-1.014-1.67-2.836-4.433-3.532-5.262-.241-5.58 1.014" style="fill:#fa9086"/>
                    <path data-name="패스 7809" d="M66.955 47.854c1.933 0 3.241-.625 3.5-1.666.388-1.534-1.655-3.279-4.745-4.055a10.747 10.747 0 0 0-2.6-.341c-1.932 0-3.24.623-3.5 1.665-.386 1.535 1.654 3.278 4.746 4.057a10.881 10.881 0 0 0 2.6.34m-3.842-5.2a10.015 10.015 0 0 1 2.389.314c2.7.68 4.341 2.13 4.117 3.008-.149.607-1.221 1.012-2.664 1.012a9.925 9.925 0 0 1-2.388-.314c-2.7-.678-4.34-2.13-4.119-3.006.152-.6 1.222-1.014 2.665-1.014" style="fill:#ffdd9e"/>
                    <path data-name="패스 7810" d="m69.462 45.279-7.583-2.515 3.481-8.31 6.528 1.846z" style="fill:#fa9086"/>
                    <path data-name="패스 7811" d="M63.183 39.649a7.293 7.293 0 0 0 1.558 1.22 7.07 7.07 0 0 0 5.746.621l1.4-5.189-6.527-1.847z" style="fill:#e67c72"/>
                    <path data-name="패스 7812" d="m67.781 19.357-5.909 10.467a7.605 7.605 0 0 0 13.238 7.47l5.9-10.466z" style="fill:#ffa08b"/>
                    <path data-name="패스 7813" d="M66.3 28.575a.668.668 0 1 1-.211-1.02.749.749 0 0 1 .211 1.02" style="fill:#511324"/>
                    <path data-name="패스 7814" d="M72.556 31.987a.668.668 0 1 1-.212-1.022.743.743 0 0 1 .212 1.022" style="fill:#511324"/>
                    <path data-name="패스 7815" d="M65 30.943a1.478 1.478 0 1 1-.383-2.054A1.477 1.477 0 0 1 65 30.943" style="fill:#ff8581"/>
                    <path data-name="패스 7816" d="M73.591 35.216a1.478 1.478 0 1 1-.383-2.054 1.477 1.477 0 0 1 .383 2.054" style="fill:#ff8581"/>
                    <path data-name="패스 7817" d="M65.953 24.98c1.176-.621 3.04 1.716 3.04 1.716l-.519.5s-1.222-1.147-2.521-2.216" style="fill:#b63029"/>
                    <path data-name="패스 7818" d="M74.586 30.17c.279-1.113-2.8-2.09-2.8-2.09l-.249.677s1.541.653 3.046 1.413" style="fill:#b63029"/>
                    <path data-name="패스 7819" d="M72.261 22.621s.892 10.776 6.9 12.289a6.38 6.38 0 0 0 1.663-7.741z" style="fill:#813029"/>
                    <path data-name="패스 7820" d="M77.668 19.278c5.9 2.01 7.158 5.99 4.141 10.746l-16.092-8.707c3.018-4.751 5.823-6.081 11.951-2.039" style="fill:#813029"/>
                    <path data-name="패스 7821" d="M66.4 34.141a.217.217 0 0 0 .067-.423.8.8 0 0 1-.517-.92.707.707 0 0 1 .761-.6c.687 0 1.743-1.713 2.051-2.242a.216.216 0 0 0-.374-.217c-.573.982-1.377 2.026-1.664 2.026a1.136 1.136 0 0 0-1.2.959 1.235 1.235 0 0 0 .81 1.4.193.193 0 0 0 .067.012" style="fill:#d85a5e"/>
                    <path data-name="패스 7822" d="M66.866 36.459a1.993 1.993 0 0 0 1.362-.8.22.22 0 0 0-.048-.3.216.216 0 0 0-.3.048 1.57 1.57 0 0 1-1 .625 1.07 1.07 0 0 1-.8-.478.216.216 0 1 0-.34.266 1.443 1.443 0 0 0 1.129.643" style="fill:#d85a5e"/>
                    <path data-name="패스 7823" d="M75.44 33.53c-.848.947-1.312 2.669-.56 3.349s2.438.048 3.286-.894a1.88 1.88 0 1 0-2.726-2.455" style="fill:#ffa08b"/>
                    <path data-name="패스 7824" d="M75.523 35.591a.2.2 0 0 0 .043.038.185.185 0 0 0 .251-.063 2.522 2.522 0 0 1 2.4-1.368.18.18 0 0 0 .208-.152.187.187 0 0 0-.15-.21 2.861 2.861 0 0 0-2.775 1.542.178.178 0 0 0 .018.213" style="fill:#d85a5e"/>
                    <path data-name="사각형 2408" transform="rotate(-80.729 21.813 -22.752)" style="fill:#6b6d84" d="M0 0h1.129v79.888H0z"/>
                    <path data-name="패스 7825" d="M125.761 21.4c-.537 2.143-3.953 1.716-4.516-.909s-.611-4.937-1.171-5.054-2.861-.638-2.861-.638l.172-.988s4.6-1.376 6.089-.269 2.916 5.378 2.287 7.858" style="fill:#384350"/>
                    <path data-name="패스 7826" d="M66.749 5.314a1.426 1.426 0 0 1 .124.846 1.411 1.411 0 0 1-1.618 1.17L40.607 3.355a1.412 1.412 0 0 1 .449-2.788l24.649 3.974a1.413 1.413 0 0 1 1.044.773" style="fill:#384350"/>
                    <path data-name="패스 7827" d="M68.443 58.426c-.5-3.7 7.347-10.493 9.1-2.23 1.092 5.131 3.978 17.836 4.465 21.105l-7.258 2.185a92.483 92.483 0 0 1-6.307-21.06" style="fill:#f68f82"/>
                    <path data-name="패스 7828" d="M67.41 56.78c.83 5.231 2.442 13.13 2.442 13.13s1.664 1.554 5.828.579c4.314-1.01 5.065-2.941 5.065-2.941l-1.751-12.365c-1.4-.8-11.584 1.6-11.584 1.6" style="fill:#ffdd9e"/>
                    <path data-name="패스 7829" d="M82.071 78.44a3.807 3.807 0 1 1-3.431-4.093 3.793 3.793 0 0 1 3.431 4.093" style="fill:#f68f82"/>
                    <path data-name="패스 7830" d="M67.65 58.289a5.884 5.884 0 1 0 3.95-7.323 5.885 5.885 0 0 0-3.953 7.323" style="fill:#ffdd9e"/>
                    <path data-name="패스 7831" d="M76.041 74.922a3.807 3.807 0 1 1-.834 5.274 3.786 3.786 0 0 1 .834-5.274" style="fill:#ffa08b"/>
                    <path data-name="패스 7832" d="M86.6 62.158c.121-1.646-3.4-2.988-4.135-1.5-4.142 8.376-4.862 9.764-7.746 15.987l6.981 2.99a54.285 54.285 0 0 0 4.9-17.477" style="fill:#ffa08b"/>
                    <path data-name="사각형 2409" transform="rotate(-19.95 484.246 -12.816)" style="fill:#8f979f" d="M0 0h18.782v1.091H0z"/>
                    <path data-name="패스 7833" d="m51.078 157.945-17.649 6.412a5.493 5.493 0 0 1 .028-4.242 7.584 7.584 0 0 1 3.856-3.641 16.847 16.847 0 0 0 2.37-2.972l6.643-2.6s2.742 1.508 4.752 7.042" style="fill:#e0dbd4"/>
                    <path data-name="패스 7834" d="M37.172 156.545a7.473 7.473 0 0 0-3.716 3.569 5.49 5.49 0 0 0-.027 4.242l11.363-4.128a6.9 6.9 0 0 0-7.62-3.683" style="fill:#f7eae3"/>
                    <path data-name="패스 7835" d="M62.828 163.172a95.053 95.053 0 0 0 0-29.683c-.328-1.939.372-5.754 1.259-10.58 1.735-9.438 4.356-23.7 1.607-37.609l-.848.168c2.717 13.745.115 27.91-1.607 37.283-.936 5.105-1.616 8.793-1.261 10.885a94.153 94.153 0 0 1 0 29.376z" style="fill:#1c8186"/>
                    <path data-name="패스 7836" d="m66.036 90.95.035-.864c-2.381-.1-4.144-.761-5.233-1.965a4.541 4.541 0 0 1-1.162-3.016l-.864-.053a5.336 5.336 0 0 0 1.373 3.634c1.251 1.39 3.218 2.151 5.851 2.264" style="fill:#1c8186"/>
                    <path data-name="패스 7837" d="m53.236 91.367.245-.828a20.3 20.3 0 0 1-2.3-.789 33.863 33.863 0 0 1 .906-6.463l-.844-.186c-.048.215-1.158 5.3-.89 6.954.068.276.127.5 2.882 1.312" style="fill:#1c8186"/>
                    <path data-name="패스 7838" d="m52.535 104.491.863-.042c-.625-12.9 1.653-20.261 1.674-20.334l-.824-.261c-.022.075-2.344 7.568-1.713 20.637" style="fill:#1c8186"/>
                    <path data-name="패스 7839" d="M42.938 85.512a2.269 2.269 0 0 0 .735-.129c1.95-.666 3.489-3.846 3.554-3.98l-.778-.371c-.4.828-1.724 3.079-3.056 3.535a1.239 1.239 0 0 1-1-.053l-.393.772a2.074 2.074 0 0 0 .935.226" style="fill:#1c8186"/>
                    <path data-name="사각형 2410" transform="rotate(-62.145 50.115 -42.274)" style="fill:#c5b0a8" d="M0 0h2.373v20.11H0z"/>
                    <path data-name="패스 7840" d="M65.624 20.963c-.878-.365-.61-.247-1.984-.773-5.745-2.2-8.341-.092-2.123 2.86a112.821 112.821 0 0 0 15.735 5.659s-11.406-7.76-11.628-7.746" style="fill:#e3d3c3"/>
                    <path data-name="패스 7841" d="M48.557.023a.916.916 0 0 0-1.085.708l-.5 2.16a.9.9 0 1 0 1.755.4l.5-2.161a.915.915 0 0 0-.67-1.112" style="fill:#f68f82"/>
                    <path data-name="패스 7842" d="M50.251.077a1.1 1.1 0 0 0-1.266.9l-.616 2.693a1.039 1.039 0 1 0 2.01.463L51 1.44a1.1 1.1 0 0 0-.749-1.363" style="fill:#f68f82"/>
                    <path data-name="패스 7843" d="M52.006.557a1.1 1.1 0 0 0-1.267.9L50.12 4.15a1.04 1.04 0 1 0 2.013.46l.618-2.69a1.1 1.1 0 0 0-.745-1.363" style="fill:#f68f82"/>
                    <path data-name="패스 7844" d="M53.544 1.129a.973.973 0 0 0-1.208.639l-.471 2.059a1.043 1.043 0 0 0 2.011.463l.472-2.059a.968.968 0 0 0-.8-1.1" style="fill:#f68f82"/>
                    <path data-name="패스 7845" d="M91.378 56.817s.39 2.447-.747 3.653A5.394 5.394 0 0 1 86.7 62.3z" style="fill:#f68f82"/>
                    <path data-name="패스 7846" d="M84.808 55.038s-1.482.653-2.446 5.832c.423 1.082 4.221 1.935 4.221 1.935s4.137-3.547 5.125-5.8c-1.206-.808-6.9-1.972-6.9-1.972" style="fill:#ffa08b"/>
                    <path data-name="패스 7847" d="M86.6 55.851a.984.984 0 1 1-.492-1.3.99.99 0 0 1 .492 1.3" style="fill:#ffa08b"/>
                    <path data-name="패스 7848" d="M88.394 56.027a.983.983 0 1 1-.492-1.3.984.984 0 0 1 .492 1.3" style="fill:#ffa08b"/>
                    <path data-name="패스 7849" d="M90.1 56.444a.983.983 0 1 1-.49-1.3.983.983 0 0 1 .49 1.3" style="fill:#ffa08b"/>
                    <path data-name="패스 7850" d="M90.246 55.908a.984.984 0 1 1-.152 1.384.988.988 0 0 1 .152-1.384" style="fill:#ffa08b"/>
                </g>
            </g>
        </g>
    </g>
</svg>
