<svg xmlns="http://www.w3.org/2000/svg" width="72" height="72" viewBox="0 0 72 72">
    <defs>
        <clipPath id="badisfpo0a">
            <rect data-name="#!IMAGE" width="72" height="72" rx="36" transform="translate(670 1084)" style="fill:#fff"/>
        </clipPath>
        <clipPath id="ggrqlf04ab">
            <path data-name="사각형 2418" style="fill:none" d="M0 0h136.152v195.202H0z"/>
        </clipPath>
    </defs>
    <g data-name="그룹 4224" transform="translate(-384 -1208)">
        <rect data-name="#!IMAGE" width="72" height="72" rx="36" transform="translate(384 1208)" style="fill:#f5f2db"/>
        <g data-name="마스크 그룹 263" transform="translate(-286 124)" style="clip-path:url(#badisfpo0a)">
            <g data-name="그룹 4063">
                <g data-name="그룹 4062" style="clip-path:url(#ggrqlf04ab)" transform="translate(645 1092)">
                    <path data-name="패스 7851" d="M48.221 76.681s4.355-2.753 4.417-2.7 2.331 3.67 2.331 3.67z" style="fill:#f68f82"/>
                    <path data-name="패스 7852" d="M66.566 41.5c-2.229-4.222 5.839-13.541 11.6-4.378 3.58 5.687 9.09 14.008 11.121 17.726l-7.763 5.835c-2.579-2.3-10.515-10.761-14.957-19.183" style="fill:#f68382"/>
                    <path data-name="패스 7853" d="M89.868 56.187a4.879 4.879 0 1 1-5.939-3.4 4.862 4.862 0 0 1 5.939 3.4" style="fill:#f68f82"/>
                    <path data-name="패스 7854" d="M65.958 34.04a8.189 8.189 0 0 1 11.565.635l7.7 10.171s.166 2.509-4.287 6.526c-4.614 4.158-6.985 3.992-6.985 3.992l-8.626-9.758a8.191 8.191 0 0 1 .634-11.566" style="fill:#e0dbd4"/>
                    <path data-name="패스 7855" d="m89.85 32.16-1.1 6.4s-4.607.125-5.661-.631-3.057-6.325-3.057-6.325z" style="fill:#ffa08b"/>
                    <path data-name="패스 7856" d="M86.49 36.633a.325.325 0 0 1-.324-.319c-.031-2.2-3.29-3.542-3.324-3.556a.322.322 0 0 1-.178-.422.327.327 0 0 1 .42-.18c.151.062 3.692 1.517 3.73 4.147a.325.325 0 0 1-.324.33" style="fill:#d85a5e"/>
                    <path data-name="패스 7857" d="M78.749 32.17a1.115 1.115 0 0 1 1.52-.417l2.3 1.3A1.115 1.115 0 1 1 81.472 35l-2.3-1.305a1.116 1.116 0 0 1-.419-1.524" style="fill:#ffa08b"/>
                    <path data-name="사각형 2412" transform="rotate(-83.69 17.558 7.777)" style="fill:#6b6d84" d="M0 0h1.176v83.263H0z"/>
                    <path data-name="패스 7858" d="M0 28.749c-.059 2.3 3.489 2.832 4.789.354s2-4.784 2.594-4.742 3.183.381 3.183.381l-.025-1.263S6.313 20.81 4.5 21.5.07 26.083 0 28.749" style="fill:#6b6d84"/>
                    <path data-name="패스 7859" d="M63.752 29.164a1.473 1.473 0 0 0 .934 2.441l25.854 2.93a1.473 1.473 0 0 0 .332-2.928L65.016 28.68a1.47 1.47 0 0 0-1.264.484" style="fill:#384350"/>
                    <path data-name="패스 7860" d="M88.628 29.761a.992.992 0 0 1 .893 1.081l-.184 2.39a.974.974 0 1 1-1.941-.149l.183-2.388a.993.993 0 0 1 1.049-.934" style="fill:#f68f82"/>
                    <path data-name="패스 7861" d="M86.861 29.271a1.2 1.2 0 0 1 1.017 1.341l-.23 2.976a1.124 1.124 0 1 1-2.224-.17l.228-2.979a1.2 1.2 0 0 1 1.209-1.168" style="fill:#f68f82"/>
                    <path data-name="패스 7862" d="M84.9 29.2a1.2 1.2 0 0 1 1.016 1.343l-.227 2.976a1.124 1.124 0 1 1-2.226-.17l.227-2.978A1.2 1.2 0 0 1 84.9 29.2" style="fill:#f68f82"/>
                    <path data-name="패스 7863" d="M83.125 29.3a1.047 1.047 0 0 1 1.038 1.047l-.175 2.279a1.127 1.127 0 0 1-2.224-.17l.175-2.281a1.049 1.049 0 0 1 1.186-.875" style="fill:#f68f82"/>
                    <path data-name="패스 7864" d="M6.419 181.042c-.429 15.539 14.727 12.369 49.966 13.34s77.276 3.386 77.64-9.825c.332-12.051-12.735-11.075-47.973-12.045s-79.3-3.521-79.633 8.53" style="fill:#aece79"/>
                    <path data-name="패스 7865" d="M79.832 134.034s-1.728 33.18-1.888 33.751l-8.678.093s-5.228-27.6-2.525-35.2c1.108-3.109 13.091 1.356 13.091 1.356" style="fill:#ff9c90"/>
                    <path data-name="패스 7866" d="M66.63 133.694a6.6 6.6 0 1 0 6.773-6.426 6.6 6.6 0 0 0-6.773 6.426" style="fill:#ff9c90"/>
                    <path data-name="패스 7867" d="M78.378 161.029 78.2 171.9l-8.971.2-1.04-10.545s6.005 1.378 10.192-.525" style="fill:#e3d3c3"/>
                    <path data-name="패스 7868" d="m74.054 171.925-.866.02-.684-9.893c.282 0 .57 0 .864-.016z" style="fill:#c5b0a8"/>
                    <path data-name="패스 7869" d="M70 161.857c.268.041.562.077.873.107l.694 10.014-.864.021z" style="fill:#c5b0a8"/>
                    <path data-name="패스 7870" d="m76.578 171.937-.864.02-.7-10.031c.285-.05.568-.109.853-.178z" style="fill:#c5b0a8"/>
                    <path data-name="사각형 2413" transform="translate(67.176 114.52)" style="fill:#ff9c90" d="M0 0h12.656v19.514H0z"/>
                    <path data-name="패스 7871" d="m67.175 130.152 12.656-1.7V122.5H67.175z" style="fill:#f3847f"/>
                    <path data-name="사각형 2414" transform="translate(68.334 179.828)" style="fill:#832729" d="M0 0h18.984v1.082H0z"/>
                    <path data-name="패스 7872" d="m68.335 179.827 18.979-.049a5.374 5.374 0 0 0-1.5-3.935 7.779 7.779 0 0 0-4.926-2.074c-.683-.077-2.752-3.107-2.752-3.107h-9.077a46.048 46.048 0 0 0-.724 9.165" style="fill:#a43b36"/>
                    <path data-name="패스 7873" d="M81.045 173.788a7.656 7.656 0 0 1 4.77 2.054 5.379 5.379 0 0 1 1.5 3.935l-12.221.032a6.9 6.9 0 0 1 5.951-6.021" style="fill:#c25436"/>
                    <path data-name="패스 7874" d="m65.866 124.076-3.674-33.47L80.62 80.04s2.011 43.692 2.04 44.036z" style="fill:#832729"/>
                    <path data-name="사각형 2415" transform="rotate(-2.264 3140 -1593.003)" style="fill:#682029" d="M0 0h18.202v3.671H0z"/>
                    <path data-name="패스 7875" d="M49.133 130.438c-3.257 11.157-.6 34.726-.48 35.3l8.161.889 5.516-35.719s-12.274-3.643-13.2-.475" style="fill:#ff9c90"/>
                    <path data-name="패스 7876" d="M62.33 130.912a6.6 6.6 0 1 1-6.364-6.833 6.6 6.6 0 0 1 6.364 6.833" style="fill:#ff9c90"/>
                    <path data-name="패스 7877" d="m50.127 105.882-.82 23.26 12.885 2.66 2.817-25.92z" style="fill:#ff9c90"/>
                    <path data-name="패스 7878" d="M63.249 122.079H49.556l-.249 7.062 13.307-1.223z" style="fill:#f3847f"/>
                    <path data-name="패스 7879" d="m48.4 160.448-.631 10.734 8.972.2 1.041-10.545s-5.195 1.512-9.382-.389" style="fill:#e3d3c3"/>
                    <path data-name="패스 7880" d="m51.911 171.275.864.02.685-9.893c-.281 0-.57 0-.864-.016z" style="fill:#c5b0a8"/>
                    <path data-name="패스 7881" d="M55.962 161.208c-.27.039-.564.075-.874.1l-.688 10.019.863.021z" style="fill:#c5b0a8"/>
                    <path data-name="패스 7882" d="m49.387 171.217.863.021.7-10.03c-.284-.05-.569-.108-.853-.179z" style="fill:#c5b0a8"/>
                    <path data-name="패스 7883" d="m64.177 124.276 4.964-34.139-19.93-3.268s-3.07 35.913-3.124 36.251z" style="fill:#a43b36"/>
                    <path data-name="패스 7884" d="M81.013 54.847a4.879 4.879 0 1 1 1.565 6.665 4.858 4.858 0 0 1-1.565-6.665" style="fill:#ffa08b"/>
                    <path data-name="패스 7885" d="m88.574 37.6-5.308-.782s-2.612 15.786-2.982 20.707l9.722.171c.386-3.8-.46-15.058-1.432-20.1" style="fill:#ffa08b"/>
                    <path data-name="패스 7886" d="M78.8 73.361c2.724 2.6 2.309 16.062 2.309 16.062s-17.2 9.263-32.115 1.452c0 0-.326-10.042 4.432-15.2 4.374-4.731 20.639-6.831 25.374-2.314" style="fill:#a43b36"/>
                    <path data-name="패스 7887" d="m68.92 85.016-.231-.832a2.174 2.174 0 0 0 1.527-1.237c.9-2.056-.9-5.653-.921-5.689l.771-.39c.081.162 2.008 4 .941 6.426a3.025 3.025 0 0 1-2.087 1.722" style="fill:#832729"/>
                    <path data-name="패스 7888" d="m69.469 93.616-.862-.039a41.74 41.74 0 0 0-2.313-15.948l.8-.326a42.656 42.656 0 0 1 2.375 16.313" style="fill:#832729"/>
                    <path data-name="패스 7889" d="M49.425 85.151c2.955.305 5.155-.263 6.528-1.692 2.127-2.217 1.588-5.823 1.582-5.859l.854-.136c.025.164.614 4.056-1.809 6.588A7.522 7.522 0 0 1 50.9 86.1c-.487 0-1-.033-1.526-.085.014-.282.032-.571.053-.863" style="fill:#832729"/>
                    <path data-name="패스 7890" d="m75.626 74.6.861.032c0 .041-.122 4.366 2.1 6.35a3.867 3.867 0 0 0 2.263.961v.855A4.724 4.724 0 0 1 78 81.624c-2.517-2.256-2.386-6.83-2.378-7.024" style="fill:#832729"/>
                    <path data-name="패스 7891" d="M48.445 56.013c-3.556-10.287-9.192-24.411 4.216-24.7 3.621-.077 16.11-.33 18.345 1.37 7.228 5.5 8.8 36.691 9.015 39.967.45 7-28.024 9.293-29.314.865-1.36-8.891.408-9.779-2.262-17.506" style="fill:#fab577"/>
                    <path data-name="패스 7892" d="M71.007 32.687c-.037-.028-.084-.054-.127-.081 2.58 10.058 8.883 36.049 5.572 37.608-4.114 1.935-6.76-2.152-8.563 0s-3.218 6.61-7.111 5.285c-3.059-1.042-7.67-3.858-10.224-3.075.048.356.094.707.153 1.095 1.29 8.428 29.765 6.135 29.315-.865-.211-3.276-1.787-34.465-9.015-39.967" style="fill:#f1aa68"/>
                    <path data-name="패스 7893" d="M79.39 64.1a220 220 0 0 0-.44-4.363 151.706 151.706 0 0 0-2.023-4.407q.507-1.821.954-3.53a116.58 116.58 0 0 0-.542-3.1c-.383 1.531-.8 3.16-1.269 4.868-2.181-4.4-4.5-8.612-6.716-12.411a235.028 235.028 0 0 0 1.876-8.275c-.075-.066-.146-.141-.223-.2a3.348 3.348 0 0 0-.965-.454 230.93 230.93 0 0 1-1.633 7.331 238.5 238.5 0 0 0-5.1-8.188 81.287 81.287 0 0 0-1.587-.062 247.48 247.48 0 0 1 6.247 10.047 239.3 239.3 0 0 1-3.044 11.161 226.65 226.65 0 0 0-7.217-12.542 248.303 248.303 0 0 0 2.193-8.707c-.446-.006-.889-.012-1.324-.014-.5 2.133-1.1 4.572-1.8 7.219-1.8-2.875-3.408-5.3-4.647-7.132-.52.026-1.012.073-1.471.142 1.409 2.066 3.4 5.06 5.658 8.7A216.56 216.56 0 0 1 52.83 51.69a243.376 243.376 0 0 0-8.545-13.98 13.509 13.509 0 0 0-.092 2.229c2.33 3.6 5.191 8.225 8.076 13.4-.809 2.342-1.679 4.7-2.611 7.044A21.012 21.012 0 0 1 50 62.946a155.759 155.759 0 0 0 3.108-8.09c2.256 4.129 4.494 8.565 6.479 13.085-1.343 3.34-2.815 6.625-4.41 9.736q.6.213 1.253.389a116.681 116.681 0 0 0 3.876-8.466c1.314 3.106 2.484 6.239 3.449 9.327q.669 0 1.343-.021a106.467 106.467 0 0 0-4.113-10.985 177.247 177.247 0 0 0 4.251-12.011 144.14 144.14 0 0 1 5.976 13.2 145.938 145.938 0 0 1-3.844 9.665q.741-.066 1.469-.158c1.1-2.52 2.127-5.086 3.076-7.657a88.264 88.264 0 0 1 2.128 6.584c.427-.131.834-.267 1.224-.413a91.947 91.947 0 0 0-2.675-8.039 202.435 202.435 0 0 0 3.8-11.878 135.216 135.216 0 0 1 3 6.886m-19.139 2.16c-2.038-4.531-4.308-8.953-6.574-13.047 1.365-3.99 2.552-7.9 3.564-11.525a219.13 219.13 0 0 1 7.152 12.59 182.132 182.132 0 0 1-4.142 11.982m11.617.992c-1.8-4.463-3.9-8.9-6.083-13.1a235.1 235.1 0 0 0 3.12-11.189c2.222 3.849 4.517 8.082 6.648 12.483a210.469 210.469 0 0 1-3.685 11.808" style="fill:#e99a5e"/>
                    <path data-name="패스 7894" d="M66.053 31.558c-4.005-.365-9.29-.318-12.208-.265.61 4.311 5.889 6.023 9.507 5.554 3.512-.456 2.979-4.654 2.7-5.289" style="fill:#e0dbd4"/>
                    <path data-name="패스 7895" d="M62.158 37.353c-3.643 0-8.155-1.865-8.74-6l.855-.12c.576 4.073 5.615 5.627 9.023 5.186 2.4-.31 2.493-1.927 2.362-4.006-.02-.31-.037-.6-.036-.854h.863c0 .237.017.508.035.8.105 1.676.281 4.478-3.111 4.917a9.722 9.722 0 0 1-1.251.079" style="fill:#e99a5e"/>
                    <path data-name="패스 7896" d="m55.9 32.558 6.188 1.309 2.338-1.309v-7.314H55.9z" style="fill:#fa9086"/>
                    <path data-name="패스 7897" d="M55.9 26.383a7.5 7.5 0 0 0 6.1 2.2 7.658 7.658 0 0 0 2.422-.648v-2.692H55.9z" style="fill:#e67c72"/>
                    <path data-name="패스 7898" d="M67.608 8.035s.842 8.789 1.121 11.718a7.445 7.445 0 0 1-14.813 1.416L52.794 9.454z" style="fill:#ffa08b"/>
                    <path data-name="패스 7899" d="M55.739 15.637c-.006 1.486-1.288 4.663-3.188 3.372-1.934-1.314-.426-3.409-1.167-5.173-.43-1.019-1.549-1.478-1.985-2.531a6.936 6.936 0 0 1 .9-6.084 6.5 6.5 0 0 1 4.457-2.162c1.149.041 2.914 1.031 4.029.365 1.305-.78 1.717-2.566 3.14-3.23 1.633-.759 3.016.886 4 1.962s1.614 1.729 3.08 1.332c1.351-.364 2.65-.406 3.459.963a2.687 2.687 0 0 1-.938 3.772c-1.037.581-2.362.5-3.188 1.443s-1.076 2.473-2.53 2.741c-1.629.3-3.247-1.122-4.424-2.043-.483-.375-1.8.862-2.037 1.136-.747.861-1.8.955-2.739 1.548s-.866 1.52-.871 2.589" style="fill:#ffdd9e"/>
                    <path data-name="패스 7900" d="M69.266 7.089c-.964-.224-1.754.486-2.386 1.062a6.618 6.618 0 0 1-.533.456c-.788.588-1.33.636-1.873.16A7.96 7.96 0 0 1 63.9 8.2a3.857 3.857 0 0 0-1.739-1.241c-1.8-.512-2.505.739-3.125 1.844a3.7 3.7 0 0 1-1.267 1.567 2.753 2.753 0 0 1-1.7.092 5.3 5.3 0 0 0-.969-.094 2.569 2.569 0 0 0-2.5 1.8 5.077 5.077 0 0 0 .143 3.011l.108.431a6.828 6.828 0 0 1-.17 3.425l.627.162a7.411 7.411 0 0 0 .172-3.74l-.11-.438a4.509 4.509 0 0 1-.158-2.639 1.916 1.916 0 0 1 1.888-1.366 4.658 4.658 0 0 1 .876.085 3.318 3.318 0 0 0 2.093-.158A4.192 4.192 0 0 0 59.6 9.114c.664-1.181 1.132-1.883 2.384-1.535a3.3 3.3 0 0 1 1.444 1.064c.2.209.4.421.621.612a2.009 2.009 0 0 0 2.688-.129c.186-.138.38-.313.581-.5.573-.521 1.166-1.065 1.8-.911a3.575 3.575 0 0 1 1.419.891 6.062 6.062 0 0 0 .693-.245 4.674 4.674 0 0 0-1.963-1.276" style="fill:#fab577"/>
                    <path data-name="패스 7901" d="M71.348 4.82c-1-1.105-2.228-.848-3.4-.409l-.16.059c-.972.366-1.7.587-2.254.06a3.467 3.467 0 0 1-.678-1.117 3.714 3.714 0 0 0-.9-1.392 1.477 1.477 0 0 0-1.1-.367 2.942 2.942 0 0 0-1.78 1.1 8.708 8.708 0 0 0-1.132 1.935 10.958 10.958 0 0 1-.744 1.388 1.523 1.523 0 0 1-1.958.739 4.587 4.587 0 0 1-.79-.525 2.818 2.818 0 0 0-1.94-.786c-1.938.161-3.526 2.322-4.12 3.243a5.307 5.307 0 0 0-.9 2.725 3.65 3.65 0 0 0 .693.9 4.608 4.608 0 0 1 .748-3.273c.422-.656 1.932-2.808 3.629-2.949a2.183 2.183 0 0 1 1.492.654 5.062 5.062 0 0 0 .907.6 2.118 2.118 0 0 0 2.775-.964 11.887 11.887 0 0 0 .787-1.472 8.038 8.038 0 0 1 1.042-1.8A2.214 2.214 0 0 1 62.9 2.3a.793.793 0 0 1 .625.213 3.229 3.229 0 0 1 .735 1.166A4.008 4.008 0 0 0 65.084 5c.889.85 2.07.4 2.931.079l.157-.059c1.142-.429 1.992-.538 2.7.237a6.374 6.374 0 0 1 1.225 2.53 2.564 2.564 0 0 0 .478-.641 6.307 6.307 0 0 0-1.227-2.326" style="fill:#fab577"/>
                    <path data-name="패스 7902" d="M63.618 21.879a1.89 1.89 0 0 1-1.29.06.228.228 0 1 1 .126-.438 1.605 1.605 0 0 0 .948-.021.358.358 0 0 0 .165-.261 4.273 4.273 0 0 0-.672-2.4 12.882 12.882 0 0 1-.8-1.931.228.228 0 0 1 .437-.128 12.371 12.371 0 0 0 .769 1.863 4.576 4.576 0 0 1 .71 2.681.825.825 0 0 1-.4.579" style="fill:#d85a5e"/>
                    <path data-name="패스 7903" d="M59.3 17.418a.638.638 0 1 1-.655-.749.711.711 0 0 1 .655.749" style="fill:#511324"/>
                    <path data-name="패스 7904" d="M66.31 16.849a.637.637 0 1 1-.656-.747.713.713 0 0 1 .656.747" style="fill:#511324"/>
                    <path data-name="패스 7905" d="M66.716 16.16a.142.142 0 0 1-.073.037l-2.02.361a.14.14 0 0 1-.05-.276l2.019-.359a.14.14 0 0 1 .164.112.149.149 0 0 1-.04.125" style="fill:#511324"/>
                    <path data-name="패스 7906" d="M59.878 16.787a.138.138 0 0 1-.078.027l-2.05.107a.141.141 0 0 1-.014-.282l2.05-.1a.14.14 0 0 1 .092.252" style="fill:#511324"/>
                    <path data-name="패스 7907" d="M55.153 18.3c.03 1.244-.722 2.821-1.714 2.847s-1.845-1.512-1.878-2.753a1.841 1.841 0 1 1 3.592-.094" style="fill:#ffa08b"/>
                    <path data-name="패스 7908" d="M53.779 19.782a.271.271 0 0 1-.057 0 .18.18 0 0 1-.146-.207 2.469 2.469 0 0 0-.918-2.544.179.179 0 0 1 .187-.305 2.8 2.8 0 0 1 1.084 2.909.181.181 0 0 1-.15.147" style="fill:#d85a5e"/>
                    <path data-name="패스 7909" d="M55.258 19.841a1.638 1.638 0 1 0 1.332-1.894 1.636 1.636 0 0 0-1.332 1.894" style="fill:#ff8581"/>
                    <path data-name="패스 7910" d="M65.375 19.379a1.638 1.638 0 1 0 1.333-1.894 1.637 1.637 0 0 0-1.333 1.894" style="fill:#ff8581"/>
                    <path data-name="패스 7911" d="M61.5 23.877a1.668 1.668 0 0 1-1-.3 1.938 1.938 0 0 1-.719-1.185.216.216 0 0 1 .426-.066 1.526 1.526 0 0 0 .547.9 1.431 1.431 0 0 0 1.112.181.22.22 0 0 1 .251.174.213.213 0 0 1-.174.251 2.374 2.374 0 0 1-.448.044" style="fill:#d85a5e"/>
                    <path data-name="패스 7912" d="M67.133 14.714a10.637 10.637 0 0 0-3.564-.18l.172.716s1.683-.322 3.392-.536" style="fill:#ffdd9e"/>
                    <path data-name="패스 7913" d="M56.948 15.481a10.663 10.663 0 0 1 3.463-.865l-.032.737s-1.714.008-3.431.128" style="fill:#ffdd9e"/>
                    <path data-name="패스 7914" d="M73.462 50.4a.026.026 0 0 1 0 .052.026.026 0 0 1 0-.052"/>
                    <path data-name="패스 7915" d="M41.61 35.669c2.608-4 13.02.28 10.692 5.457-2.753 6.129-11.07 20.635-13.335 24.214L30.1 61.387c.756-3.372 6.3-17.747 11.51-25.718" style="fill:#f68f82"/>
                    <path data-name="패스 7916" d="M38.081 66.5a4.879 4.879 0 1 1 .094-6.845 4.859 4.859 0 0 1-.094 6.845" style="fill:#ffa08b"/>
                    <path data-name="패스 7917" d="M50.2 33.04a8.191 8.191 0 0 1 3.2 11.132l-7.459 11.6s-2.317.983-7.572-1.9c-5.445-2.99-6.068-5.287-6.068-5.287l6.763-12.343A8.192 8.192 0 0 1 50.2 33.04" style="fill:#e0dbd4"/>
                    <path data-name="패스 7918" d="M39.579 62.5a4.879 4.879 0 1 1-5.3-4.333 4.856 4.856 0 0 1 5.3 4.333" style="fill:#ffa08b"/>
                    <path data-name="패스 7919" d="M46.78 81.537c1.748 1.2 6.594-.785 5.426-2.56-6.594-10-8.657-11.842-13.682-19.053l-7.814 5.787c2 3.247 8.892 10.9 16.07 15.826" style="fill:#ffa08b"/>
                    <path data-name="패스 7920" d="M57.778 178.369H46.087l1.741-8.236 8.957.258z" style="fill:#a43b36"/>
                    <path data-name="패스 7921" d="M51.91 173.389a6.269 6.269 0 0 0-6.268 6.268h12.535a6.269 6.269 0 0 0-6.267-6.268" style="fill:#c25436"/>
                    <path data-name="사각형 2416" transform="translate(113.373 108.699)" style="fill:#7e595e" d="M0 0h1.727v77.113H0z"/>
                    <path data-name="패스 7922" d="M136.152 108.7h-22.779v12.848z" style="fill:#ff3645"/>
                    <path data-name="패스 7923" d="M116.612 186.244c0 1.344-3.434 2.434-7.666 2.434s-7.665-1.09-7.665-2.434 3.433-2.433 7.665-2.433 7.666 1.091 7.666 2.433" style="fill:#423945"/>
                    <path data-name="패스 7924" d="m55.233 29.2-.08 3.489 3.615 2.326 3.322-1.146-3.429-2.982z" style="fill:#d8beb3"/>
                    <path data-name="패스 7925" d="m65.067 30.2.282 4.17-3.259-.506 1.143-2.957z" style="fill:#d8beb3"/>
                    <path data-name="사각형 2417" transform="rotate(-85.299 90.463 37.839)" style="fill:#832729" d="M0 0h3.67v18.936H0z"/>
                    <path data-name="패스 7926" d="m45.683 180.793 12.495-.069v-1.081l-12.493.069z" style="fill:#832729"/>
                    <path data-name="패스 7927" d="M98.715 184.984a5.7 5.7 0 1 1-5.7-5.7 5.7 5.7 0 0 1 5.7 5.7" style="fill:#ffffe2"/>
                    <path data-name="패스 7928" d="M90.2 187.671a5.691 5.691 0 0 0 5.287-7.814 5.695 5.695 0 1 1-7.76 7.243 5.666 5.666 0 0 0 2.473.571" style="fill:#ecead3"/>
                    <path data-name="패스 7929" d="M53.86 78.5a1.063 1.063 0 0 0 .74 1.3l6.169 1.7a1.06 1.06 0 0 0 .565-2.044l-6.169-1.7a1.065 1.065 0 0 0-1.305.738" style="fill:#ffa08b"/>
                    <path data-name="패스 7930" d="M50.762 82.655c-.347.47-1.838.816-1.366 1.164l6.743 4.111a1.059 1.059 0 1 0 1.261-1.706l-5.152-3.795a1.06 1.06 0 0 0-1.481.226" style="fill:#ffa08b"/>
                    <path data-name="패스 7931" d="M53.08 80.325a1.2 1.2 0 0 0 .743 1.525l6.927 2.531a1.178 1.178 0 1 0 .807-2.212l-6.926-2.531a1.2 1.2 0 0 0-1.551.687" style="fill:#ffa08b"/>
                    <path data-name="패스 7932" d="M51.868 81.259a1.2 1.2 0 0 0 .537 1.608l6.535 3.418a1.179 1.179 0 1 0 1.091-2.085l-6.536-3.415a1.2 1.2 0 0 0-1.627.477" style="fill:#ffa08b"/>
                    <path data-name="패스 7933" d="M55.165 77.756c-2-.567-5.357-3.558-7.321-1.18s-2.423 6.054 2.87 8.047c6.06 2.278 4.451-6.867 4.451-6.867" style="fill:#ffa08b"/>
                </g>
            </g>
        </g>
    </g>
</svg>
