<svg xmlns="http://www.w3.org/2000/svg" width="250" height="48" viewBox="0 0 250 48">
    <defs>
        <clipPath id="1l7ngbx04a">
            <path data-name="사각형 3799" style="fill:#fff" d="M0 0h250v46.723H0z"/>
        </clipPath>
    </defs>
    <g data-name="그룹 3932">
        <g data-name="그룹 3931" style="clip-path:url(#1l7ngbx04a)" transform="translate(0 1)">
            <path data-name="패스 611" d="M176.671 4.139s.006-.278-.4-.29c0 0-1.466.19-1.7.166 0 0-1.086-.059-1.568-.154 0 0-.271-.081-.356.127a.3.3 0 0 0 .064.339 6.543 6.543 0 0 1 .885.894 3.25 3.25 0 0 1 .685 2.227h.007v11.5s-8.739-12.935-9.542-14.86c0 0-.1-.137-.811-.109 0 0-1.039.083-1.3.064a7.99 7.99 0 0 1-1.125-.143s-.327-.075-.377.186a.337.337 0 0 0 .24.433s.9.334 1 1.861v1.151l.1 11.117s-.045 3.052-.445 3.7a2.322 2.322 0 0 1-1.176 1.255s-.2.057-.132.225c.008.014.013.02.039.042 0 0 .006.011.013.011a.782.782 0 0 0 .379.081 1.586 1.586 0 0 0 .394-.05c.007-.014.052-.017.083-.017a11.25 11.25 0 0 1 2.313.023 1.259 1.259 0 0 0 .723-.02.061.061 0 0 0 .036-.013.117.117 0 0 0 .058-.043.134.134 0 0 0 .036-.171s-.013-.017-.021-.017a2.966 2.966 0 0 1-1.159-1.609 19.884 19.884 0 0 1-.28-3.4s-.134-11.545-.1-11.911c0 0 9.127 12.835 11 17.111 0 0 .226.671.715.525a.4.4 0 0 0 .205-.291l-.03-1.128V7.519h.008a3.774 3.774 0 0 1 1.459-3.074.342.342 0 0 0 .077-.305" transform="translate(-24.415 -.585)" style="fill:#fff"/>
            <path data-name="패스 612" d="M154.919 13.95c0 5.719-1.656 9.688-5.775 9.688-3.8 0-5.762-3.968-5.762-9.688s1.928-9.69 5.762-9.69 5.775 3.98 5.775 9.69m-5.708-10.5C144.672 3.449 141 8.174 141 14c0 5.808 3.671 10.518 8.209 10.518s8.205-4.71 8.205-10.518c0-5.824-3.677-10.549-8.205-10.549" transform="translate(-21.422 -.524)" style="fill:#fff"/>
            <path data-name="패스 613" d="M111.22 13.95c0 5.719-1.66 9.688-5.768 9.688-3.8 0-5.769-3.968-5.769-9.688s1.921-9.69 5.769-9.69 5.768 3.98 5.768 9.69m-5.712-10.5C100.976 3.449 97.3 8.174 97.3 14c0 5.808 3.673 10.518 8.205 10.518s8.206-4.71 8.206-10.518c0-5.824-3.67-10.549-8.206-10.549" transform="translate(-14.783 -.524)" style="fill:#fff"/>
            <path data-name="패스 614" d="M74.47 8.226a3.657 3.657 0 0 0-1.46-2.593l-.067-.066s-.189-.151-.276-.225a6.054 6.054 0 0 0-3.229-1l-.338-.006A3.353 3.353 0 0 0 65.7 7.3c-.015.077-.03.209-.036.288 0 0 0 .215-.014.388v.142a3.55 3.55 0 0 0 2.422 3.509 16.406 16.406 0 0 0 2.147.606s1.205.293 1.75.4l.308.093a4.787 4.787 0 0 1 3.768 4.542v.056a14.4 14.4 0 0 1-.115 1.78 6.075 6.075 0 0 1-4.8 5.086s-3.73 1.429-8.575-2.01l.789-3.614s.118-.3.27.07a5.54 5.54 0 0 0 2.825 4.193s3.345 1.67 5.853.022a4.855 4.855 0 0 0 1.808-4.234 3.426 3.426 0 0 0-2.626-3.186s-.715-.254-1.929-.594c0 0-2.321-.7-2.516-.791l-.095-.03a4.7 4.7 0 0 1-2.82-2.542 4.5 4.5 0 0 1-.372-1.963V9.12a5.69 5.69 0 0 1 5.048-5.575c.2-.027.782-.095.985-.095h.075a8.471 8.471 0 0 1 5.745 2.017 17.379 17.379 0 0 1-.746 2.916.2.2 0 0 1-.253.1s-.072-.022-.111-.154z" transform="translate(-9.504 -.524)" style="fill:#fff"/>
            <path data-name="패스 615" d="M92.282 4.147H80.843s-.527-.073-.585.169a.262.262 0 0 0 .074.305 2.7 2.7 0 0 1 .849 2.392v11.76a12.926 12.926 0 0 1-.236 3.289 2.1 2.1 0 0 1-.868 1.316s-.343.169-.335.433c0 0 0 .187.239.187h13.367a24.145 24.145 0 0 0 .943-4.173s.036-.176-.118-.212a.772.772 0 0 0-.393.334 5.17 5.17 0 0 1-1.98 2.115 8.8 8.8 0 0 1-3.73 1.008l-2.927.017a1.844 1.844 0 0 1-1.425-.528s-.562-.591-.562-3.008v-5.78l5.307.181A2.889 2.889 0 0 1 90.829 16s.029.144.154.147c0 0 .1.059.1-.183V10.8s.009-.166-.086-.171a.183.183 0 0 0-.17.117s-.6 1.175-.7 1.253c0 0-.292.672-1.739.76l-5.247.205v-7.9h5a5.844 5.844 0 0 1 2.883.868 5.848 5.848 0 0 1 1.7 2 .675.675 0 0 0 .38.352s.131.048.1-.215c0 0-.678-3.363-.92-3.934" transform="translate(-12.115 -.629)" style="fill:#fff"/>
            <path data-name="패스 616" d="M272.767 4.147h-11.449s-.526-.073-.589.169a.268.268 0 0 0 .078.305 2.694 2.694 0 0 1 .849 2.392v11.76a13.282 13.282 0 0 1-.234 3.289 2.092 2.092 0 0 1-.869 1.316s-.344.169-.335.433c0 0 0 .187.238.187h13.369a24.145 24.145 0 0 0 .943-4.173.176.176 0 0 0-.125-.212.8.8 0 0 0-.392.334 5.158 5.158 0 0 1-1.973 2.115 8.836 8.836 0 0 1-3.728 1.008l-2.939.017a1.839 1.839 0 0 1-1.423-.528s-.555-.591-.555-3.008v-5.78l5.31.181A2.868 2.868 0 0 1 271.3 16s.029.144.161.147c0 0 .1.059.1-.183V10.8s.014-.166-.081-.171a.192.192 0 0 0-.176.117A13.322 13.322 0 0 1 270.6 12s-.286.672-1.732.76l-5.255.205v-7.9h5a5.868 5.868 0 0 1 2.885.868 5.838 5.838 0 0 1 1.7 2 .7.7 0 0 0 .371.352s.138.048.11-.215c0 0-.686-3.363-.913-3.934" transform="translate(-39.535 -.629)" style="fill:#fff"/>
            <path data-name="패스 617" d="M228.171 3.888s-.532-.073-.6.176a.265.265 0 0 0 .085.3 1.2 1.2 0 0 0 .205.117c.336.154.939.62.855 2.259v12a12.807 12.807 0 0 1-.236 3.29 3.08 3.08 0 0 1-1.089 1.428s-.339.056-.334.32c0 0 0 .187.24.187h12.37a22.352 22.352 0 0 0 .89-4.022s.045-.168-.109-.2a.813.813 0 0 0-.4.327 4.9 4.9 0 0 1-1.927 1.962 8.856 8.856 0 0 1-3.731 1.008l-1.715-.04a1.869 1.869 0 0 1-1.412-.54s-.571-.535-.571-2.952v-5.78l-.008-.8V6.687a2.759 2.759 0 0 1 .46-1.8s.5-.511.592-.564c0 0 .189-.125.126-.276 0 0-.091-.161-.514-.125a9.445 9.445 0 0 1-1.482.12s-1.424-.1-1.694-.156" transform="translate(-34.498 -.589)" style="fill:#fff"/>
            <path data-name="패스 618" d="M244.814 3.888s-.533-.073-.593.176a.264.264 0 0 0 .081.3 1.544 1.544 0 0 0 .209.117c.33.154.946.62.851 2.259v12a13.126 13.126 0 0 1-.226 3.29 3.157 3.157 0 0 1-1.09 1.428s-.349.056-.337.32c0 0-.008.187.236.187h12.37a22.7 22.7 0 0 0 .9-4.022.163.163 0 0 0-.119-.2.835.835 0 0 0-.4.327 4.895 4.895 0 0 1-1.925 1.962 8.785 8.785 0 0 1-3.723 1.008l-1.721-.04a1.894 1.894 0 0 1-1.425-.54s-.561-.535-.561-2.952v-5.78l-.015-.8V6.687a2.772 2.772 0 0 1 .47-1.8s.5-.511.583-.564c0 0 .2-.125.125-.276 0 0-.082-.161-.5-.125a9.586 9.586 0 0 1-1.489.12s-1.42-.1-1.7-.156" transform="translate(-37.027 -.589)" style="fill:#fff"/>
            <path data-name="패스 619" d="M190.738 3.878a10.2 10.2 0 0 0 3.123.061s.425-.076.505 0c0 0 .21.063.1.349a1.525 1.525 0 0 1-.461.5.718.718 0 0 0-.272.723 3.905 3.905 0 0 0 .12.862l5.219 13.93 4.067-11.544a16.6 16.6 0 0 0 .65-2.742s-.043-1.348-1.08-1.549a.288.288 0 0 1-.109-.377.26.26 0 0 1 .175-.178c.155-.039.884.122 1.739.092a6.764 6.764 0 0 1 1.948-.051.208.208 0 0 1 .031.322 12.054 12.054 0 0 0-2.059 3.776l-5.8 16.085s-.088.3-.34.259c0 0-.221.036-.288-.266l-5.8-16.647a10.76 10.76 0 0 0-1.717-2.974s-.244-.254-.169-.5c0 0 .052-.207.432-.131" transform="translate(-28.911 -.587)" style="fill:#fff"/>
            <path data-name="패스 620" d="M127.056 8.545c-1.039 4.127-3.982 15.831-4.186 15.8 0 0-.225.036-.271-.266l-4.912-16.648a5.37 5.37 0 0 0-1.469-2.931.416.416 0 0 1-.159-.432.422.422 0 0 1 .5-.242s1.716.073 3.177.036c0 0 .424-.052.5.025a.327.327 0 0 1 .124.437s-.174.139-.531.386a.808.808 0 0 0-.316.745 14.743 14.743 0 0 0 .307 1.907l3.482 11.925.628-2.1 3.653-13.649h.138L132 19.121l2.515-9.37a21.987 21.987 0 0 0 .629-3.819 1.839 1.839 0 0 0-.934-1.56.333.333 0 0 1-.131-.4s-.036-.12.2-.108a10.514 10.514 0 0 0 1.622.092c.685-.039 1.1-.081 1.479-.117a.531.531 0 0 1 .361.036.274.274 0 0 1 .027.426A9.4 9.4 0 0 0 135.814 8l-4.408 16.344c-.08.247-3.732-13.579-4.307-15.775z" transform="translate(-17.63 -.539)" style="fill:#fff"/>
            <path data-name="패스 621" d="M292.066 4.282a.176.176 0 0 0-.117-.114c-.394-.164-.862 0-1.732-.022-.723-.022-1.357-.117-1.614-.117a.659.659 0 0 0-.2.059.367.367 0 0 0-.078.132.254.254 0 0 0 .109.359 1.266 1.266 0 0 1 .775 1.641 12.386 12.386 0 0 1-.615 1.3l-3.658 6.408-3.855-6.8a5.636 5.636 0 0 1-.4-1.412 1.342 1.342 0 0 1 .134-.838 4.258 4.258 0 0 1 .656-.388c.109-.291-.1-.349-.1-.349-.08-.073-.671 0-.671 0a12.347 12.347 0 0 1-3.373-.049c-.381-.075-.422.123-.422.123a.443.443 0 0 0 .167.444A15.055 15.055 0 0 1 279 7.291l4.28 8.024v3.592a24.328 24.328 0 0 1-.138 3.492 2.284 2.284 0 0 1-.8 1.2.282.282 0 0 0-.235.291.187.187 0 0 0 .2.2h3.927a.194.194 0 0 0 .2-.2.3.3 0 0 0-.249-.291 2.259 2.259 0 0 1-.8-1.2 25.338 25.338 0 0 1-.139-3.492l-.022-3.656 4.338-7.436a29.7 29.7 0 0 1 2.358-3.126.63.63 0 0 0 .131-.174.7.7 0 0 0 .024-.234" transform="translate(-42.069 -.612)" style="fill:#fff"/>
            <path data-name="패스 622" d="M222.555 23.833a14.976 14.976 0 0 0-3.678-.017s-.434.027-.5-.053c0 0-.175.075-.051-.2a2.956 2.956 0 0 1 .452-.371 1.083 1.083 0 0 0 .269-.855 7.512 7.512 0 0 0-.151-.986l-4.871-14.6-4.465 12.207c-.6 1.895-.664 1.841-.689 2.7 0 0-.034 1.3.987 1.677 0 0 .227.048.109.308a.221.221 0 0 1-.176.126c-.144.048-.752-.082-1.611-.056a6.1 6.1 0 0 1-1.936-.008s-.2-.1-.031-.3c0 0 .916-.678 2.047-3.736l6.073-16.09s.079-.3.334-.259c0 0 .236-.037.287.276l5.987 16.643s.89 2.4 1.759 2.994c0 0 .35.22.28.469 0 0-.054.212-.427.133" transform="translate(-31.32 -.504)" style="fill:#fff"/>
            <path data-name="사각형 3798" transform="translate(179.767 12.783)" style="fill:#fff" d="M0 0h5.883v.879H0z"/>
            <path data-name="패스 623" d="M142.927 38.682h-.311l-.081.084c-.2.207-.411.421-.669.421a1.114 1.114 0 0 1-.475-.13l-.038-.012a3.37 3.37 0 0 0-1.531-.364c-3.411 0-6.838 3.106-7.335 6.645a3.738 3.738 0 0 0 .743 3.056 3.6 3.6 0 0 0 2.822 1.135 5.422 5.422 0 0 0 4.523-2.591l.127-.176h-.611l-.033.039a4.318 4.318 0 0 1-3.446 1.861 2.37 2.37 0 0 1-1.854-.762 2.894 2.894 0 0 1-.552-2.346c.36-2.574 2.47-6.144 5.5-6.144a1.57 1.57 0 0 1 1.729 2.036l-.1.755h.472l1.277-3.507z" transform="translate(-20.121 -5.877)" style="fill:#fff"/>
            <path data-name="패스 624" d="M142.984 47.632a2.236 2.236 0 0 0 .449 1.824 2.069 2.069 0 0 0 1.624.661c2.376 0 4.57-2.505 4.872-4.664a2.355 2.355 0 0 0-.461-1.9 1.886 1.886 0 0 0-1.468-.618c-2.2 0-4.675 2.325-5.012 4.7m1.571 1.609a1.33 1.33 0 0 1-.219-1.075c.248-1.792 1.9-4.641 3.386-4.641a.824.824 0 0 1 .656.268 1.3 1.3 0 0 1 .218 1.029c-.282 2.012-1.978 4.705-3.326 4.705a.9.9 0 0 1-.715-.286" transform="translate(-21.719 -6.523)" style="fill:#fff"/>
            <path data-name="패스 625" d="m158.877 42.932-1.255.193-.3.733C156.051 47 153.763 49 153.139 49a.183.183 0 0 1-.136-.048.21.21 0 0 1-.031-.162 6.254 6.254 0 0 1 .479-1.3l.3-.693a16.427 16.427 0 0 0 1.175-3.095.7.7 0 0 0-.134-.569.65.65 0 0 0-.507-.2c-.8 0-1.812.989-2.3 1.655l-.063.089.367.281.28-.309c.244-.273.578-.654.827-.654l.036.013c.01.008.018.042.01.095a7.982 7.982 0 0 1-.613 1.645l-.611 1.456a9.313 9.313 0 0 0-.639 1.88.989.989 0 0 0 .187.784.767.767 0 0 0 .6.247c1.223 0 2.669-1.707 3.59-2.933a9.108 9.108 0 0 0-.78 2.208.753.753 0 0 0-.01.134.569.569 0 0 0 .133.393.66.66 0 0 0 .509.2c.927 0 1.954-1.314 2.247-1.717l.06-.082-.363-.31-.075.091c-.593.74-.833.952-1.07.952a.124.124 0 0 1-.033-.006v-.094a10.212 10.212 0 0 1 .523-1.38l1.981-4.667z" transform="translate(-23.028 -6.518)" style="fill:#fff"/>
            <path data-name="패스 626" d="m162.557 45.707 1.2-2.772h-.317l-2.431.416-.08.015-.071.515.583-.078a.574.574 0 0 1 .415.112.213.213 0 0 1 .038.176 4.056 4.056 0 0 1-.254.693l-.226.535-1.933 4.615h1.319l.7-1.55c.721-1.609 2.977-4.337 3.765-4.337.071 0 .121.013.145.047a.26.26 0 0 1 .028.209 13.968 13.968 0 0 1-.872 2.254l-.02.049a16.939 16.939 0 0 0-1.053 2.74.687.687 0 0 0 .142.561.653.653 0 0 0 .5.21c.8 0 1.9-1.189 2.312-1.763l.069-.1-.4-.254-.063.078c-.382.466-.907.969-1.088.969l-.026-.012a.116.116 0 0 1-.024-.091c.02-.12.458-1.128.751-1.793l.087-.2.306-.726a8.632 8.632 0 0 0 .809-2.263.972.972 0 0 0-.2-.769.787.787 0 0 0-.613-.262c-1.187 0-2.562 1.605-3.5 2.772" transform="translate(-24.23 -6.523)" style="fill:#fff"/>
            <path data-name="패스 627" d="M173.024 40.747h-.368l-.033.045c-.959 1.3-1.555 1.891-2.749 2.18l-.054.015-.2.512h1.091l-1.811 4.369a7.109 7.109 0 0 0-.35 1.086 1.036 1.036 0 0 0-.01.147.683.683 0 0 0 .159.461.717.717 0 0 0 .561.222c.814 0 1.892-1.107 2.4-1.76l.065-.091-.4-.3-.114.137c-.238.3-.878 1.084-1.247 1.084l-.027-.007a.161.161 0 0 1-.018-.083.333.333 0 0 1 0-.047 5.293 5.293 0 0 1 .347-.957l.05-.114 1.744-4.15h1.14l.292-.713h-1.153l.847-2.039z" transform="translate(-25.607 -6.191)" style="fill:#fff"/>
            <path data-name="패스 628" d="M175.674 45.824c.419-.965 1.259-2.889 1.259-2.889h-.319l-2.425.415-.081.016-.072.514.581-.078a.573.573 0 0 1 .416.112.21.21 0 0 1 .038.176 3.611 3.611 0 0 1-.254.684l-.225.544-1.9 4.616h1.322l.352-.918a12.416 12.416 0 0 1 3.471-4.711c.113 0 .127.035.139.221s.035.486.476.486c.628 0 .968-.941 1.027-1.367a.662.662 0 0 0-.118-.543.518.518 0 0 0-.415-.166c-.891 0-2.418 1.754-3.273 2.889" transform="translate(-26.237 -6.523)" style="fill:#fff"/>
            <path data-name="패스 629" d="m182.181 42.934-2.277.574.011.5.131-.03a3.576 3.576 0 0 1 .664-.042.443.443 0 0 1 .333.114 1.437 1.437 0 0 1 .191.917c0 .169-.007.352-.02.555 0 0-.256 4.608-.259 4.681a9.776 9.776 0 0 1-2.289 2c-.01-.025-.025-.083-.025-.083l-.025-.107a.41.41 0 0 0-.452-.357 1.082 1.082 0 0 0-.943.879.612.612 0 0 0 .144.5.6.6 0 0 0 .46.21c.924 0 1.963-.98 4.088-3.319l.278-.3c2.443-2.687 3.917-4.306 4.09-5.535a1.214 1.214 0 0 0-.208-.937.638.638 0 0 0-.5-.218.847.847 0 0 0-.839.769 1.214 1.214 0 0 0-.01.159.673.673 0 0 0 .485.656c.157.075.2.107.2.162v.018a17.579 17.579 0 0 1-2.464 3.274l-.6.721.187-3.573c.011-.259.021-.49.021-.706a3.584 3.584 0 0 0-.244-1.416l-.036-.09z" transform="translate(-26.924 -6.52)" style="fill:#fff"/>
            <path data-name="패스 630" d="M203 38.682h-.312l-.08.084c-.2.207-.414.421-.667.421a1.184 1.184 0 0 1-.478-.13 3.486 3.486 0 0 0-1.566-.376c-3.413 0-6.841 3.106-7.336 6.645a3.735 3.735 0 0 0 .741 3.056 3.609 3.609 0 0 0 2.822 1.135 5.424 5.424 0 0 0 4.524-2.591l.127-.176h-.611l-.035.039a4.308 4.308 0 0 1-3.442 1.861 2.381 2.381 0 0 1-1.856-.762 2.894 2.894 0 0 1-.551-2.346c.359-2.574 2.474-6.144 5.5-6.144a1.572 1.572 0 0 1 1.732 2.036l-.109.755h.472l1.281-3.507z" transform="translate(-29.248 -5.877)" style="fill:#fff"/>
            <path data-name="패스 631" d="M208.3 38.379h-.157l-2.5.427-.071.517.581-.08a.581.581 0 0 1 .416.112.2.2 0 0 1 .038.176 3.911 3.911 0 0 1-.254.691l-.226.538-2.872 6.958a4.962 4.962 0 0 0-.31.876.753.753 0 0 0 .144.609.721.721 0 0 0 .561.221c.815 0 1.892-1.106 2.4-1.76l.069-.091-.4-.3-.067.081c-.527.617-.974 1-1.171 1l-.064-.013-.005-.059a2.146 2.146 0 0 1 .163-.459c0-.005 3.893-9.449 3.893-9.449z" transform="translate(-30.832 -5.831)" style="fill:#fff"/>
            <path data-name="패스 632" d="m215.082 42.932-1.253.193-.3.733C212.257 47 209.971 49 209.346 49a.184.184 0 0 1-.137-.048.222.222 0 0 1-.032-.162 6.23 6.23 0 0 1 .481-1.3l.3-.693a16.792 16.792 0 0 0 1.175-3.095.706.706 0 0 0-.133-.572.653.653 0 0 0-.508-.2c-.8 0-1.811.989-2.3 1.655l-.062.089.367.281.277-.309c.246-.273.579-.654.828-.654l.039.013a.144.144 0 0 1 .011.095 8.008 8.008 0 0 1-.62 1.645l-.608 1.456a9.145 9.145 0 0 0-.637 1.88.976.976 0 0 0 .187.784.766.766 0 0 0 .595.247c1.224 0 2.672-1.707 3.592-2.933a9.071 9.071 0 0 0-.78 2.208.839.839 0 0 0-.01.134.577.577 0 0 0 .134.393.655.655 0 0 0 .509.2c.948 0 2.034-1.432 2.243-1.717l.061-.082-.36-.315-.072.092c-.6.74-.838.952-1.073.952a.131.131 0 0 1-.032-.006v-.094a10.815 10.815 0 0 1 .523-1.38c.007-.02 1.98-4.667 1.98-4.667z" transform="translate(-31.568 -6.518)" style="fill:#fff"/>
            <path data-name="패스 633" d="M221.379 38.38h-.159l-2.5.427-.07.518.58-.081a.575.575 0 0 1 .416.113.2.2 0 0 1 .038.176 3.416 3.416 0 0 1-.257.69l-.221.538-3.246 7.745.064.051a3.336 3.336 0 0 0 2.213.869c2.368 0 4.785-2.767 5.1-5.031a2.02 2.02 0 0 0-.393-1.641 1.537 1.537 0 0 0-1.2-.511 3.313 3.313 0 0 0-2.254 1.048c.271-.643 2.061-4.911 2.061-4.911zm-2.679 6.838a3 3 0 0 1 2.438-2.032.657.657 0 0 1 .527.227 1.542 1.542 0 0 1 .234 1.151c-.251 1.782-1.718 4.27-3.531 4.27a2.092 2.092 0 0 1-1.042-.339l1.375-3.277" transform="translate(-32.811 -5.831)" style="fill:#fff"/>
            <path data-name="패스 634" d="M27.723 18.6z" transform="translate(-4.212 -2.826)" style="fill:#fff"/>
            <path data-name="패스 635" d="M26.271.276a3.694 3.694 0 0 1 1.37.974 3.278 3.278 0 0 1 1.008 2.12v.012a1.151 1.151 0 0 1-1.169 1.091 1.181 1.181 0 0 1-1.121-.656 2.334 2.334 0 0 1-.173-.416l-.013-.03A4.666 4.666 0 0 0 21.828.154h-.044A5.221 5.221 0 0 0 18.3 1.715l-.012.015a5.722 5.722 0 0 0-1.544 4.306v.092a8.594 8.594 0 0 0 .343 2.092 12.844 12.844 0 0 0 6.428 7.555 9.624 9.624 0 0 1 .066-3.059v-.011a18.19 18.19 0 0 1 6.93 9.274 18.03 18.03 0 0 1 .7 8.406 20.235 20.235 0 0 0-5.489-6.34 1.021 1.021 0 0 1-.116-.1l-.01-.01a.606.606 0 0 1-.177-.752l.008-.016a6.534 6.534 0 0 0 1.008-3.736 8.888 8.888 0 0 0-.127-1.6c-.036-.193-.153-.179-.153-.179a.175.175 0 0 0-.131.106 1.987 1.987 0 0 0-.08.409 7.362 7.362 0 0 1-1.514 4.195l-.02.02a.565.565 0 0 1-.888.007 31.593 31.593 0 0 1-7.678-12.495 11.656 11.656 0 0 1-.736-4.125v-.12A5.979 5.979 0 0 1 18.44 0h.009a21.43 21.43 0 0 0-.756 42.324l-.013-.01a8.97 8.97 0 0 1-5.8-8.119v-.032a1.471 1.471 0 0 1 1.4-1.509h.011a2 2 0 0 1 .279 0 1.358 1.358 0 0 1 1.383 1.329v.031a2.321 2.321 0 0 1-.2.963 4.379 4.379 0 0 0-.21 1.435l-.005.025c0 2.9 3.43 5.7 7.483 5.7a7.765 7.765 0 0 0 6.712-3.813l.012-.024a5.562 5.562 0 0 0 .618-1.95 4.733 4.733 0 0 0-1.76-4.569l-.013-.005a6.584 6.584 0 0 0-2.886-.8 23.888 23.888 0 0 1-5.5-1.453 12.631 12.631 0 0 1-7.182-8.531 9.756 9.756 0 0 1 3.137.89 11.761 11.761 0 0 1-.5-11.7 23.219 23.219 0 0 0 1.98 5.084 23.46 23.46 0 0 0 2.515 3.812l-.019.013h-.2a6.863 6.863 0 0 1-3.52-.85s-.146-.108-.25-.028a.185.185 0 0 0 0 .248s.411.985 3.9 1.521a1.431 1.431 0 0 1 .929.378s2.946 3.662 5.03 4.881l.065.052a13.613 13.613 0 0 1-1.957.142A13.2 13.2 0 0 1 17.54 24.2s-.234-.092-.329-.009c0 0-.17.145.048.372 0 0 1 1.18 4.128 1.623a25.608 25.608 0 0 0 3.111.193 3.9 3.9 0 0 1 1.371.144 3.07 3.07 0 0 1 .98.649 14.047 14.047 0 0 1 3.669 4.979v.017a7.767 7.767 0 0 1 .261 5.01 7.913 7.913 0 0 1-3.924 4.837l-.084.038a21.422 21.422 0 0 0-.5-41.778" style="fill:#fff"/>
        </g>
    </g>
</svg>
