<svg xmlns="http://www.w3.org/2000/svg" width="24" height="24" viewBox="0 0 24 24">
    <path d="M14.19 0H5.81C2.17 0 0 2.17 0 5.81v8.37C0 17.83 2.17 20 5.81 20h8.37c3.64 0 5.81-2.17 5.81-5.81V5.81C20 2.17 17.83 0 14.19 0zM10 16.25a6.117 6.117 0 0 1-4.14-1.77v.71a.75.75 0 0 1-1.5 0v-2.75a.755.755 0 0 1 .75-.75h2.48a.75.75 0 0 1 0 1.5h-.9A4.816 4.816 0 0 0 10 14.75 4.754 4.754 0 0 0 14.75 10a.75.75 0 0 1 1.5 0A6.252 6.252 0 0 1 10 16.25zm6.25-8.71v.08a.75.75 0 0 1-.09.3.791.791 0 0 1-.21.24.9.9 0 0 1-.24.12.761.761 0 0 1-.21.03h-2.43a.75.75 0 1 1 0-1.5h.83a5.651 5.651 0 0 0-3.88-1.56A4.754 4.754 0 0 0 5.27 10a.755.755 0 0 1-.75.75.773.773 0 0 1-.77-.75A6.252 6.252 0 0 1 10 3.75a7.136 7.136 0 0 1 4.75 1.82v-.76a.75.75 0 0 1 1.5 0z" transform="translate(2 2)" style="fill:#292d32" data-name="vuesax/bold/refresh-2"/>
</svg>
