<svg xmlns="http://www.w3.org/2000/svg" width="16.262" height="16.262" viewBox="0 0 16.262 16.262">
    <g data-name="vuesax/bold/maximize">
        <path d="M6.1 2.134v1.83C6.1 5.488 5.488 6.1 3.964 6.1h-1.83C.61 6.1 0 5.488 0 3.964v-1.83C0 .61.61 0 2.134 0h1.83C5.488 0 6.1.61 6.1 2.134z" transform="translate(1.355 8.808)" style="fill:#fff"/>
        <path data-name="Vector" d="M9.134 0H3.74A3.739 3.739 0 0 0 0 3.74v2.019a.68.68 0 0 0 .678.678h3.049a2.71 2.71 0 0 1 2.71 2.71V12.2a.68.68 0 0 0 .678.678h2.019a3.438 3.438 0 0 0 3.74-3.74V3.74A3.739 3.739 0 0 0 9.134 0zm1.545 5.414a.508.508 0 0 1-1.016 0V3.923L7.135 6.457a.507.507 0 0 1-.718 0 .511.511 0 0 1 0-.718L8.944 3.2H7.453a.508.508 0 0 1 0-1.016h2.717a.515.515 0 0 1 .176.041.33.33 0 0 1 .047.02.387.387 0 0 1 .108.075.18.18 0 0 1 .041.034.863.863 0 0 1 .088.129c0 .007.007.014.007.02a.39.39 0 0 1 .034.176c.007.007.007.007.007.014z" transform="translate(2.033 1.355)" style="fill:#fff"/>
    </g>
</svg>
