<svg data-name="vuesax/bold/document-text" xmlns="http://www.w3.org/2000/svg" width="17.773" height="17.773" viewBox="0 0 17.773 17.773">
    <path data-name="Vector" d="M9.627 0H3.7C1.111 0 0 1.481 0 3.7v7.405c0 2.222 1.111 3.7 3.7 3.7h5.927c2.592 0 3.7-1.481 3.7-3.7V3.7c.003-2.219-1.108-3.7-3.7-3.7zM3.7 7.59h2.965a.555.555 0 0 1 0 1.111H3.7a.555.555 0 0 1 0-1.111zm5.924 4.073H3.7a.555.555 0 1 1 0-1.111h5.927a.555.555 0 1 1 0 1.111zm1.851-6.295H10a2.035 2.035 0 0 1-2.039-2.036V1.851a.555.555 0 1 1 1.111 0v1.481a.926.926 0 0 0 .928.926h1.481a.555.555 0 1 1 0 1.111z" transform="translate(2.222 1.481)" style="fill:#382413"/>
</svg>
