<svg data-name="vuesax/bold/task-square" xmlns="http://www.w3.org/2000/svg" width="31.318" height="31.318" viewBox="0 0 31.318 31.318">
    <path d="M18.517 0H7.581C2.832 0 0 2.832 0 7.581v10.936C0 23.266 2.832 26.1 7.581 26.1h10.936c4.75 0 7.581-2.832 7.581-7.581V7.581C26.1 2.832 23.266 0 18.517 0zM10.4 16.833l-2.936 2.936a.968.968 0 0 1-.692.287.947.947 0 0 1-.692-.287l-.98-.978a.961.961 0 0 1 0-1.383.985.985 0 0 1 1.383 0l.287.287 2.247-2.245a.978.978 0 1 1 1.383 1.383zm0-9.134-2.936 2.936a.968.968 0 0 1-.692.287.947.947 0 0 1-.692-.287l-.98-.979a.961.961 0 0 1 0-1.383.985.985 0 0 1 1.383 0l.287.287 2.247-2.244A.978.978 0 1 1 10.4 7.7zm9.9 11.379h-6.846a.979.979 0 0 1 0-1.957H20.3a.979.979 0 1 1 0 1.957zm0-9.134h-6.846a.979.979 0 0 1 0-1.957H20.3a.979.979 0 1 1 0 1.957z" transform="translate(2.61 2.61)" style="fill:#382413"/>
</svg>
