<svg xmlns="http://www.w3.org/2000/svg" width="23.103" height="23.103" viewBox="0 0 23.103 23.103">
    <g data-name="vuesax/bold/maximize">
        <path d="M8.664 3.032v2.6c0 2.166-.866 3.032-3.032 3.032h-2.6C.866 8.664 0 7.8 0 5.631v-2.6C0 .866.866 0 3.032 0h2.6C7.8 0 8.664.866 8.664 3.032z" transform="translate(1.925 12.514)" style="fill:#4d4d4d"/>
        <path data-name="Vector" d="M12.976 0H5.314A5.312 5.312 0 0 0 0 5.314v2.868a.965.965 0 0 0 .963.963h4.331A3.849 3.849 0 0 1 9.145 13v4.332a.965.965 0 0 0 .963.963h2.869c3.321 0 5.314-1.983 5.314-5.314V5.314A5.312 5.312 0 0 0 12.976 0zm2.195 7.691a.722.722 0 0 1-1.444 0V5.574l-3.591 3.6a.72.72 0 0 1-1.02 0 .726.726 0 0 1 0-1.02l3.591-3.61h-2.118a.722.722 0 1 1 0-1.444h3.86a.731.731 0 0 1 .25.058.469.469 0 0 1 .067.029.55.55 0 0 1 .154.106.255.255 0 0 1 .058.048 1.226 1.226 0 0 1 .125.183c0 .01.01.019.01.029a.554.554 0 0 1 .048.25c.01.01.01.01.01.019z" transform="translate(2.888 1.925)" style="fill:#4d4d4d"/>
    </g>
</svg>
