<svg data-name="그룹 145" xmlns="http://www.w3.org/2000/svg" width="310.687" height="102.656" viewBox="0 0 310.687 102.656">
    <defs>
        <clipPath id="7khhh9rsxa">
            <path data-name="사각형 795" style="fill:#fff" d="M0 0h310.687v102.656H0z"/>
        </clipPath>
    </defs>
    <g data-name="그룹 144" style="clip-path:url(#7khhh9rsxa)">
        <path data-name="패스 7435" d="M110.114 45.755c-3.343-6.407-14.58-9.682-24.245-10.075l-.032-.658a106.094 106.094 0 0 1 14.472-1.257 31.134 31.134 0 0 1 9.721 1.272l.945.327-.954.306a8.856 8.856 0 0 1-1.437.261c-.977.126-1.651.24-2 .634a21 21 0 0 1 3.08.348 18.387 18.387 0 0 0 2.775.306 5.3 5.3 0 0 0 1.454-.179c.029-.2.065-.409.093-.618.419-2.77.9-5.887-.375-7.747a35.7 35.7 0 0 0-6.277-.439c-3.316 0-7.008.236-10.177.466l-1.24.087c-6.959.495-15.6 1.108-17.837 4.72a4.576 4.576 0 0 0-.089 4.273c2.991.53 6.006.858 8.924 1.17 7.275.781 14.149 1.516 19.33 5.446 2.269 1.711 3.354 3.7 3.233 5.9-.227 4.088-4.629 8.119-8.691 10.53a51.744 51.744 0 0 1-23.031 7.022c-.433.021-.887.025-1.328.025a32.84 32.84 0 0 1-8.037-.864 24.932 24.932 0 0 1-4.6-1.779 19.546 19.546 0 0 1-4.642-3.485v.005a10.447 10.447 0 0 1-2.493-8.207 63.4 63.4 0 0 0 25.066 2.519C80.283 63.8 69.7 63.288 69.7 63.288c14.232 4.669 16.567-7.226 16.567-7.226.056-.27.092-.542.128-.8a36.435 36.435 0 0 0 10.123-3.9s-.224.06-.629.163c.146-.076.3-.133.443-.205a79.751 79.751 0 0 1-9.69 1.375c.25-10.021-8.05-12.3-8.05-12.3-14.784-3.945-20.2 4.843-21.811 8.7-1.564-.8-15.385-7.608-27.13-5.636a31.332 31.332 0 0 0-7.251 1.765 30.2 30.2 0 0 1 4.754-11.132C41.168 15.708 73.65-.454 105.478 1.528c10.547.653 27.3 5.483 28.879 12.809 3.493 16.177-14.393 21.5-22.957 28.374 7.347-3.7 17.191-8.518 21.736-15.309C144.754 10.05 123.038 1.288 107.451.241 72.764-2.085 40.306 12.759 25.48 32.344A32.466 32.466 0 0 0 20.092 46.1 68.23 68.23 0 0 0 0 59.291c1.372-1.343 13.035-9.544 19.9-11.179a25.389 25.389 0 0 0 5.58 17.31c1.981 2.539 5.516 5.111 8.894 5.422C25.6 67.426 21.3 57.8 22.107 47.677a25.016 25.016 0 0 1 4.771-.322s5.794-.955 19.322 2.694c2.86.827 6.055 1.88 9.6 3.2A15.424 15.424 0 0 0 59.051 64.9c3.282 4.626 10.066 7.046 15.218 7.328.745.046 1.5.066 2.26.066 13.106 0 26.54-6.157 31.956-14.634 2.857-4.5 3.411-8.492 1.628-11.906m-37.876-1.88c8.869 1.752 9.856 6.734 9.8 9.09a72.485 72.485 0 0 1-19.351-1.727 45.874 45.874 0 0 1-4.646-1.61c4.769-7.618 14.2-5.754 14.2-5.754" style="fill:#fff"/>
        <path data-name="패스 7436" d="m188.263 72.571-.394.153-.045-.434c-.369-4.5 2.149-8.507 4.576-12.391l.133-.21c.272-.444.571-.94.894-1.476 1.449-2.411 3.341-5.548 5.377-7.18 12.609-.695 16.671-5.819 16.671-5.819a22.234 22.234 0 0 1-7.328 2.948 30.957 30.957 0 0 1-7.533.429l.933-.634a7.329 7.329 0 0 0 3.105-7.281 4.858 4.858 0 0 0-4.267-3.711q-.235.629-.476 1.257c-1.691 4.429-3.428 8.967-7.971 10.735-5.314.327-7.752 1.631-7.752 1.631.933-.123 1.849-.2 2.738-.235 3.505-.042 4.958.746 4.958.746l.194.2-.156.22a199.788 199.788 0 0 0-2.6 3.812c-4.34 6.443-8.832 13.1-16.134 16.84l-.449.23-.02-.51c-.415-8.237 5.12-15.4 10.013-21.722 1.292-1.685 2.522-3.264 3.612-4.838 2.417-3.464 5.429-7.776 4.348-10.9-.532-1.564-2.012-2.734-4.516-3.582V32.8a21.006 21.006 0 0 1-.572 2.473c-1.752 2.82-3.5 5.824-5.187 8.742-6 10.317-12.2 20.975-20.749 27.347l-.574.46a2.167 2.167 0 0 1 .23-.992 79.124 79.124 0 0 1 7.524-12.554 6.306 6.306 0 0 0-4.178-3.469c-2.162 2.048-4.332 4.492-6.417 6.861-3.054 3.46-6.2 7.032-9.388 9.311l-.631.459.12-.772c1.641-10.954 9.247-15.869 16.478-19.236l.1-.052.115.02a1.957 1.957 0 0 1 1.135.89 1.438 1.438 0 0 0 .686.611 11.22 11.22 0 0 0-4.264-6.217c-8.089 3.99-16.67 9.4-17.075 22.768.231.308.465.614.686.929 1.228 1.7 2.4 3.317 4.665 3.848a62.127 62.127 0 0 0 3.764-5.39 49.165 49.165 0 0 1 4.956-6.787c.631-.6.908-.909.908-.909l.172-.159a19.343 19.343 0 0 0-1.031 2.29c-1.455 2.755-2.112 7.363-.766 9.99a3 3 0 0 0 2.836 1.8h.01a3.378 3.378 0 0 0 .493-.03c1.906-.21 2.867-2.355 3.926-4.6a15.313 15.313 0 0 1 3.573-4.976c.006-.031 1.118-.905 1.118-.905a3.332 3.332 0 0 0-.515 1.375 9.1 9.1 0 0 0 2.067 6.912 5.685 5.685 0 0 0 4.218 1.917 6.9 6.9 0 0 0 1.1-.1c2.145-.409 3.582-2.693 5.257-5.155 0 0 2.834-4.017 3.445-5.04a5.382 5.382 0 0 0-.209 1.04 9.23 9.23 0 0 0 2.193 7.23 6.354 6.354 0 0 0 4.509 2.32c.112 0 .227 0 .335-.015 3.458-.286 6.7-6.184 9.558-11.383.963-1.764 1.9-3.475 2.811-4.881a58.8 58.8 0 0 0-3.96 4.465c-3.083 3.7-6.251 7.521-11.384 9.336" transform="translate(-32.874 -7.066)" style="fill:#fff"/>
        <path data-name="패스 7437" d="M287.883 60.642a10.877 10.877 0 0 0-6.4-12.421l-1.153-.48 1.243-.149c5.627-.66 9.461-2.62 11.734-5.989a16.929 16.929 0 0 0-.362-4.751c-3.8-3.034-11.165-4.767-20.231-4.767-8.584 0-17.291 1.589-22.253 4.057-.5 1.195.2 3.878.756 5.258.407.031.8.071 1.189.112a13.957 13.957 0 0 0 1.668.133 4 4 0 0 0 1.612-.3.324.324 0 0 1-.068 0c-.379-.036-1.025-.1-1.082-.766l-.022-.261.249-.076a65.753 65.753 0 0 1 11.847-2.126c.6-.076 1.19-.143 1.783-.215l1.26-.158-1.029.745c-2.1 1.533-3.941 4.1-5.723 6.582-2.435 3.388-4.943 6.888-8.308 8.19a23.224 23.224 0 0 1-5.141 1.226 18.246 18.246 0 0 0-4.536 1.1c-4.4 1.9-10.12 5.359-9.119 13.566 2.028 4.971 8.912 8.538 16.744 8.665.211.005.413.005.618.005 14.063 0 32.846-7.926 34.725-17.184M268.9 47.04a8.852 8.852 0 0 1 2.8-3.542c1.643-1.461 3.182-2.841 2.614-5.2l-.08-.338.341-.066a30.384 30.384 0 0 1 5.464-.459 28.5 28.5 0 0 1 10.23 1.644l.5.206-.412.346c-4.652 3.935-11.361 6.423-21.1 7.833l-.527.076zm13.306 17.025c-6.8 5.309-20.229 9.467-30.576 9.467a33.85 33.85 0 0 1-2.606-.1c-4.215-.3-11.454-1.931-11.944-6.1-.643-5.656 5.858-7.735 11.077-9.412.667-.214 1.329-.419 1.947-.633l.315-.1.1.311c.359 1.083-.761 2.422-2.171 4.113-1.65 1.973-3.517 4.216-3.226 6.336a4.177 4.177 0 0 0 1.9 2.758 87.168 87.168 0 0 1 12.657-14.117l.089-.092h.48a19.306 19.306 0 0 1 13.559 4.906c-.8-4.926-4.789-6.683-10.479-7.742l-.446-.081.21-.4c1.225-2.234 4.222-3.46 8.442-3.46 6.729 0 15.116 3.152 15.449 7.071.169 2.035-2.717 5.662-4.779 7.266" transform="translate(-53.985 -7.349)" style="fill:#fff"/>
        <path data-name="패스 7438" d="M323.543 73.023v-.005s-.018.02 0 .005" transform="translate(-74.109 -16.725)" style="fill:#fff"/>
        <path data-name="패스 7439" d="M394.659 42.6a9.794 9.794 0 0 0-4.1-7.505 11.171 11.171 0 0 0-7.43-2.316c-6.4.389-6.8 4.921-6.8 4.921-.429 1.6.43.536.43.536a6.741 6.741 0 0 1 4.612-4.179 7.992 7.992 0 0 1 8.208 1.706 6.62 6.62 0 0 1 2.1 6.411c-1.524 11.278-18.027 18.5-24.371 20.869a51.982 51.982 0 0 0 12.01-3.832c18.2-7.843 15.343-16.611 15.343-16.611" transform="translate(-84.134 -7.503)" style="fill:#fff"/>
        <path data-name="패스 7440" d="M354.522 56.644a8.266 8.266 0 0 0-2.657-2.263c-.394-.245-.8-.506-1.192-.792a100.955 100.955 0 0 0-9.74 10.71c-2.18 2.636-4.281 5.175-6.454 7.459l-1.435 1.452a37.043 37.043 0 0 1-3.519 3.085l-.387.3-.129-.479a5.919 5.919 0 0 1-.177-1.436s.011-.364.075-.936c.479-3.2 3.276-6.422 6-9.559 2.812-3.24 5.454-6.3 4.89-8.7-.288-1.212-1.38-2.213-3.335-3.061-4.689 9.406-11.862 15.962-18.793 22.307a69.457 69.457 0 0 0-1.679 1.543l-.664.649c-.148-.205.231-1.022.231-1.022a81.793 81.793 0 0 1 7.571-12.7 6.324 6.324 0 0 0-4.172-3.471c-2.169 2.048-4.336 4.492-6.422 6.864-3.059 3.458-6.214 7.03-9.374 9.315l-.648.459.123-.776c1.639-10.95 9.248-15.876 16.473-19.243l.1-.05.109.03a1.942 1.942 0 0 1 1.137.89 1.4 1.4 0 0 0 .688.608 11.2 11.2 0 0 0-4.266-6.214c-8.09 3.991-16.663 9.4-17.078 22.757.24.308.461.619.687.931 1.237 1.712 2.4 3.326 4.666 3.852a62.157 62.157 0 0 0 3.767-5.385 49.78 49.78 0 0 1 4.959-6.786l.91-.909c-.721 1.676-.858 1.992-.877 2.045l-.017.04c-1.449 2.729-2.059 7.352-.711 10.009a3.7 3.7 0 0 0 .8 1.079 4.921 4.921 0 0 0 .887.541 3.071 3.071 0 0 0 1.143.21 3.9 3.9 0 0 0 .478-.032 3.814 3.814 0 0 0 2.333-1.681l.788-1.15c.654-1.021 1.277-2.206 1.89-3.393a21.472 21.472 0 0 1 3.511-5.182 7.569 7.569 0 0 1 1.594-1.26c.361-.143-.145.566-.283.9a10.057 10.057 0 0 0-.583 6.688c.076.368.22.8.22.8a9.66 9.66 0 0 0 .887 2 4.151 4.151 0 0 0 3.409 2.278c.064 0 .135 0 .2-.01 2.179-.137 4.062-3.591 5.716-6.622.3-.532.581-1.038.873-1.523 0 0 .557-.91.766-1.237a16.028 16.028 0 0 1 1.967-2.509c.007-.035 1.371-1.119 1.371-1.119s-.3.573-.768 1.62c-.27.439-.517.914-.787 1.405l-.618 1.175a201.619 201.619 0 0 0-2.656 5.51c-1.47 3.115-3.032 6.427-4.714 9.456-.783 1.385-2.681 5.37-3.516 6.76-8.156 13.52-9.1 13-17.674 16.882s-18.258 1.119-18.258 1.119a15.143 15.143 0 0 1-4.966-2.023c-5.25-3.445-1.283-9.577-1.283-9.577 3.658-6.805 17.192-13.714 26.9-18.323 0 0-1.423.4-2.273.7s-2.429 1.006-2.429 1.006C289.5 90.837 284.958 97.49 284.958 97.49c-7.356 8.451-.682 13.222-.682 13.222 9.524 6.288 24.732 1.088 24.732 1.088 17.2-6.234 18.119-9.81 23.5-17.93a11.517 11.517 0 0 0 1.612-2.79c1.273-2.279 2.471-4.8 3.681-7.4 1.033-2.216 2.105-4.5 3.248-6.632 1.577-2.927 3.247-5.666 4.914-8.236l.718-1.078c2.261-3.424 4.509-6.521 6.49-9.244.463-.634.913-1.242 1.346-1.845" transform="translate(-64.48 -11.823)" style="fill:#fff"/>
        <path data-name="패스 7441" d="M238.169 118.354c-.345.358-1.356 1.277-2.142 1.925-1.135.946-2.72 2.148-3.94 2.148a2.485 2.485 0 0 1-1.642-.705c-.695-3.925 1.21-6.638 3.154-9.27 1.476-1.991 4.411-5.227 4.845-7.985a2.543 2.543 0 0 1 1.539 1.563c.362 1.452-2.591 4.542-3.94 6.233-.506.629-.989 1.227-1.361 1.794l-.443.638c-1.442 2.121-2.8 4.118-2.748 6.679l.008.321.276-.163c4.162-2.365 8.645-6.316 10.724-9.871.745.05 1.026.556 1.335 1.139.043.081.093.173.141.255a16.8 16.8 0 0 1-1.688 2.55 10.924 10.924 0 0 0-2.56 5.3l-.07.492.377-.322a45.606 45.606 0 0 0 6.178-5.728c.809-1.017 1.648-2.065 2.45-2.984a3.268 3.268 0 0 1 1.363 1.022c.057.051.1.1.153.153a11.393 11.393 0 0 1-1.623 2.508 8.235 8.235 0 0 0-2.174 4.64l-.042.5.362-.333c1.2-1.1 10.7-7.941 12.939-14.94a2.012 2.012 0 0 1 1.6 1.042c.461 1.213-1.051 3.215-2.27 4.819-.457.6-2.014 2.544-2.29 3.01 0 0-.135.306.412.045a5.227 5.227 0 0 1 2.159-.787c.651 0 1.484.272 1.421.946-.475 4.906-2.792 8.247-7.424 8.247a7.468 7.468 0 0 1-.942-.062 4.577 4.577 0 0 1-.376-3.8.935.935 0 0 0 .136-.537.33.33 0 0 0-.321-.358 11.71 11.71 0 0 0-2.217 1.575c-.686.581-2.05 1.782-2.591 2.267a1.854 1.854 0 0 1-.234.01 1.675 1.675 0 0 1-1.452-.633c-.734-.976-.322-2.8-.117-3.506.157-.75-.3-.3-.3-.3a10.011 10.011 0 0 0-1.442 2.043c-.59 1.048-2.551 2.187-3.594 2.718-.957-.7-1.507-1.885-1.27-4.144.013-.617-.352-.158-.352-.158m19.793-3.266c-2.872 1.984-4.532 2.831-5.208 7.149l-.086.951.277-.107c3.284-1.289 4.889-3.224 5.924-7.9.086-.531-.393-.389-.393-.389z" transform="translate(-52.752 -23.929)" style="fill-rule:evenodd;fill:#fff"/>
        <path data-name="패스 7442" d="M216.907 124.19a8.771 8.771 0 0 1-1.686-.179c-2.068-.429-4.03-2.887-3.612-6.1.777-5.9 8.78-11.082 13.811-11.992a7.625 7.625 0 0 1 1.653 2.218c.13.229.268.476.415.7a17.017 17.017 0 0 1-3.246 2.142c-.371.2-.746.413-1.115.628a19.463 19.463 0 0 1 1.526-1.758c.335-.353.682-.711 1-1.089l.338-.4-.551.09a15.843 15.843 0 0 0-8.413 4.564c-1.337 1.3-4.993 5.876-4.354 8.375a2.04 2.04 0 0 0 1.415 1.4 3.615 3.615 0 0 0 1.143.179c2.3 0 5.131-1.819 6.61-2.913a10.148 10.148 0 0 0 1.682-1.62 7.552 7.552 0 0 1 1.608-1.482c-1.2 3.572-3.923 7.231-8.225 7.231" transform="translate(-48.458 -24.263)" style="fill-rule:evenodd;fill:#fff"/>
        <path data-name="패스 7443" d="M170.3 113.531a9.22 9.22 0 0 1-5.521 7.812l-.256.123-.005-.281c-.239-4.036 2.807-7.874 6.54-8.3a1.287 1.287 0 0 0-.469-.977 2.6 2.6 0 0 1-.373-.459 7.419 7.419 0 0 0-5.329 3.112 6.82 6.82 0 0 0-1.573 5.656c.267 1.057.835 1.593 1.708 1.593 2.35 0 6.238-3.878 6.512-6.479a1.536 1.536 0 0 0-1.234-1.8" transform="translate(-37.376 -25.529)" style="fill:#fff"/>
        <path data-name="패스 7444" d="M154.929 112.876a1.21 1.21 0 0 0-.665.318c-2.815 2.564-8.372 7.1-11.124 7.168-.655.02-.912-.429-.912-1.012-.093-2.876 2.856-6.524 4.577-8.16a20.385 20.385 0 0 1 6.545-4.128c.02-.01.786-.291 1.163-.414a18.132 18.132 0 0 1 2.059-.423l-.263.336c-.32.4-.654.782-.976 1.149a18.805 18.805 0 0 0-1.51 1.876c.362-.224.729-.445 1.095-.658a15.942 15.942 0 0 0 3.153-2.26c-.08-.146-.338-.658-.384-.755a10.107 10.107 0 0 0-1.193-2 12.981 12.981 0 0 0-4.865 1.318c-.463.214-.92.449-1.356.685-3.878 2.151-9.5 7.255-9.358 12.406a4.494 4.494 0 0 0 .645 2.248 2.7 2.7 0 0 0 2.41 1.492 3.151 3.151 0 0 0 1.554-.5c2.538-1.322 6.893-5.212 9.028-7.475a12.477 12.477 0 0 1-1.745 3.847c-1.866.445-7.468 4.283-7.395 6.9.029 1.013.561 1.641 1.29 1.625 3.031-.091 6.334-5.747 7.711-8.083.314-.107 1.009-.163.994-.582 0-.066 0-.163-.169-.159l-.554.021a10.337 10.337 0 0 0 1.341-3.924 1.471 1.471 0 0 0-1.1-.853m-8.649 12.1c.177-2.171 4.344-5.334 5.976-6.126-1.725 2.545-4.354 6.04-5.976 6.126" transform="translate(-32.278 -23.801)" style="fill:#fff"/>
        <path data-name="패스 7445" d="M197.559 105.961a1.846 1.846 0 0 0-1.582-2 2.936 2.936 0 0 0-.436-.056h-.129a1.11 1.11 0 0 0-.141.006c-.746.071-1.385.71-2.479 1.972-.172.193-1.545 1.753-2.476 2.8-.265.292-.543.6-.868.982-.415.486-.888 1.017-1.42 1.655a10.622 10.622 0 0 1-2.535.51 1.929 1.929 0 0 1-.427-.03s.164 1 .757 1a7.887 7.887 0 0 0 1.4-.424 68.685 68.685 0 0 1-5.914 4.855 33.444 33.444 0 0 1-4.172 2.238l-.266.04-.032-.2c-.06-2.555 1.332-4.548 2.8-6.658.15-.219.3-.429.445-.648.387-.562.873-1.15 1.385-1.784 1.375-1.68 4.927-4.762 4.562-6.208a2.543 2.543 0 0 0-1.573-1.553c-.429 2.749-3.967 5.969-5.471 7.945-1.992 2.633-3.867 5.105-3.149 9.018a2.255 2.255 0 0 0 2.519.449 9.073 9.073 0 0 0 1.961-1.046 13.914 13.914 0 0 0 2.569-1.9c.887-.884 1.8-1.742 2.771-2.539a24.365 24.365 0 0 0-3.719 5.927 7.928 7.928 0 0 0-.617 2.968c0 1.324.994 2.826 2.261 2.826 1.1 0 2.447-.419 4.786-3.189.419-.481.8-.987 1.165-1.5a17.243 17.243 0 0 0 1.937-3.417 8.783 8.783 0 0 0 .756-3.245c0-1.354-.7-2.62-1.911-2.62a.47.47 0 0 0-.176.025c-.146.052-.2.168-.2.4 0 .117.143.148.341.183a2.164 2.164 0 0 1 .306.082c.426.153.837.486.837 1.543a7.1 7.1 0 0 1-.383 1.732 17.109 17.109 0 0 1-3.522 5.667c-.133.148-.281.307-.439.475-1.115 1.18-2.777 2.749-4.006 2.749-.4-.057-.564-.389-.564-.874a3.448 3.448 0 0 1 .024-.352 7.941 7.941 0 0 1 .866-2.6 33.83 33.83 0 0 1 3.108-4.94c.948-1.125 2.111-2.55 3.571-4.4a30.6 30.6 0 0 1 3.98-.9c.1-.031.278-.031.294-.153 0-.205-.6-.24-.7-.24a10.86 10.86 0 0 0-2.712.455 71.27 71.27 0 0 1 1.893-2.018c.137-.138.258-.271.389-.4.207-.219.4-.424.587-.614s.4-.408.614-.613a9.9 9.9 0 0 1 2.075-1.722c.853-.266.961 1.195.961 1.195s.035-.143.072-.357a.244.244 0 0 1 .011-.087c.013-.066.013-.123.022-.215z" transform="translate(-40.243 -23.467)" style="fill:#fff"/>
    </g>
</svg>
